<svg width="349" height="172" viewBox="0 0 349 172" fill="none" xmlns="http://www.w3.org/2000/svg">
<path d="M29.0928 7.15285L45.0828 27.1428L60.0928 4.15285C62.3528 2.84285 85.7128 0.31281 88.6928 1.11281C90.8028 1.67281 90.6328 5.9128 93.3228 6.8528C98.5028 8.6628 107.463 5.25282 112.113 8.12282C114.443 9.56282 123.253 26.9228 124.103 31.1428L136.393 7.4728L160.973 7.28285L163.163 1.01283C193.053 -1.15717 222.433 6.93281 251.963 3.24281L254.323 25.8728C255.883 30.8628 264.013 28.9129 268.053 29.1629L270.043 3.14284L348.033 11.1629L344.023 45.1629L322.043 41.1528L316.163 94.3128L282.153 91.0527L282.023 77.1528C267.173 90.9528 245.103 90.7429 226.043 91.1629V75.1629C218.053 80.1729 225.763 91.5729 224.053 99.1629C242.333 96.8629 261.933 97.1528 278.013 87.1528L279.203 97.3828L303.703 101.503L313.813 152.963L30.0928 171.173L44.1228 76.6727C46.3728 71.6927 59.5928 73.4328 64.0928 73.1428L62.0728 61.1727L55.1528 67.2228H39.3828L36.1128 63.1828L38.0828 91.1629L6.11277 93.1528L0.0927734 7.17275H29.0828L29.0928 7.15285ZM86.0928 7.14284C59.2828 2.04284 59.3028 17.6728 47.0628 35.1428L26.0228 12.1128L4.11277 13.1629L10.0928 87.1629H32.1028L30.1128 49.1528C44.5528 67.1228 58.0528 66.9429 64.1128 43.1629L70.3728 82.8628L92.0928 81.1328L86.1028 7.13283L86.0928 7.14284ZM166.063 10.1528V42.1528C166.063 51.2828 156.453 63.3228 146.153 61.2328L147.943 82.2728C182.533 90.4428 185.143 49.5328 186.053 25.1428H196.073L194.053 83.1629L216.053 85.1629L220.073 9.14284C211.683 10.8128 168.473 2.40285 166.073 10.1528H166.063ZM246.013 9.14284L226.033 11.1428L232.033 85.1629C250.163 83.9729 280.983 83.0528 283.653 59.6128C285.963 39.3428 267.383 32.3627 250.243 34.9227L246.003 9.13283L246.013 9.14284ZM338.003 37.1629C337.453 31.8629 343.093 19.4228 338.143 16.0228L276.083 9.20278L274.033 31.1629L294.023 29.1629L288.083 85.0628L312.033 87.1629L318.043 33.1528L338.013 37.1528L338.003 37.1629ZM124.103 43.1528C116.093 28.3128 113.443 7.95285 92.0728 13.1528C89.9028 32.4828 106.913 47.1928 113.833 64.1928C108.323 70.8528 102.463 69.5428 96.1028 65.1528C87.3128 103.883 133.353 90.7128 139.623 65.7028C140.483 62.2528 139.403 54.2629 140.323 53.2929C140.933 52.6429 144.733 54.0628 146.263 51.9628C151.393 44.9428 153.833 24.3928 159.983 16.1228C159.623 11.8728 144.063 12.8328 140.393 13.4828L128.213 41.9227L124.103 43.1428V43.1528ZM156.033 53.1528L160.043 35.1629L152.093 52.1828L156.033 53.1528ZM288.023 37.1629H284.043V41.1428H288.023V37.1629ZM104.063 61.1428L94.0928 43.1629C93.5528 51.5129 92.6128 61.9328 104.063 61.1428ZM188.043 89.1629L187.053 63.1328C182.543 82.0628 166.023 94.3028 146.353 87.8528C142.563 86.6128 140.323 85.5927 140.023 81.1727L137.083 81.1428C128.443 94.5128 112.183 97.8128 97.1628 93.0628C92.6628 91.6428 89.5428 87.7529 84.9028 87.1629C78.2428 86.3229 71.1028 90.5027 64.0828 89.1727C66.1128 99.7327 79.6828 93.8629 88.9528 95.2829C101.633 97.2129 106.943 104.853 124.133 100.223C138.313 96.4028 129.713 95.1028 148.973 95.2428C166.143 95.3728 171.623 94.4427 181.073 79.1727C186.963 76.1827 181.903 94.0728 185.213 95.3828C187.903 97.2928 223.173 101.283 222.033 91.1727L188.043 89.1727V89.1629ZM82.7728 135.923C87.1328 134.103 92.5728 134.623 95.0228 129.113C106.933 102.273 52.6028 100.753 54.1128 124.013C54.8828 135.823 63.1128 133.113 68.6028 135.283C70.5528 136.053 69.3328 138.733 72.9928 139.313C82.1028 140.753 81.3228 136.533 82.7728 135.923ZM100.073 107.153V139.153C111.033 141.303 112.433 134.883 117.073 127.133L118.063 139.163H130.073V107.153C119.863 104.563 119.083 115.183 112.093 119.153L111.203 109.023L100.073 107.153ZM166.063 107.153L141.943 108.023C138.203 110.623 141.163 120.833 139.673 125.753C138.473 129.733 131.033 133.273 134.083 141.143L145.233 137.323L153.033 115.173C159.213 118.573 154.383 137.533 156.053 139.163H166.063V107.153ZM172.063 110.153V139.153C187.003 140.123 205.853 141.203 195.263 120.953L184.073 119.143L182.213 108.003L175.283 107.333L172.063 110.153ZM204.053 107.153V139.153H214.063V127.153C217.953 129.723 219.983 131.673 225.123 131.383C228.503 131.193 233.013 117.423 232.033 139.163H242.043V107.153C228.263 103.193 231.503 117.763 221.073 121.173C216.653 114.453 214.243 105.203 204.053 107.153ZM248.043 110.153V139.153C262.983 140.123 281.833 141.203 271.243 120.953L260.053 119.143L258.193 108.003L251.263 107.333L248.043 110.153ZM288.033 107.153H278.033V139.153H288.033V107.153Z" fill="#D4DEE8"/>
<path d="M252.053 53.1628C262.133 52.3128 262.253 59.9727 255.043 65.1127L252.053 53.1628Z" fill="#D4DEE8"/>
<path d="M70.0627 127.152L65.9827 122.152L69.0927 117.162L70.0627 127.152Z" fill="#D4DEE8"/>
<path d="M84.0727 119.162L83.0927 127.142C80.0127 124.982 79.6127 122.852 80.0927 119.162H84.0727Z" fill="#D4DEE8"/>
<path d="M264.023 127.162L264.013 130.122L260.053 133.152L260.043 127.162H264.023Z" fill="#D4DEE8"/>
<path d="M188.043 127.162L188.033 130.122L184.073 133.152L184.063 127.162H188.043Z" fill="#D4DEE8"/>
</svg>
