<svg width="700" height="400" viewBox="0 0 700 400" fill="none" xmlns="http://www.w3.org/2000/svg">
<path d="M226.086 157.851C225.886 166.561 224.996 175.761 214.066 173.851L238.086 243.821L223.336 247.701C217.866 246.061 220.346 231.671 213.136 231.761C207.156 231.831 196.856 246.691 190.066 242.971C186.346 240.931 185.906 232.861 180.096 233.851L177.996 247.761C176.206 249.321 159.146 245.971 162.406 239.351L184.116 174.871L170.096 173.831L174.346 158.101C178.756 156.771 184.596 158.921 188.696 157.901C191.016 157.321 190.936 152.481 193.186 151.901C195.436 151.321 202.726 157.011 207.206 157.721C213.176 158.661 219.986 157.351 226.086 157.851ZM200.066 185.851C194.956 185.041 196.966 186.301 195.906 188.651C190.196 201.301 187.236 218.551 182.106 231.831L205.106 218.341L214.066 227.831L200.056 185.851H200.066Z" fill="#D4DEE8"/>
<path d="M302.066 155.84V191.84C302.066 192.15 306.006 190.67 308.206 193.1C309.806 194.86 313.426 206.52 312.066 207.83H302.056C303.566 226.54 301.606 247.65 278.076 245.85C278.576 241.96 277.176 236.79 278.046 233.26C278.526 231.34 282.466 230.91 283.856 228.7C287.606 222.75 285.696 214.58 286.076 207.84H258.086V247.84L241.996 242.52C240.576 233.27 244.206 217.47 242.116 209.26C241.846 208.21 232.186 202.29 232.056 192.87L242.086 191.84V157.84H258.086V191.84H286.076V162.84L302.076 155.84H302.066Z" fill="#D4DEE8"/>
<path d="M438.006 185.849L441.076 177.839L452.186 183.039C452.936 187.689 445.106 198.239 444.436 203.289C443.726 208.689 448.196 217.339 448.186 224.829C448.166 241.239 437.406 247.699 422.026 245.839C418.606 231.239 425.696 232.839 430.186 226.989C436.716 218.489 423.026 193.569 420.056 195.839L407.986 247.799L394.386 243.509L407.606 180.409L396.316 168.879L405.026 156.219C419.286 160.649 424.456 175.109 433.186 183.679C434.826 185.289 434.906 186.559 438.026 185.829L438.006 185.849Z" fill="#D4DEE8"/>
<path d="M334.056 157.84V221.84C348.136 212.83 348.536 194.71 352.326 180.11L366.056 179.83C365.916 208.74 348.406 245.77 315.066 245.91C308.866 245.94 313.386 234.44 311.926 230.92L318.056 229.84V157.84H334.056Z" fill="#D4DEE8"/>
<path d="M372.046 178.841C370.266 172.461 357.406 173.671 352.046 173.851V157.831C361.646 157.291 375.326 157.431 382.096 165.351C383.196 166.631 388.046 176.041 388.046 176.841V245.841H372.046V178.841Z" fill="#D4DEE8"/>
<path d="M476.016 245.84H460.016V180.84C460.016 174.04 447.136 173.04 442.026 173.83C441.246 146.55 476.006 159.17 476.006 174.84V245.84H476.016Z" fill="#D4DEE8"/>
<path d="M534.006 157.84L532.006 173.84H500.016C498.006 193.58 512.756 192.68 528.016 191.84L525.796 207.61C494.546 212.33 472.786 186.5 489.026 157.84H534.016H534.006Z" fill="#D4DEE8"/>
<path d="M538.006 229.84C537.286 234.09 534.716 244.21 530.686 245.52C526.916 246.74 497.556 246.42 494.036 244.82C491.846 243.83 482.186 231.14 481.946 228.77C481.666 226.02 489.116 206.53 491.176 206.01L503.936 209.95L498.006 229.84H537.996H538.006Z" fill="#D4DEE8"/>
</svg>
