<svg width="377" height="97" viewBox="0 0 377 97" fill="none" xmlns="http://www.w3.org/2000/svg">
<path d="M64.0929 6.1633C63.8929 14.8733 63.0029 24.0733 52.0729 22.1633L76.0929 92.1333L61.3429 96.0133C55.8729 94.3733 58.3529 79.9833 51.1429 80.0733C45.1629 80.1433 34.8629 95.0033 28.0729 91.2833C24.3529 89.2433 23.9129 81.1733 18.1029 82.1633L16.0029 96.0733C14.2129 97.6333 -2.84711 94.2833 0.412892 87.6633L22.1229 23.1833L8.10289 22.1433L12.3529 6.4133C16.7629 5.0833 22.6029 7.2333 26.7029 6.2133C29.0229 5.6333 28.9429 0.793303 31.1929 0.213303C33.4429 -0.366697 40.7329 5.3233 45.2129 6.0333C51.1829 6.9733 57.9929 5.6633 64.0929 6.1633ZM38.0729 34.1633C32.9629 33.3533 34.9729 34.6133 33.9129 36.9633C28.2029 49.6133 25.2429 66.8633 20.1129 80.1433L43.1129 66.6533L52.0729 76.1433L38.0629 34.1633H38.0729Z" fill="#D4DEE8"/>
<path d="M140.073 4.15234V40.1523C140.073 40.4623 144.013 38.9823 146.213 41.4123C147.813 43.1723 151.433 54.8323 150.073 56.1423H140.063C141.573 74.8523 139.613 95.9623 116.083 94.1623C116.583 90.2723 115.183 85.1023 116.053 81.5723C116.533 79.6523 120.473 79.2223 121.863 77.0123C125.613 71.0623 123.703 62.8923 124.083 56.1523H96.093V96.1523L80.003 90.8324C78.583 81.5824 82.213 65.7823 80.123 57.5723C79.853 56.5223 70.193 50.6023 70.063 41.1823L80.093 40.1523V6.15234H96.093V40.1523H124.083V11.1523L140.083 4.15234H140.073Z" fill="#D4DEE8"/>
<path d="M276.013 34.1613L279.083 26.1512L290.193 31.3513C290.943 36.0013 283.113 46.5513 282.443 51.6013C281.733 57.0013 286.203 65.6513 286.193 73.1413C286.173 89.5513 275.413 96.0112 260.033 94.1512C256.613 79.5512 263.703 81.1513 268.193 75.3013C274.723 66.8013 261.033 41.8812 258.063 44.1512L245.993 96.1113L232.393 91.8212L245.613 28.7212L234.323 17.1912L243.033 4.53125C257.293 8.96125 262.463 23.4213 271.193 31.9913C272.833 33.6013 272.913 34.8713 276.033 34.1413L276.013 34.1613Z" fill="#D4DEE8"/>
<path d="M172.063 6.15234V70.1523C186.143 61.1423 186.543 43.0223 190.333 28.4223L204.063 28.1423C203.923 57.0523 186.413 94.0824 153.073 94.2224C146.873 94.2524 151.393 82.7523 149.933 79.2323L156.063 78.1523V6.15234H172.063Z" fill="#D4DEE8"/>
<path d="M210.053 27.1527C208.273 20.7727 195.413 21.9827 190.053 22.1627V6.14272C199.653 5.60272 213.333 5.74272 220.103 13.6627C221.203 14.9427 226.053 24.3527 226.053 25.1527V94.1527H210.053V27.1527Z" fill="#D4DEE8"/>
<path d="M314.023 94.1524H298.023V29.1524C298.023 22.3524 285.143 21.3524 280.033 22.1424C279.253 -5.13764 314.013 7.48236 314.013 23.1524V94.1524H314.023Z" fill="#D4DEE8"/>
<path d="M372.013 6.15234L370.013 22.1523H338.023C336.013 41.8923 350.763 40.9923 366.023 40.1523L363.803 55.9223C332.553 60.6423 310.793 34.8123 327.033 6.15234H372.023H372.013Z" fill="#D4DEE8"/>
<path d="M376.013 78.1523C375.293 82.4023 372.723 92.5223 368.693 93.8323C364.923 95.0523 335.563 94.7323 332.043 93.1323C329.853 92.1423 320.193 79.4523 319.953 77.0823C319.673 74.3323 327.123 54.8423 329.183 54.3223L341.943 58.2623L336.013 78.1523H376.003H376.013Z" fill="#D4DEE8"/>
</svg>
