<svg width="425" height="150" viewBox="0 0 425 150" fill="none" xmlns="http://www.w3.org/2000/svg">
<path d="M2.90308 81.1521L10.923 72.172C8.90303 61.532 13.953 14.892 9.99304 9.062C8.21304 6.442 1.66309 7.68198 0.913086 3.17198C10.5831 1.97198 20.353 3.42199 29.923 3.30199C40.723 3.17199 50.9931 3.34206 61.9531 3.25206C70.2531 3.19206 81.323 -2.9079 88.873 4.1621C78.803 7.8821 77.633 6.65201 76.803 18.072C76.183 26.542 75.7231 73.062 79.3431 76.692C81.5331 78.882 87.0331 77.5421 86.8831 81.1521H54.8931C53.5631 74.8721 59.853 78.432 60.933 72.212C62.633 62.442 63.483 36.432 62.983 26.062C62.673 19.592 60.703 13.632 60.873 7.17198C52.313 9.86198 29.2231 -0.397914 26.8931 12.1521C25.1831 21.3921 25.7331 57.8921 26.7831 68.2721C27.0731 71.1721 26.583 73.8821 28.683 76.3721C31.433 79.6421 36.7831 77.4221 36.9031 81.1521H2.91309H2.90308Z" fill="#D4DEE8"/>
<path d="M290.833 36.1523L286.763 34.0223C274.603 39.2523 274.533 53.1423 270.943 64.2523C269.493 68.7423 263.733 70.7323 269.363 73.5623C274.263 76.0223 279.743 78.1723 284.823 75.1523C282.783 88.7023 265.513 77.4523 259.893 77.3323C255.283 77.2323 250.103 82.1523 244.863 81.1423L252.843 74.1624C251.213 70.7924 229.633 53.8023 225.803 53.1323C219.833 52.0923 221.123 64.1223 222.943 67.6923C224.113 69.9923 227.583 68.0623 226.843 71.1323L204.843 70.1523C213.393 69.1723 212.083 38.6122 209.883 35.0522C208.513 32.8222 203.023 34.6024 204.883 29.1624H226.853C228.453 30.6024 216.333 45.2723 223.863 49.1123C229.993 43.1623 242.103 39.5824 236.863 29.1624H258.843C257.703 33.3424 250.553 32.3524 247.003 34.2924C242.253 36.8924 238.983 44.0924 232.843 46.1624C232.053 50.1424 233.893 48.6623 235.433 49.6223C243.183 54.4623 252.083 56.3123 257.853 65.1023C259.863 65.1523 263.493 49.9023 265.103 46.4023C274.993 24.8723 288.903 31.0123 308.833 29.1523C310.703 34.8023 304.383 32.5623 303.113 36.3523C302.053 39.5323 302.333 65.0023 303.803 67.1923C305.143 69.2023 309.473 67.9623 308.833 71.1123H284.863C284.193 68.0623 290.853 68.0423 290.853 66.1323V36.1323L290.833 36.1523Z" fill="#D4DEE8"/>
<path d="M340.803 53.1522L334.733 54.0521C331.503 56.4021 332.683 63.4722 334.153 66.7722C335.533 69.8722 339.313 67.9322 338.823 71.1422H316.843C323.443 63.4722 323.533 48.8221 322.033 39.0521C320.943 31.9321 316.413 34.9921 316.853 29.1721H340.823C340.203 33.0421 334.713 31.5322 333.203 36.5322C332.053 40.3422 333.063 45.1621 332.843 49.1721L340.523 48.8222C345.683 18.1422 402.123 22.7022 395.973 55.2422C391.003 81.5422 343.083 79.2422 340.813 53.1622L340.803 53.1522ZM366.293 33.4622C348.673 36.6222 351.173 71.8622 371.383 68.7922C387.213 66.3822 387.303 29.7022 366.293 33.4622Z" fill="#D4DEE8"/>
<path d="M288.833 137.153L268.843 137.133C275.713 129.363 272.053 118.673 272.823 109.153C266.423 111.363 247.483 144.903 240.863 139.143C240.083 136.963 242.853 134.763 242.853 134.153V102.153C242.853 100.953 238.013 95.7929 238.853 95.1729H260.833C261.433 98.2629 257.383 97.0529 255.913 99.2029C253.863 102.193 252.643 112.183 252.763 116.103C252.853 119.133 251.433 121.973 255.813 121.143C259.053 116.443 281.273 86.2429 286.823 91.1729C284.783 102.533 283.293 118.843 284.653 130.313C285.223 135.093 290.303 131.153 288.823 137.163C295.673 132.533 301.443 126.843 308.803 123.123L307.563 119.153C289.813 119.223 296.513 95.163 309.813 95.163H346.803C337.833 107.063 338.783 125.013 346.803 137.143H324.813C332.243 131.483 334.003 103.663 326.823 100.163C311.243 92.563 301.523 111.863 315.323 117.643C319.393 119.353 325.863 117.683 326.793 121.133C308.913 129.183 300.223 149.673 278.123 149.003C276.553 148.953 268.513 147.973 268.833 145.183C278.883 147.203 282.443 141.463 288.823 137.163L288.833 137.153Z" fill="#D4DEE8"/>
<path d="M148.873 33.1524C148.593 32.7224 142.803 34.7224 144.883 29.1624H168.863L160.843 38.1324C160.913 43.4524 160.563 48.8824 160.863 54.1924C160.993 56.4424 159.543 59.6824 162.833 59.1424C163.943 52.5624 189.513 20.5323 194.843 25.1723C195.623 27.3523 192.853 29.5524 192.853 30.1624V66.1624C192.853 68.0724 199.513 68.0924 198.843 71.1424H176.863C183.173 63.5624 181.283 52.3923 179.873 43.1723C169.053 52.7423 162.863 69.5324 148.873 75.1624V33.1624V33.1524Z" fill="#D4DEE8"/>
<path d="M182.863 100.152C182.053 97.782 176.353 98.3519 176.873 95.1719H202.843C203.253 98.9319 197.663 96.3319 195.703 98.9919C193.633 101.802 195.313 109.382 194.853 113.162L211.703 113.192C213.693 112.892 213.313 102.372 212.613 100.382C211.383 96.882 206.493 98.5619 206.863 95.1719H232.833C233.333 98.7219 224.843 98.702 224.843 99.152V133.152C224.843 133.602 233.333 133.582 232.833 137.132H206.853C213.113 130.942 213.783 125.922 212.853 117.142C202.283 116.162 190.313 115.752 195.123 129.932C196.413 133.722 202.703 131.482 200.843 137.132H178.873C178.283 132.922 178.733 132.672 182.863 133.142C181.223 124.972 185.103 106.702 182.863 100.142V100.152Z" fill="#D4DEE8"/>
<path d="M112.883 130.152L120.873 137.142H96.9031C94.7931 131.922 100.463 133.952 100.923 131.862C101.623 128.682 100.513 124.562 100.873 121.162C92.873 123.682 76.173 126.212 73.303 115.742C71.393 108.782 75.4331 101.342 68.8931 95.1719H88.8831C80.3331 107.272 82.9531 127.752 100.953 115.822C100.323 111.282 102.033 104.362 100.633 100.392C99.4031 96.882 94.5131 98.5719 94.8831 95.1819H120.853C121.393 98.7419 112.863 96.992 112.863 100.162V130.162L112.883 130.152Z" fill="#D4DEE8"/>
<path d="M96.8831 33.152C96.6731 32.822 90.6931 32.4319 90.8831 29.1719C102.183 33.1919 137.563 23.6219 139.053 40.1119C140.543 56.6019 126.563 57.832 112.873 57.132L126.603 50.892L124.073 34.9719C102.743 24.5719 106.843 61.902 112.873 73.132H92.8931C91.3931 69.572 96.8831 67.032 96.8831 66.152C96.8831 61.122 97.7531 34.552 96.8831 33.152Z" fill="#D4DEE8"/>
<path d="M168.863 95.1526L170.853 107.143C164.813 108.073 167.193 101.993 161.003 100.023C156.413 98.5626 151.553 99.1726 146.863 99.1426L147.133 112.863C153.913 116.953 157.333 112.803 162.843 109.153L162.873 122.143L146.873 117.143L146.853 133.153C158.043 134.493 163.213 133.013 170.833 125.143L170.533 134.802C169.083 135.102 166.583 137.143 165.853 137.143H128.863C136.663 133.203 136.663 103.213 133.903 99.0825C132.563 97.0725 128.243 98.3226 128.863 95.1426H168.853L168.863 95.1526Z" fill="#D4DEE8"/>
<path d="M422.793 45.1624C426.033 47.6324 422.753 48.7824 419.843 49.1524C413.933 49.9024 406.893 48.6224 400.813 49.1324C404.723 41.8624 416.093 46.2224 422.793 45.1624Z" fill="#D4DEE8"/>
</svg>
