<svg width="441" height="216" viewBox="0 0 441 216" fill="none" xmlns="http://www.w3.org/2000/svg">
<path d="M336.624 26.1732L309.549 91.7012C315.651 89.3056 324.442 80.729 330.047 88.1192C335.403 95.8709 329.855 104.165 328.714 111.996C338.883 109.883 345.968 80.1527 356.986 86.04L343.72 113.465L341.177 123.33C351.166 119.544 370.376 89.9949 376.433 87.4299C379.258 86.2321 382.885 86.1869 381.857 90.5938L367.111 123.296C372.772 116.685 380.501 112.809 386.399 106.448C394.648 97.5433 399.971 79.1358 415.7 83.78C406.536 94.1759 395.383 106.459 395.394 121.081C397.733 124.245 428.797 89.5768 431.531 88.3112C436.006 86.2321 437.622 86.7632 440.514 90.5712C425.022 106.549 416.548 126.708 412.31 148.223C405.734 136.709 410.694 125.906 413.429 114.312C409.858 110.448 396.818 132.731 387.699 130.008C380.625 127.895 385.473 114.956 386.309 109.781L364.489 129.782C350.454 130.177 360.862 117.352 361.449 109.781C351.709 116.414 345.968 131.737 332.137 130.076L333.245 112.086C322.51 118.798 312.555 134.607 298.215 130.098C297.933 123.612 306.566 124.313 311.538 119.725C317.764 113.985 321.222 105.883 320.871 97.3964C320.736 93.9838 322.408 90.7746 317.436 91.7238L303.809 109.747L255.287 209.209C259.298 181.354 272.497 154.212 284.588 128.968L274.531 132.381L269.965 118.832C264.09 123.962 259.637 133.398 250.552 129.183L247.366 121.092C242.27 127.059 236.461 131.194 228.156 130.121C226.122 116.866 236.168 100.865 246.168 92.7747C252.191 87.9045 265.468 78.8872 266.553 91.6786C256.733 91.4978 247.434 101.397 242.066 109.013C240.846 110.742 229.851 129.239 238.281 125.578C244.801 122.753 257.163 99.0574 264.282 105.272L258.632 125.59C270.519 117.476 275.875 102.945 285.706 93.916C290.848 89.1926 301.854 84.9213 303.763 82.6048C307.73 77.7911 314.973 51.3833 321.222 41.3038C322.646 39.0099 332.962 22.4217 336.578 26.1732H336.624ZM302.735 91.7125C292.848 90.1079 273.932 126.245 275.638 127.838L287.989 121.002L302.746 91.7125H302.735Z" fill="#D4DEE8"/>
<path d="M52.3072 42.3548L29.4023 95.1252C40.318 89.5205 54.6462 71.4068 67.5394 81.7236L60.9855 102.99C73.1441 101.589 77.4607 85.1587 90.3538 87.2153L72.2966 123.341C76.2629 124.143 77.8787 121.307 80.2291 118.866C85.1785 113.736 103.789 89.0459 107.564 87.4526C120.717 81.8705 102.456 109.826 101.247 112.776C100.038 115.725 97.7891 120.222 98.2411 123.307C114.117 115.284 128.028 79.4749 147.339 83.1361C157.43 85.0457 156.786 92.3907 154.718 100.707L183.792 83.0344L188.787 87.2266C192.233 94.0178 166.289 113.827 167.182 123.341C193.273 119.68 196.618 91.272 213.489 75.9381C221.93 81.927 208.98 86.5938 210.121 93.9727C239.331 72.3673 231.986 108.403 218.325 122.539C212.291 128.788 194.154 140.087 192.041 125.624C200.415 130.81 209.726 119.815 214.257 112.821C227.06 93.0574 219.003 88.4131 203.285 104.741L144.537 216L140.028 214.859L182.945 122.2L163.769 131.488L156.808 125.748C155.102 116.742 171.476 99.5209 176.222 91.7353C156.435 95.0913 140.751 131.194 123.112 132.144C113.168 132.675 112.468 122.019 112.942 114.312C98.6366 128.731 81.4608 142.562 92.6025 109.792C84.1728 117.872 77.0765 131.33 63.2906 130.098C60.3639 121.002 64.8387 111.521 70.014 104.131C58.7142 101.137 56.5333 116.923 51.5501 124.087C44.2052 134.652 33.5381 149.771 19.1759 148.415C2.05661 146.788 17.1645 131.409 23.7637 125.68C39.1993 112.29 59.0871 110.267 55.3581 82.6954C22.1026 94.3568 20.2833 123.352 5.60476 148.28C3.88718 151.207 6.01153 153.975 0 152.732C0.0338996 122.324 22.3512 106.38 12.9158 75.407C9.45806 64.0393 -6.66692 47.2816 5.58214 37.4055C18.6222 26.8853 79.8111 36.9648 100.614 35.3037C154.3 31.021 141.305 -5.80524 97.1902 6.99751C112.795 -8.77711 151.147 3.81095 140.627 27.8797C130.423 51.2365 72.5453 39.7898 52.3185 42.3774L52.3072 42.3548ZM47.4256 42.0045L9.26591 44.4679C6.82514 60.3216 20.6562 73.26 18.0798 89.4414L47.4256 42.0045ZM122.005 125.59C127.372 131.194 156.831 97.4304 146.819 87.1814C133.146 93.5885 121.101 110.211 122.005 125.59ZM22.5997 143.681C26.905 141.918 48.081 119.793 45.1543 116.561C34.4646 122.098 20.8257 129.398 22.5997 143.681Z" fill="#D4DEE8"/>
</svg>
