<svg width="700" height="400" viewBox="0 0 700 400" fill="none" xmlns="http://www.w3.org/2000/svg">
<path d="M378.283 189.218L378.153 190.261C380.455 192.9 382.056 195.941 383.481 199.1C387.113 207.128 388.377 226.186 400.989 214.555C409.945 206.298 406.457 203.628 408.415 193.3C410.379 182.988 420.618 159.563 432.972 159.034C434.845 158.953 440.868 160.281 442.6 160.979C446.302 162.463 447.466 169.241 447.443 172.774C447.357 184.899 436.1 216.321 422.015 218.198C416.05 218.989 414.374 216.427 409.524 214.252C404.941 223.654 391.301 237.436 380.31 229.426C371.757 223.188 372.433 199.002 367.282 195.482C366.602 195.017 365.978 194.866 365.169 194.853C362.29 203.59 356.707 229.992 345.539 230.851C342.98 231.044 336.331 229.587 336.353 226.594C336.361 225.178 346.456 206.834 348.058 203.301C352.398 193.745 358.777 179.131 360.982 169.112C361.506 166.723 362.9 161.278 360.21 160.118C354.392 157.617 345.45 169.99 343.057 174.419C341.823 176.705 338.282 187.12 337.663 187.46C333.281 189.851 329.232 183.005 329.232 179.016C329.235 164.098 350.419 149.159 364.68 153.442C378.941 157.724 371.154 175.486 368.887 185.059C368.706 185.811 367.713 186.922 369.466 186.629C370.735 186.414 377.778 182.017 379.327 180.961C388.296 174.816 397.843 165.039 402.785 155.281C404.182 152.511 407.629 142.193 408.737 141.279C411.791 138.752 419.344 140.818 420.482 145.109C422.388 152.273 416.149 160.832 411.732 165.915C403.032 175.929 390.237 183.635 378.291 189.211L378.283 189.218ZM437.01 167.493C431.901 168.274 424.598 183.444 423.167 188.073C421.93 192.076 417.435 209.627 426.264 207.016C434.024 204.717 440.655 181.456 440.7 174.119C440.713 171.724 440.547 166.962 437.01 167.5L437.01 167.493Z" fill="#D4DEE8"/>
<path d="M156.68 150.779C163.618 149.21 167.402 151.501 166.526 158.829C165.465 167.698 158.219 182.524 155.342 191.897C154.545 194.479 153.629 197.083 153.4 199.801C174.138 199.185 189.518 175.888 189.389 156.636C189.334 148.746 184.224 144.084 176.899 142.361C145.237 134.902 120.063 170.538 123.574 199.249C107.524 202.524 107.702 186.788 111.455 175.603C119.102 152.804 145.107 133.6 169.089 132.153C226.579 128.685 204.588 202.35 160.464 207.607C158.025 207.895 151.057 207.407 150.062 208.415C147.43 216.526 144.508 224.731 142.687 233.074C141.67 237.718 143.55 243.98 137.812 244.295C114.857 245.585 131.02 215.658 135.462 204.69C142.679 186.871 152.421 169.543 156.673 150.771L156.68 150.779Z" fill="#D4DEE8"/>
<path d="M579.296 182.23C597.501 179.362 594.43 195.213 589.57 206.604C583.882 219.951 567.814 237.332 551.638 232.475C534.426 227.306 545.809 200.443 550.109 189.326C552.855 182.238 557.032 175.095 559.511 168.098C559.727 167.482 560.61 166.314 559.76 165.923C551.983 170.528 544.477 175.832 537.944 182.12C537.368 183.516 539.958 189.647 539.979 192.287C540.074 206.954 529.437 234.458 510.548 228.094C508.662 227.457 506.873 225.627 505.838 223.971C498.201 211.791 514.329 186.184 517.38 173.187C519.112 165.798 516.16 159.585 526.11 160.233C532.632 160.658 533.725 162.563 532.776 168.771C532.335 171.661 528.179 179.574 534.032 176.219C543.606 170.741 562.112 151.268 573.879 152.347C575.36 152.48 580.246 154.192 580.824 155.418C581.563 156.993 576.702 163.577 575.672 165.516C568.527 178.945 559.409 196.074 554.908 210.446C553.025 216.473 549.287 226.242 559.469 225.443C566.691 224.882 575.203 210.622 577.48 204.425C580.288 196.783 580.459 190.192 579.289 182.222L579.296 182.23ZM527.598 183.768C526.504 183.873 521.363 197.632 520.613 199.781C519.078 204.186 514.997 214.782 515.687 218.915C515.876 220.042 516.756 220.89 517.852 221.187C522.976 222.278 527.725 209.142 528.817 205.304C530.631 198.947 533.104 188.83 527.591 183.767L527.598 183.768Z" fill="#D4DEE8"/>
<path d="M259.157 195.128L257.808 194.222C251.173 210.542 244.506 246.934 228.764 256.831C221.843 261.185 210.793 260.159 210.584 250.343C232.813 242.271 243.827 214.734 251.048 193.891C254.906 182.741 260.907 172.632 242.737 174.511C243.778 161.994 262.277 158.819 268.081 169.413C274.413 180.978 268.459 198.632 267.432 210.741C267.36 211.616 266.56 213.343 267.834 213.326C274.515 202.097 280.371 189.866 287.347 178.848C292.123 171.297 295.783 162.497 306.308 167.921C300.176 187.058 292.038 206.289 291.013 226.771C290.842 230.256 292.584 242.192 291.438 243.948C290.39 245.556 285.83 246.209 283.978 245.89C276.252 244.57 276.137 238.046 276.499 231.56C277.042 221.691 280.661 211.111 281.761 201.224L262.19 238.106L260.446 239.262C258.796 239.897 254.012 236.422 254.152 235.3L259.156 195.135L259.157 195.128Z" fill="#D4DEE8"/>
<path d="M459.635 192.777C457.597 192.187 458.392 193.082 457.896 194.248C451.153 210.021 440.863 255.913 416.509 249.255C410.292 247.553 408.047 241.348 411.135 235.859C417.253 236.358 420.897 236.958 426.393 233.778C437.721 227.234 447.338 207.566 451.767 195.589C452.824 192.739 457.241 176.808 458.029 176.168C459.923 174.629 466.29 175.773 468.104 177.46C472.671 181.733 469.039 198.573 469.047 205.252C469.047 206.252 469.18 207.467 470.338 206.501C475.895 194.678 481.659 182.772 488.054 171.375C489.529 168.746 492.173 162.53 494.745 161.652C497.53 160.698 504.501 161.983 504.706 165.26C498.598 190.069 491.939 215.08 492.965 240.859C485.797 246.03 476.913 244.331 477.164 233.93C477.513 219.223 483.456 203.306 485.7 188.747L461.781 234.841C460.204 236.42 454.572 233.482 454.862 231.151L459.642 192.778L459.635 192.777Z" fill="#D4DEE8"/>
<path d="M231.857 178.394C240.609 178.279 242.907 187.164 241.714 194.394C238.334 214.897 218.297 232.294 199.919 239.831C199.15 239.261 199.251 238.63 199.089 237.872C197.627 230.961 196.677 216.421 196.786 209.21C196.923 199.897 198.317 182.552 209.429 179.677C216.503 177.847 220.469 182.9 222.252 182.779C223.468 182.697 227.817 178.453 231.864 178.402L231.857 178.394ZM218.937 201.412C220.352 197.388 219.472 186.093 213.391 187.169C207.31 188.245 207.089 198.877 207.032 203.845C206.998 206.639 208.187 225.19 209.74 225.742C211.05 225.781 212.148 225.121 213.148 224.362C218.775 220.131 226.757 211.592 230.241 205.502C233.427 199.93 241.041 182.38 228.131 184.498C223.059 185.334 225.193 190.254 225.091 193.061C224.94 197.148 224.193 202.622 218.938 201.405L218.937 201.412Z" fill="#D4DEE8"/>
<path d="M335.605 197.002C335.536 207.287 324.955 204.545 317.763 205.336C312.949 205.862 308.349 207.247 303.689 207.528C301.162 191.63 326.205 199.148 335.605 197.002Z" fill="#D4DEE8"/>
</svg>
