<svg width="496" height="209" viewBox="0 0 496 209" fill="none" xmlns="http://www.w3.org/2000/svg">
<path d="M276.283 93.3479L276.153 94.391C278.455 97.0302 280.056 100.072 281.481 103.23C285.113 111.258 286.377 130.316 298.989 118.686C307.945 110.428 304.457 107.758 306.415 97.4303C308.379 87.1181 318.618 63.6927 330.972 63.1642C332.845 63.0833 338.868 64.4108 340.6 65.1087C344.302 66.5927 345.466 73.3714 345.443 76.9045C345.357 89.0287 334.1 120.451 320.015 122.328C314.05 123.119 312.374 120.558 307.524 118.383C302.941 127.784 289.301 141.566 278.31 133.556C269.757 127.318 270.433 103.132 265.282 99.612C264.602 99.1474 263.978 98.9966 263.169 98.9834C260.29 107.721 254.707 134.122 243.539 134.981C240.98 135.174 234.331 133.717 234.353 130.725C234.361 129.308 244.456 110.964 246.058 107.431C250.398 97.8746 256.777 83.2614 258.982 73.2423C259.506 70.8528 260.9 65.4083 258.21 64.2477C252.392 61.7476 243.45 74.1201 241.057 78.5489C239.823 80.8352 236.282 91.2506 235.663 91.5899C231.281 93.9809 227.232 87.1351 227.232 83.1461C227.235 68.228 248.419 53.2894 262.68 57.5718C276.941 61.8542 269.154 79.6162 266.887 89.1893C266.706 89.9411 265.713 91.0521 267.466 90.7591C268.735 90.5446 275.778 86.1471 277.327 85.0908C286.296 78.9462 295.843 69.1695 300.785 59.4109C302.182 56.6407 305.629 46.3234 306.737 45.4093C309.791 42.8821 317.344 44.948 318.482 49.2396C320.388 56.4029 314.149 64.9625 309.732 70.0449C301.032 80.0587 288.237 87.765 276.291 93.3416L276.283 93.3479ZM335.01 71.6232C329.901 72.4041 322.598 87.5743 321.167 92.2032C319.93 96.2062 315.435 113.757 324.264 111.146C332.024 108.847 338.655 85.5857 338.7 78.249C338.713 75.8543 338.547 71.0921 335.01 71.6304L335.01 71.6232Z" fill="#D4DEE8"/>
<path d="M54.6798 54.9089C61.6185 53.3404 65.4024 55.6309 64.5261 62.9591C63.4651 71.8276 56.2192 86.6543 53.342 96.0272C52.5455 98.6092 51.6293 101.213 51.4003 103.931C72.1378 103.315 87.5183 80.0185 87.3888 60.7662C87.3342 52.8764 82.2238 48.2143 74.8989 46.4909C43.2369 39.0325 18.0637 74.6684 21.5738 103.379C5.52402 106.655 5.70177 90.9181 9.45492 79.7329C17.1022 56.9344 43.1069 37.7305 67.0894 36.2835C124.58 32.8154 102.589 106.48 58.4642 111.737C56.0247 112.025 49.0574 111.537 48.0624 112.545C45.4302 120.656 42.5084 128.861 40.6874 137.204C39.6705 141.848 41.5498 148.11 35.812 148.425C12.8572 149.715 29.0199 119.788 33.462 108.82C40.6788 91.0014 50.4209 73.6729 54.6735 54.9008L54.6798 54.9089Z" fill="#D4DEE8"/>
<path d="M477.296 86.3601C495.501 83.492 492.431 99.343 487.571 110.734C481.882 124.081 465.814 141.462 449.638 136.605C432.426 131.436 443.809 104.573 448.109 93.4564C450.855 86.3685 455.032 79.2251 457.511 72.2281C457.727 71.6121 458.61 70.4436 457.761 70.0528C449.983 74.6583 442.477 79.9623 435.944 86.2497C435.368 87.6465 437.958 93.7772 437.98 96.4173C438.074 111.084 427.437 138.588 408.548 132.224C406.662 131.587 404.874 129.757 403.838 128.101C396.201 115.921 412.33 90.3142 415.381 77.3174C417.112 69.9278 414.16 63.7154 424.11 64.3632C430.632 64.7885 431.725 66.6925 430.776 72.9012C430.336 75.7906 426.179 83.7037 432.033 80.3489C441.606 74.8713 460.112 55.3981 471.879 56.4767C473.36 56.6101 478.246 58.322 478.824 59.5483C479.563 61.1234 474.703 67.7068 473.672 69.646C466.527 83.0753 457.409 100.204 452.908 114.576C451.025 120.603 447.287 130.372 457.469 129.573C464.691 129.012 473.204 114.752 475.481 108.555C478.288 100.913 478.459 94.3222 477.289 86.352L477.296 86.3601ZM425.598 87.8979C424.504 88.0026 419.364 101.762 418.614 103.911C417.079 108.316 412.997 118.912 413.688 123.045C413.876 124.172 414.757 125.02 415.852 125.317C420.976 126.408 425.725 113.272 426.817 109.434C428.632 103.077 431.105 92.96 425.591 87.897L425.598 87.8979Z" fill="#D4DEE8"/>
<path d="M157.157 99.2579L155.808 98.352C149.173 114.672 142.506 151.065 126.764 160.961C119.843 165.315 108.793 164.289 108.584 154.473C130.813 146.401 141.827 118.864 149.048 98.0213C152.906 86.8711 158.907 76.7622 140.737 78.6411C141.778 66.1244 160.277 62.9496 166.081 73.5427C172.413 85.1076 166.459 102.762 165.432 114.871C165.36 115.746 164.56 117.473 165.834 117.456C172.515 106.227 178.371 93.9957 185.347 82.9782C190.123 75.4273 193.783 66.6269 204.308 72.051C198.176 91.1882 190.038 110.419 189.013 130.901C188.842 134.386 190.584 146.322 189.438 148.078C188.39 149.687 183.83 150.339 181.978 150.02C174.252 148.7 174.137 142.176 174.499 135.69C175.042 125.821 178.661 115.241 179.761 105.354L160.19 142.236L158.446 143.392C156.796 144.027 152.012 140.552 152.152 139.43L157.156 99.2651L157.157 99.2579Z" fill="#D4DEE8"/>
<path d="M357.635 96.907C355.598 96.3171 356.392 97.2124 355.896 98.378C349.153 114.151 338.863 160.043 314.509 153.385C308.292 151.683 306.048 145.479 309.135 139.989C315.254 140.488 318.898 141.089 324.393 137.908C335.722 131.364 345.338 111.696 349.768 99.7186C350.824 96.8694 355.241 80.9379 356.03 80.2982C357.924 78.7588 364.291 79.9027 366.104 81.5897C370.671 85.8627 367.039 102.703 367.047 109.382C367.047 110.382 367.181 111.597 368.338 110.631C373.895 98.8084 379.659 86.902 386.054 75.5053C387.529 72.8763 390.174 66.6598 392.745 65.7819C395.53 64.8285 402.501 66.1133 402.706 69.3899C396.598 94.1993 389.939 119.21 390.965 144.989C383.797 150.16 374.913 148.461 375.164 138.06C375.513 123.353 381.456 107.436 383.7 92.8775L359.782 138.971C358.204 140.55 352.572 137.612 352.862 135.282L357.643 96.9079L357.635 96.907Z" fill="#D4DEE8"/>
<path d="M129.858 82.5239C138.61 82.4087 140.907 91.2939 139.714 98.5241C136.335 119.027 116.297 136.424 97.9196 143.961C97.1505 143.391 97.251 142.76 97.0897 142.002C95.6274 135.091 94.6771 120.551 94.7864 113.34C94.9237 104.027 96.3174 86.6816 107.43 83.8066C114.503 81.9773 118.469 87.0302 120.252 86.9089C121.468 86.8266 125.817 82.5831 129.864 82.532L129.858 82.5239ZM116.937 105.542C118.352 101.518 117.472 90.2228 111.391 91.2991C105.31 92.3753 105.089 103.007 105.033 107.975C104.999 110.769 106.187 129.32 107.74 129.872C109.051 129.911 110.148 129.251 111.149 128.492C116.775 124.261 124.758 115.722 128.241 109.632C131.427 104.06 139.041 86.5099 126.131 88.6276C121.059 89.4642 123.193 94.3838 123.092 97.1912C122.94 101.278 122.193 106.752 116.938 105.535L116.937 105.542Z" fill="#D4DEE8"/>
<path d="M233.605 101.132C233.536 111.418 222.955 108.675 215.763 109.466C210.949 109.992 206.349 111.377 201.689 111.658C199.162 95.7603 224.205 103.278 233.605 101.132Z" fill="#D4DEE8"/>
</svg>
