<svg width="381" height="122" viewBox="0 0 381 122" fill="none" xmlns="http://www.w3.org/2000/svg">
<path d="M179.764 114.453C175.824 117.903 168.494 120.473 163.364 121.083C160.384 121.443 159.904 121.543 160.654 118.363C164.364 102.573 178.464 92.1733 180.114 77.6233C180.614 73.2133 178.604 70.0433 179.264 65.1333C180.744 54.0133 188.624 51.3433 192.474 42.1833C196.094 33.5933 196.284 0.583318 205.114 1.37332C224.284 3.10332 210.154 38.5833 204.844 48.5433C202.764 52.4533 197.744 55.5633 196.854 58.5533C195.324 63.6933 197.194 70.3433 196.244 75.9433C194.434 86.6633 187.924 107.313 179.764 114.453Z" fill="#D4DEE8"/>
<path d="M380.404 1.17321L338.644 119.963L322.434 121.133L363.385 3.11321C366.635 -0.796792 375.704 1.77321 380.404 1.16321V1.17321Z" fill="#D4DEE8"/>
<path d="M56.4846 1.16211L16.3247 117.982C13.0647 123.182 5.96464 120.782 0.504639 121.142L40.6846 1.35211L56.4746 1.16211H56.4846Z" fill="#D4DEE8"/>
<path d="M284.435 55.1514L261.475 119.181L244.425 120.131L286.215 2.34141L302.465 2.19141C296.185 18.3014 290.685 34.3714 286.435 51.1614L284.435 55.1614V55.1514Z" fill="#D4DEE8"/>
<path d="M286.434 51.1519C292.834 45.3819 307.034 3.80193 310.744 1.48193C313.404 -0.188067 322.524 1.91193 326.424 1.17193C320.494 19.7019 305.034 39.5619 299.794 57.5219C297.214 66.3719 290.684 118.852 288.224 120.942L272.444 121.142L284.434 55.1519C285.974 54.1619 286.034 52.7219 286.434 51.1519Z" fill="#D4DEE8"/>
<path d="M246.445 1.16277L206.675 119.963L190.465 121.143L231.435 3.14277C234.605 -0.667228 242.065 1.66277 246.445 1.16277Z" fill="#D4DEE8"/>
<path d="M154.464 1.1633L114.694 119.963L98.4841 121.133L138.634 4.3133C141.894 -0.886698 149.004 1.5033 154.464 1.1533V1.1633Z" fill="#D4DEE8"/>
<path d="M350.404 1.16211L309.454 119.182L292.434 121.142L333.385 3.12211L350.404 1.16211Z" fill="#D4DEE8"/>
<path d="M198.454 1.17188L157.494 119.182L140.474 121.142L181.424 3.12188L198.454 1.17188Z" fill="#D4DEE8"/>
<path d="M276.424 1.16097L237.544 115.261C235.014 123.471 227.424 121.051 220.444 121.141L260.604 4.32097C263.864 -0.879027 270.964 1.52097 276.424 1.16097Z" fill="#D4DEE8"/>
<path d="M108.465 1.17198L65.4949 121.112C55.6849 116.872 55.4548 107.802 56.6548 98.322C58.4348 84.352 74.7448 41.222 80.9448 26.632C86.2948 14.032 91.9448 -1.17802 108.455 1.17198H108.465Z" fill="#D4DEE8"/>
<path d="M70.4949 121.143C79.7149 96.823 90.2549 73.193 98.5149 48.193C102.655 35.653 105.295 16.453 110.335 6.02301C117.325 -8.42699 123.625 13.563 122.295 23.993C120.575 37.503 105.725 75.253 99.9749 89.653C94.2249 104.053 89.1849 122.073 70.4949 121.143Z" fill="#D4DEE8"/>
<path d="M20.5142 121.151C18.2242 106.341 33.0543 97.3112 36.6043 86.2612C40.4143 74.4012 37.6742 64.5313 43.5742 51.1413C46.9042 43.6013 49.7543 47.9712 52.8843 53.7512C63.3443 73.1012 46.2642 119.251 20.5142 121.141V121.151Z" fill="#D4DEE8"/>
<path d="M76.4749 1.17188C72.5549 14.9219 72.4649 26.8419 54.4949 23.1519L60.7649 1.44188L76.4749 1.17188Z" fill="#D4DEE8"/>
<path d="M140.464 99.1719L132.554 120.242L118.484 121.142L124.754 99.4319L140.464 99.1719Z" fill="#D4DEE8"/>
<path d="M172.464 1.1626C170.924 15.1426 169.924 26.8626 152.474 23.1426C156.174 11.1126 156.154 -2.4074 172.464 1.1626Z" fill="#D4DEE8"/>
<path d="M224.425 85.1419C220.555 85.5919 223.335 81.4919 223.865 79.5919C226.665 69.5419 231.405 60.0919 234.385 50.1019L248.425 27.1719C244.435 48.1619 233.025 66.0319 224.425 85.1419Z" fill="#D4DEE8"/>
<path d="M326.394 85.1421C322.324 85.4621 325.404 81.5721 326.014 79.7621C331.924 62.3021 337.734 43.0121 350.394 29.1621C346.014 49.4021 335.754 67.0421 326.394 85.1421Z" fill="#D4DEE8"/>
<path d="M154.454 49.1719L148.184 68.8819L136.474 69.1419L142.734 49.4219L154.454 49.1719Z" fill="#D4DEE8"/>
<path d="M351.415 25.1523C352.715 25.8223 352.715 26.4823 351.415 27.1523V25.1523Z" fill="#D4DEE8"/>
</svg>
