<svg width="331" height="165" viewBox="0 0 331 165" fill="none" xmlns="http://www.w3.org/2000/svg">
<path d="M0.493164 69.1521L158.443 4.16211L157.463 12.172L12.4932 72.1521V154.152H317.413L320.413 151.152V75.1521L203.623 26.3821L202.463 14.1521L330.413 69.1521V164.152H3.49316L0.493164 161.152V69.1521Z" fill="#D4DEE8"/>
<path d="M126.463 38.1523V144.152H116.463V84.1523L110.433 116.632L103.643 120.242L94.4727 86.1523V144.152H86.4727V52.1523L96.4526 50.1423L106.443 102.142L115.793 42.6123L126.463 38.1523Z" fill="#D4DEE8"/>
<path d="M174.453 86.1517L184.463 30.1417C186.693 29.3417 192.453 31.0117 192.453 33.1517V144.152H184.453V74.1517C181.493 75.3817 181.313 84.1817 180.773 87.4817C177.733 106.322 175.653 125.372 172.403 144.152H166.453V22.1617C168.773 21.3517 174.453 23.0417 174.453 25.1617V86.1617V86.1517Z" fill="#D4DEE8"/>
<path d="M202.442 36.1523L210.522 39.5223L210.363 84.8123L220.442 88.1523V44.1523L228.432 46.1523V144.152H220.442V98.1523L210.442 96.1523V144.152H202.442V36.1523Z" fill="#D4DEE8"/>
<path d="M134.463 35.1521L158.443 24.1621L158.113 35.822L144.463 40.1521V80.1521L154.443 78.1621C154.213 80.4521 154.893 83.092 154.583 85.222C153.833 90.252 148.963 89.4921 144.463 90.1621V134.162H156.473V144.172H134.473V35.1621L134.463 35.1521Z" fill="#D4DEE8"/>
<path d="M238.433 52.1523L244.543 53.0424L246.623 85.9623C268.083 85.6623 265.933 111.932 264.523 127.252C262.823 145.802 255.373 144.832 238.423 144.152V52.1523H238.433ZM246.433 96.1523V134.152L254.633 132.982C257.553 128.922 260.773 91.7523 246.433 96.1523Z" fill="#D4DEE8"/>
<path d="M48.1629 91.8331L40.4929 94.1432L37.4929 82.2031C35.3629 84.0931 31.813 84.4231 30.803 87.4731C29.793 90.5231 29.813 129.623 30.803 132.833C31.733 135.833 34.6629 137.023 37.4529 136.143C43.7329 134.153 35.2929 120.333 47.4529 120.143C57.5829 145.833 23.3729 155.813 20.4229 129.203C18.2629 109.743 16.173 73.1531 43.073 72.4531C50.053 74.1531 49.0028 86.1231 48.1528 91.8331H48.1629Z" fill="#D4DEE8"/>
<path d="M56.4827 67.1523L78.4526 56.1523L78.1926 67.8723L64.3828 73.4623L64.4827 96.1323L74.4526 94.1523C74.1826 96.4323 74.9428 99.1823 74.5828 101.242C73.7328 106.132 69.2226 104.592 64.4626 106.142V136.142H78.4727V144.132H56.4727V67.1423L56.4827 67.1523Z" fill="#D4DEE8"/>
<path d="M288.423 72.1526C295.603 74.7026 315.423 77.7525 309.383 88.1825L298.423 86.1626L298.293 105.023C298.633 106.983 313.113 105.163 307.393 114.163L298.403 114.143L300.283 135.283L310.423 136.172V144.143H288.423V72.1426V72.1526Z" fill="#D4DEE8"/>
<path d="M280.423 144.153H270.423V67.1532L273.413 64.2031C274.783 65.5331 280.423 67.8832 280.423 69.1532V144.153Z" fill="#D4DEE8"/>
<path d="M192.113 10.4819L192.432 20.152C182.372 16.892 162.762 14.5019 166.462 0.171875L192.113 10.4819Z" fill="#D4DEE8"/>
</svg>
