<svg width="397" height="117" viewBox="0 0 397 117" fill="none" xmlns="http://www.w3.org/2000/svg">
<path d="M0.312744 116.142C1.70274 110.212 5.94279 105.602 6.11279 98.9523C6.35279 89.5423 5.00273 68.3323 0.302734 61.1323L4.35278 59.1723V55.1323L0.222656 53.1323C7.09266 38.3623 6.20274 14.9623 0.312744 0.152344C10.7927 4.88234 28.9428 -2.04766 36.3528 7.08234C41.0728 12.9023 42.0828 33.3923 40.1028 40.9123C38.9928 45.1223 34.2227 51.3823 34.4927 52.8523C34.8427 54.7923 38.8927 57.1023 40.0527 59.3923C44.6327 68.4423 44.9928 101.672 38.3428 109.182C29.3328 119.352 11.7727 110.032 0.312744 116.122V116.142ZM20.2927 52.1523C24.1327 52.7423 25.6527 50.5923 26.2827 47.1523C26.7327 44.7223 26.4526 15.1023 25.9426 13.4923C25.0926 10.8323 23.0427 9.64234 20.3027 10.1523V52.1523H20.2927ZM20.2927 62.1523V106.152C29.1427 106.892 30.8627 100.682 30.5127 93.0923C30.2727 87.9023 27.1227 84.6023 27.0427 83.1023C26.8627 79.5323 34.1127 71.1923 28.4827 63.3223L20.2827 62.1523H20.2927Z" fill="#D4DEE8"/>
<path d="M294.222 101.152C294.322 101.982 297.002 103.842 296.212 106.142H276.232C280.332 95.9423 282.192 80.0123 280.172 69.2123C279.342 64.7823 271.622 59.9023 280.192 60.1123C274.162 54.2423 280.012 53.0723 280.372 45.2923C280.962 32.5923 280.202 22.1523 276.232 10.1723C285.292 14.7123 287.102 12.0023 296.212 10.1723C290.532 24.6723 291.462 38.9823 294.322 54.0423C296.532 54.3023 299.032 54.5223 301.242 54.2523C302.922 54.0423 304.862 54.3023 306.342 53.2923C308.992 51.4823 310.742 14.9723 304.252 11.1623C304.212 7.77235 323.222 8.49234 326.192 9.15234C320.632 17.8423 320.942 36.8723 322.092 47.2823C322.482 50.8123 323.292 53.0223 326.212 55.1823L322.232 56.1723L322.192 59.1523L326.282 61.1723C318.742 74.7423 321.592 93.6523 326.202 108.152C317.102 106.322 315.292 103.612 306.222 108.152C305.002 105.312 308.212 102.212 308.212 101.162V65.1623C308.212 61.0723 294.212 61.0723 294.212 65.1623C294.212 76.2523 292.982 90.6423 294.212 101.162L294.222 101.152Z" fill="#D4DEE8"/>
<path d="M352.202 4.16211L350.222 52.1421C351.102 53.0721 362.673 46.9421 368.363 55.0021C373.283 61.9721 373.162 97.3421 368.672 105.612C360.912 119.892 343.422 106.292 332.222 110.132C340.992 94.1321 333.542 74.4921 336.232 57.3221L332.202 55.1521C331.902 53.3221 335.092 54.7721 335.722 53.7921C338.162 49.9821 336.123 13.4121 334.243 6.16211C341.733 8.36211 345.312 5.50211 352.222 4.16211H352.202ZM350.212 65.1521V101.152C350.212 103.312 353.883 104.922 356.303 101.252C360.553 94.8021 356.043 74.3721 357.883 65.4621L350.212 65.1521Z" fill="#D4DEE8"/>
<path d="M250.263 64.1625C251.833 77.6725 245.493 93.9525 256.243 104.142H230.263C235.833 93.2425 237.853 84.0625 235.803 71.6325C234.873 66.0325 229.753 61.2025 230.903 54.8625C231.803 49.9225 235.893 46.2825 236.123 41.0125C236.203 39.1125 234.333 20.4025 233.993 19.3725C232.783 15.6125 226.373 17.8225 228.263 12.1825C254.873 13.6525 271.803 3.98249 271.833 39.1725C271.843 53.3825 269.063 73.1425 250.263 64.1725V64.1625ZM250.243 20.1525V58.1525L256.413 56.9825C257.593 50.6625 259.223 25.1425 256.413 21.3225L250.243 20.1525Z" fill="#D4DEE8"/>
<path d="M68.283 100.152L80.313 99.1924L88.2629 88.1623L86.4028 107.282C73.8328 111.142 61.303 106.522 50.293 112.142C54.403 97.3423 53.7129 84.4223 52.1729 69.2323C50.2429 50.1723 54.8028 34.5023 52.3928 17.0323C51.6728 11.8423 48.573 10.6823 48.293 6.15234L86.3928 11.3723L86.2529 26.1323C83.1029 26.3523 83.8928 22.1023 81.3928 20.0323C78.2428 17.4423 66.283 13.9923 66.283 19.1423V49.1423C66.283 49.4323 68.6929 54.4023 69.2729 54.1323L76.2629 48.1423V70.1323C71.4129 69.5623 75.093 60.0923 68.283 62.1423V100.142V100.152Z" fill="#D4DEE8"/>
<path d="M184.253 12.1736C177.423 20.2136 180.103 30.7336 182.243 40.1436H170.273C171.883 36.1236 175.053 18.5136 167.293 20.1636C163.093 21.0536 163.473 44.6336 164.313 49.1036C165.293 54.3236 172.733 56.7536 164.263 59.1436C170.153 66.9836 164.283 82.3736 166.303 93.1236C167.293 98.3836 172.613 98.9736 172.253 104.154C167.443 106.674 160.893 100.854 159.243 100.834C157.263 100.804 152.763 107.304 147.313 106.174C141.763 102.004 149.473 100.604 150.383 93.2736C151.433 84.7536 149.433 74.2836 150.323 65.4536L146.253 63.1736L150.283 61.0036L150.263 20.1836C138.693 19.6536 147.073 39.3536 146.263 40.1636H134.293C137.943 29.1536 136.683 20.5336 132.293 10.1836L139.183 13.2736L184.263 12.1936L184.253 12.1736Z" fill="#D4DEE8"/>
<path d="M128.253 40.151H114.273L115.983 23.431L106.283 20.151L106.553 94.871C107.843 98.811 112.543 98.711 116.083 97.951C119.613 90.371 118.333 83.821 116.283 76.151C122.353 80.701 123.933 79.041 130.293 77.171C128.963 93.441 126.683 113.471 104.633 106.851C82.8233 100.301 99.0132 73.801 88.2832 61.131L92.2732 59.151L88.2832 55.131C87.5832 53.451 91.7432 54.961 92.3032 52.851C95.3932 41.061 85.0032 14.711 103.713 10.561C125.283 5.78097 130.553 21.911 128.253 40.141V40.151Z" fill="#D4DEE8"/>
<path d="M206.252 96.1519C210.032 96.4119 213.762 96.0519 217.042 93.9519C223.392 89.8819 219.182 81.6519 226.232 82.1719L225.373 102.292L186.262 104.152C186.662 98.7519 191.173 97.0019 192.133 91.0519C192.913 86.2219 192.622 78.3419 192.002 73.3619C190.982 65.1119 184.882 63.0919 186.392 53.4219C186.612 52.0319 189.532 52.3219 190.592 49.4319C194.402 39.0419 193.462 21.0419 186.242 12.1719L224.362 13.0219L226.222 30.1419C219.952 31.4319 222.572 24.2119 216.852 22.5319C213.532 21.5519 209.672 22.2819 206.232 22.1519V54.1519C212.552 55.6919 210.652 44.6719 216.242 49.1619L216.212 70.1519C210.122 67.5019 215.412 59.8819 206.232 62.1519V96.1519H206.252Z" fill="#D4DEE8"/>
<path d="M394.192 0.172108C392.372 14.3821 390.483 33.0621 392.083 47.2721C392.483 50.8021 393.272 53.0121 396.202 55.1721C385.822 58.8221 396.412 60.6221 396.202 61.1321C389.972 70.4021 391.272 91.5221 392.152 103.202C392.452 107.142 398.162 115.532 393.162 116.162C390.922 116.442 380.522 110.022 374.222 114.142C377.812 106.582 380.702 68.8221 377.672 64.5621C376.902 63.4821 372.132 65.2021 374.252 60.1721L378.202 60.1221C372.142 54.2521 378.003 53.0821 378.363 45.2921C379.003 31.7621 379.842 15.2721 374.192 3.17211L394.192 0.162109V0.172108Z" fill="#D4DEE8"/>
</svg>
