<svg width="358" height="189" viewBox="0 0 358 189" fill="none" xmlns="http://www.w3.org/2000/svg">
<path d="M71.2824 90.1523L71.1422 63.2523L77.4123 61.0623C75.8423 53.7723 79.6123 35.3623 76.2123 30.1323C75.3123 28.7423 71.7623 28.8023 71.2323 26.7623C69.5123 20.2023 72.5524 7.63234 71.2724 0.152344L149.272 2.15234L149.402 27.0623L143.132 29.2523V61.0623L149.402 63.2523L149.262 90.1523H71.2824ZM147.262 4.15234H73.2824L73.1422 25.0522L79.4123 27.2423V63.0522L73.1422 65.2423L73.2824 88.1423H106.272C112.082 82.6123 108.182 72.6723 109.412 65.2423L103.142 63.0522C105.832 52.4622 96.9823 27.2123 110.232 26.0623C111.842 25.9223 115.302 25.2822 115.302 27.3022C114.102 37.9322 116.762 51.0623 115.432 61.2823C114.952 64.9823 111.702 63.9023 111.322 65.5223C109.872 71.7123 112.252 81.3923 111.282 88.1423H144.272C150.082 82.6123 146.182 72.6723 147.412 65.2423L141.142 63.0522V27.2423L147.412 25.0522L147.272 4.15234H147.262ZM113.262 28.1523H107.262V62.1523H113.262V28.1523Z" fill="#D4DEE8"/>
<path d="M139.263 100.152L139.403 127.052L133.133 129.242V159.052L139.403 161.242L139.263 188.142H61.2827L61.1426 161.242L67.4126 159.052V129.242L61.1426 127.052L61.2827 100.152H139.263ZM137.263 102.152H63.2827C64.2027 108.132 61.7628 117.632 63.5828 122.912C64.6128 125.922 68.8926 124.582 69.4526 129.072C70.1026 134.332 70.2428 154.432 69.3328 159.222C68.3928 164.182 63.8027 163.342 63.2427 165.552C61.8927 170.872 64.2727 180.152 63.2927 186.152H99.2827C98.4027 179.932 100.583 171.242 99.2427 165.532C98.8627 163.912 95.6128 164.992 95.1328 161.292C93.7528 150.732 96.4727 137.122 95.2827 126.152L104.133 126.132C105.873 126.382 105.913 157.772 105.443 161.302C104.963 165.002 101.713 163.922 101.333 165.542C99.9928 171.252 102.163 179.942 101.293 186.162H137.283C136.303 180.162 138.683 170.882 137.333 165.562C136.773 163.352 132.183 164.192 131.243 159.232C130.333 154.452 130.473 134.342 131.123 129.082C131.673 124.592 135.953 125.932 136.993 122.922C138.813 117.642 136.373 108.142 137.293 102.162L137.263 102.152ZM103.273 128.152H97.2727V160.152H103.273V128.152Z" fill="#D4DEE8"/>
<path d="M59.2825 100.152V138.152H31.2925V160.162L58.4124 162.022L59.2825 188.152H14.2925C13.4425 188.152 2.76257 177.062 2.33257 176.112C0.682567 172.482 0.222576 121.062 1.34258 115.192C1.92258 112.152 13.2825 100.152 14.2925 100.152H59.2825ZM55.2825 102.152H16.2925C15.2825 102.152 3.92258 114.152 3.34258 117.192C2.25258 122.902 2.68257 170.472 4.33257 174.112C4.76257 175.062 15.4425 186.152 16.2925 186.152H55.2825V164.142L29.2925 164.152V126.152L31.2825 136.162H55.2825V102.152Z" fill="#D4DEE8"/>
<path d="M357.203 100.152V138.152H333.203C334.193 144.142 331.823 153.442 333.163 158.752C333.723 160.962 338.313 160.122 339.253 165.082C340.503 171.682 338.283 181.102 339.203 188.152H297.213C298.133 181.102 295.913 171.682 297.163 165.082C298.103 160.122 302.693 160.962 303.253 158.752C304.603 153.432 302.223 144.142 303.213 138.142H279.213V100.152H357.193H357.203ZM355.203 136.152V105.152L352.203 102.152H281.223V136.152H303.223L305.213 124.152V164.152L299.083 165.232L299.213 186.152H334.203C339.813 181.152 336.283 172.112 337.333 165.242L331.203 164.152V124.152L333.193 136.162H355.193L355.203 136.152Z" fill="#D4DEE8"/>
<path d="M262.232 100.152C263.252 100.442 276.313 113.862 276.823 115.562C277.963 119.392 278.022 142.762 277.182 147.112C275.632 155.202 258.672 168.422 249.222 164.142V188.152H209.242L209.103 161.252L215.373 159.062V129.252L209.103 127.062L209.242 100.162H262.232V100.152ZM260.232 102.152H211.242L211.103 125.052L217.373 127.242C215.843 136.892 218.992 150.182 217.282 159.212C216.342 164.172 211.752 163.332 211.192 165.542C209.842 170.862 212.222 180.142 211.242 186.142H247.232L247.282 165.432L243.242 162.162C258.852 165.082 268.112 157.942 275.182 145.102L274.812 117.552L260.222 102.142L260.232 102.152Z" fill="#D4DEE8"/>
<path d="M207.243 62.1523C207.553 62.0923 208.383 60.6423 209.243 60.1523C208.553 60.7823 207.963 61.5623 207.243 62.1523Z" fill="#D4DEE8"/>
<path d="M217.243 52.1523C218.133 47.6023 218.073 23.8223 217.193 19.1923C215.973 12.7723 207.713 11.0423 207.243 4.15234C209.943 6.06234 215.923 10.5622 217.353 13.0522C220.793 19.0822 220.273 45.6823 217.243 52.1523Z" fill="#D4DEE8"/>
<path d="M211.243 58.1523C211.863 57.6923 212.783 56.7723 213.243 56.1523C212.663 56.8623 211.913 57.5123 211.243 58.1523Z" fill="#D4DEE8"/>
<path d="M213.243 56.1523C213.833 55.4323 214.723 54.8623 215.243 54.1523C214.843 54.8523 213.783 55.4323 213.243 56.1523Z" fill="#D4DEE8"/>
<path d="M215.243 54.1523C215.733 53.2923 217.183 52.4623 217.243 52.1523C216.913 52.8523 215.763 53.4423 215.243 54.1523Z" fill="#D4DEE8"/>
<path d="M207.243 4.1532H155.243C156.133 10.3632 153.963 19.0732 155.293 24.7732C155.673 26.3932 158.923 25.3132 159.403 29.0132C160.213 35.2332 160.213 55.0532 159.403 61.2832C158.923 64.9832 155.673 63.9032 155.293 65.5232C153.843 71.7132 156.213 81.3932 155.253 88.1432H191.243C190.323 81.9432 192.553 73.0831 191.273 67.4331C190.803 65.3431 185.153 67.3632 187.253 62.1532C188.363 61.1932 203.323 62.9132 207.233 62.1432C202.123 66.3132 201.503 67.2632 193.223 66.1332V90.1432H154.243C148.123 83.5032 152.583 71.8332 151.103 63.2432L157.373 61.0531V29.2432L151.103 27.0531L152.163 2.0531L202.423 0.283203C206.423 0.393203 206.223 3.4432 207.223 4.1532H207.243Z" fill="#D4DEE8"/>
<path d="M209.243 60.1523C209.933 59.5223 210.563 58.8023 211.243 58.1523C210.523 58.6923 209.943 59.7523 209.243 60.1523Z" fill="#D4DEE8"/>
<path d="M156.663 100.562C160.523 99.4117 187.983 99.4117 191.833 100.562C194.113 101.242 204.153 111.282 204.833 113.562C206.203 118.152 206.293 167.372 205.193 173.112C204.533 176.542 195.013 186.802 191.833 187.752C187.973 188.902 160.513 188.902 156.663 187.752C154.383 187.072 144.343 177.032 143.663 174.752C142.293 170.162 142.203 120.942 143.303 115.202C143.963 111.772 153.483 101.512 156.663 100.562ZM158.663 102.562C155.483 103.512 145.963 113.762 145.303 117.202C144.243 122.742 144.333 168.262 145.663 172.752C146.343 175.032 156.373 185.072 158.663 185.752C162.453 186.882 186.043 186.882 189.833 185.752C193.013 184.802 202.533 174.552 203.193 171.112C204.253 165.572 204.163 120.052 202.833 115.562C202.153 113.282 192.123 103.242 189.833 102.562C186.043 101.432 162.453 101.432 158.663 102.562Z" fill="#D4DEE8"/>
<path d="M279.223 80.1523C279.773 79.4023 280.843 78.8123 281.223 78.1523C280.683 78.8923 279.813 79.4423 279.223 80.1523Z" fill="#D4DEE8"/>
<path d="M275.223 84.1523C275.913 83.6423 276.583 82.7923 277.223 82.1523C276.563 82.8123 275.943 83.5623 275.223 84.1523Z" fill="#D4DEE8"/>
<path d="M283.223 76.1523V14.1523C284.613 17.1123 284.993 16.7423 285.353 20.9523C286.393 33.2323 286.693 59.4223 285.353 71.3723C284.973 74.7423 283.913 74.7023 283.233 76.1523H283.223Z" fill="#D4DEE8"/>
<path d="M277.223 8.15234C276.473 7.59234 275.873 6.52234 275.223 6.15234C275.963 6.69234 276.513 7.56234 277.223 8.15234Z" fill="#D4DEE8"/>
<path d="M271.223 88.1523C271.533 88.0923 272.363 86.6423 273.223 86.1523C272.513 86.6723 271.923 87.8223 271.223 88.1523Z" fill="#D4DEE8"/>
<path d="M275.223 6.15234C274.363 5.66234 273.533 4.21234 273.223 4.15234C273.923 4.48234 274.513 5.63234 275.223 6.15234Z" fill="#D4DEE8"/>
<path d="M283.223 14.1523C282.563 13.5423 281.663 12.9323 281.223 12.1523C281.743 12.8623 282.893 13.4523 283.223 14.1523Z" fill="#D4DEE8"/>
<path d="M281.223 12.1523C280.853 11.5023 279.783 10.9023 279.223 10.1523C279.813 10.8623 280.673 11.4123 281.223 12.1523Z" fill="#D4DEE8"/>
<path d="M279.223 10.1523C278.763 9.53234 277.843 8.61234 277.223 8.15234C277.913 8.72234 278.653 9.46234 279.223 10.1523Z" fill="#D4DEE8"/>
<path d="M273.223 86.1523C273.883 85.7723 274.473 84.7023 275.223 84.1523C274.513 84.7423 273.963 85.6123 273.223 86.1523Z" fill="#D4DEE8"/>
<path d="M235.232 86.1523C234.492 85.6223 233.942 84.7323 233.232 84.1523C234.032 84.6323 234.692 85.9323 235.232 86.1523Z" fill="#D4DEE8"/>
<path d="M229.243 80.1523C228.663 79.4323 227.793 78.8923 227.243 78.1523C227.613 78.8123 228.683 79.4023 229.243 80.1523Z" fill="#D4DEE8"/>
<path d="M227.243 78.1523C226.723 77.4423 225.573 76.8523 225.243 76.1523C225.303 76.4623 226.753 77.2923 227.243 78.1523Z" fill="#D4DEE8"/>
<path d="M231.232 82.1523C230.562 81.5123 229.812 80.8723 229.232 80.1523C229.722 80.8023 230.592 81.6023 231.232 82.1523Z" fill="#D4DEE8"/>
<path d="M271.222 88.1523C265.132 91.0023 249.323 91.1323 242.103 90.2523C235.703 89.4723 237.322 87.6323 235.232 86.1523C241.382 88.6323 264.652 89.4423 271.222 88.1523Z" fill="#D4DEE8"/>
<path d="M277.223 82.1523C277.863 81.5123 278.713 80.8423 279.223 80.1523C278.633 80.8723 277.883 81.4923 277.223 82.1523Z" fill="#D4DEE8"/>
<path d="M273.223 4.1516C268.963 3.3116 242.372 3.45151 238.642 4.56151C236.832 5.10151 227.033 14.5215 226.273 16.1915C224.673 19.7115 224.153 70.6416 225.233 76.1516C224.553 74.7016 223.493 74.7416 223.113 71.3716C222.313 64.2416 222.373 18.3715 224.273 14.1915C225.423 11.6715 235.083 2.81152 238.283 2.20152C245.073 0.901525 267.443 1.45161 273.233 4.16161L273.223 4.1516Z" fill="#D4DEE8"/>
<path d="M233.232 84.1523C232.512 83.5623 231.902 82.8023 231.232 82.1523C231.942 82.7523 232.582 83.7623 233.232 84.1523Z" fill="#D4DEE8"/>
<path d="M281.223 78.1523C281.663 77.3723 282.563 76.7623 283.223 76.1523C282.893 76.8523 281.743 77.4423 281.223 78.1523Z" fill="#D4DEE8"/>
<path d="M143.263 8.15259C147.463 17.7526 137.603 22.0725 137.223 23.5525C136.193 27.5225 136.433 59.8125 137.103 65.2325C137.553 68.8625 147.343 72.3326 143.273 82.1526H115.283L115.523 68.2826L121.283 68.1526V22.1526H99.2927V68.1526L105.053 68.2826L105.293 82.1526H77.3027L77.5327 68.2726L83.4426 67.0525V23.2426L77.5327 22.0226L77.3027 8.14258H143.283L143.263 8.15259Z" fill="#D4DEE8"/>
<path d="M133.263 106.152L133.033 120.032L127.123 121.252V167.062L133.033 168.282L133.263 182.162H105.273L105.513 168.292L111.273 168.162V123.162L107.963 120.482C105.433 119.922 102.853 120.042 100.283 120.042C96.1832 120.042 91.8232 119.372 89.2832 123.162V165.162C89.2832 166.382 94.8032 167.412 95.3232 169.562C96.1832 173.122 94.7532 178.262 95.2832 182.162H67.2932L67.5232 168.282L73.4331 167.062V121.252L67.1631 119.082L70.2932 106.152H133.273H133.263Z" fill="#D4DEE8"/>
<path d="M51.2824 106.152V132.162L37.1523 131.292L35.2824 120.142L23.2824 123.162V168.162H51.2724V182.162H18.2824C17.5724 182.162 8.76246 173.102 8.32246 172.122C6.66246 168.472 6.27247 124.762 7.33247 119.202C7.92247 116.122 17.2924 106.162 18.2824 106.162H51.2724L51.2824 106.152Z" fill="#D4DEE8"/>
<path d="M349.203 106.153V132.163H335.193V120.143L325.493 123.432C323.843 134.802 325.973 145.933 326.803 157.153C326.983 159.523 324.713 162.572 325.373 164.932C326.093 167.512 330.693 167.273 331.263 169.533C332.143 173.003 330.673 178.283 331.223 182.153C317.653 180.673 298.893 188.973 303.463 168.273L309.353 167.043L309.203 120.133H301.233L299.343 131.273H287.083C284.153 129.233 283.453 109.263 288.213 106.143H349.193L349.203 106.153Z" fill="#D4DEE8"/>
<path d="M258.233 106.153C259.183 106.423 268.323 115.883 268.823 117.563C270.403 122.873 269.953 144.673 267.343 149.263C260.813 160.753 248.543 158.223 237.233 158.153L237.473 168.033L243.373 169.253L243.233 182.163H215.243L215.473 168.283L221.383 167.063V121.253L215.473 120.033L215.243 106.153C226.513 108.203 248.503 103.373 258.233 106.153ZM253.243 120.143H237.223V144.163H253.243V120.143Z" fill="#D4DEE8"/>
<path d="M202.243 8.15279C203.193 8.42279 212.333 17.8827 212.833 19.5627C214.393 24.8227 213.963 44.6628 211.353 49.2628C204.813 60.7528 192.553 58.2228 181.243 58.1528C178.373 69.8828 190.833 69.2028 187.253 82.1628H159.263L159.493 68.2828L165.403 67.0627V23.2528L159.493 22.0328L159.263 8.15279C170.533 10.2028 192.523 5.37279 202.253 8.15279H202.243ZM197.253 22.1428H181.233V44.1628H197.253V22.1428Z" fill="#D4DEE8"/>
<path d="M160.662 106.563C170.932 103.503 195.063 104.883 198.833 117.563C200.133 121.923 200.213 163.793 199.193 169.113C195.703 187.323 154.602 187.343 149.652 170.753C148.352 166.393 148.273 124.523 149.293 119.203C149.953 115.763 157.432 107.523 160.652 106.563H160.662ZM183.253 168.153V123.153C179.253 118.493 169.253 118.493 165.253 123.153V168.153H183.253Z" fill="#D4DEE8"/>
<path d="M240.643 8.56317C250.913 5.50317 275.043 6.88317 278.813 19.5632C280.113 23.9332 280.193 65.7632 279.173 71.1132C276.003 87.7132 234.363 86.6232 229.633 70.7532C228.353 66.4532 228.263 26.4332 229.273 21.2032C229.933 17.7632 237.413 9.52317 240.633 8.56317H240.643ZM263.233 22.1533H245.233V68.1533H263.233V22.1533Z" fill="#D4DEE8"/>
<path d="M249.223 126.143V138.163H241.243V126.143H249.223ZM247.223 136.143L246.243 128.163C243.163 130.323 242.763 132.453 243.243 136.143H247.223Z" fill="#D4DEE8"/>
<path d="M191.243 26.1426V40.1626H185.263V26.1426H191.243ZM189.233 38.1426V28.1626H187.273V38.1426H189.233Z" fill="#D4DEE8"/>
<path d="M177.253 126.152V164.152H171.253V126.152H177.253ZM175.253 160.152V128.152H173.253V160.152H175.253Z" fill="#D4DEE8"/>
<path d="M259.232 64.152H251.232V26.152C253.552 25.342 259.232 27.032 259.232 29.152V64.152ZM255.232 62.152V28.152H253.232V62.152H255.232Z" fill="#D4DEE8"/>
</svg>
