<svg width="700" height="400" viewBox="0 0 700 400" fill="none" xmlns="http://www.w3.org/2000/svg">
<path d="M298.01 153.608L296.01 71.6077H357.99V154.608C357.99 155.218 355.46 156.138 355.99 157.608H386.98L389.98 160.608V241.608L385.98 241.588C385.03 240.798 387.98 239.058 387.98 238.608V159.608H329.99V167.608H385.98V191.618H377.99L376.111 176.478L351.95 176.758L351.99 191.618C360.46 192.788 360.681 190.328 363.101 183.488L369.97 183.608C369.49 189.108 370.701 195.378 370.081 200.728C369.551 205.358 365.67 210.928 362 207.628C361.01 206.738 363.18 196.598 351.99 199.618L351.97 217.638L373.98 216.638C379.25 214.068 377.99 206.488 377.98 201.618H385.96V225.628H329.97L331.97 241.608L327.97 241.628V158.628C327.97 158.208 330.96 156.348 329.97 155.648H321.97C321.76 157.708 325.97 159.778 325.97 160.628V238.628L315.98 241.608V239.648L323.97 239.628V159.628H266.98L263.98 162.628V236.628C263.98 237.308 269.05 240.598 267.98 241.608C263.54 242.388 263.98 241.278 262.99 237.718C260.29 228.038 260.68 178.408 261.94 166.578C262.42 162.018 263.82 159.418 265.99 155.628H222V153.628H291.98V73.6277H233.99V71.6277H290.98L293.98 74.6277V152.628C293.98 153.478 289.77 155.548 289.98 157.608H299.98C300.78 157.098 298.11 154.698 297.98 153.628H355.97V73.6277H297.98L298 81.6277C298.7 82.6277 300.55 79.6277 300.98 79.6277H353.97V103.618L346.92 101.688C348.99 84.0577 333.921 85.7078 320.851 89.4978L319.97 103.638H329.99V95.6177H337.97L338.01 118.488L329.99 119.658V111.628H319.98L320.861 127.768L323.26 129.358L345.71 127.368L346.92 115.578L353.96 113.648V137.638H300.98C300.55 137.638 298.72 134.648 298 135.638C298.45 141.428 297.31 147.998 297.98 153.638L298.01 153.608ZM298.01 129.608L307.72 126.328L306.131 88.4878L298 87.6177V129.618L298.01 129.608ZM338 175.608H330V217.608H338V175.608Z" fill="#D4DEE8"/>
<path d="M290.01 79.6077L290.031 87.5977H282L282.91 127.758L290.15 130.818L290 151.598L283 149.618L279.22 137.398C264.58 136.118 226.591 127.188 232.021 151.618H224.041L224.281 130.858C225.781 126.558 232.131 129.018 235.851 124.428C241.471 117.488 251.891 80.5976 232.031 87.5876V79.6077H290.021H290.01ZM268.021 87.6077L250.9 89.4778C250.08 102.428 249.23 114.518 244 126.578L268.021 127.608V87.6077Z" fill="#D4DEE8"/>
<path d="M447.97 251.608L447.64 259.318C437.1 259.638 440.13 267.688 439.96 275.618C454.44 272.568 483.71 281.128 472.09 300.738C470.53 303.358 459.27 309.608 456.97 309.608H417.98L417.96 301.618H425.99L425.08 261.458L417.85 258.498L417.98 251.608H447.97ZM439.97 301.618C452.13 302.998 465.05 301.428 458.16 286.408L439.97 283.598V301.618Z" fill="#D4DEE8"/>
<path d="M258.02 251.608V275.618H250.03C252.7 263.848 244.11 253.418 234.31 262.898C234.54 273.398 232.65 285.958 234.56 296.158C235.65 301.958 236.64 302.358 242.74 301.598C251.14 315.418 202.51 310.988 212.01 301.618L221.76 298.338L221.74 262.898C211.94 253.418 203.35 263.848 206.02 275.618H198.04C199.04 267.898 195.18 257.408 201.03 251.608H258.02Z" fill="#D4DEE8"/>
<path d="M322.011 167.608V189.618H314.021L312.141 176.478L302.021 175.598V215.598H310.031L310.011 223.598H280.021L280.001 215.608H288.011V175.598C276.981 174.178 272.711 178.678 273.981 189.598H266.031V167.598H322.021L322.011 167.608Z" fill="#D4DEE8"/>
<path d="M340 245.607C314.71 245.327 289.3 245.987 264.02 245.607L266.92 243.558C276.25 243.618 285.58 243.678 294.91 243.518C301.7 243.398 302.1 243.238 309.08 243.508C316.13 243.778 336.3 241.877 340.01 245.617L340 245.607Z" fill="#D4DEE8"/>
<path d="M264.02 245.607V325.607C256.24 325.417 261.81 327.188 257.17 327.788C247.49 329.028 229.46 328.047 219.02 327.607C216.56 327.507 211.59 329.127 212.04 325.607H257.03L260.03 322.607V245.607H196.05V324.607L197.07 327.567C196.35 326.627 194.05 325.137 194.05 324.607V246.607C195.8 243.757 198.04 243.848 200.95 243.508C221.54 241.088 243.79 245.307 264.04 245.607H264.02Z" fill="#D4DEE8"/>
<path d="M340 245.608C345.32 250.968 340.11 315.658 342.01 327.618L264.02 325.608C289.29 326.228 314.73 325.148 340.01 325.618V245.608H340Z" fill="#D4DEE8"/>
<path d="M409.98 323.607C409.79 325.057 410.961 327.867 408.791 327.647C390.341 326.007 368.821 329.697 350.791 327.717C348.001 327.407 347.95 327.557 346 325.607C364.34 325.887 382.771 325.197 401.131 325.697C404.641 325.797 409.18 323.547 409.99 323.607H409.98Z" fill="#D4DEE8"/>
<path d="M457.97 239.608L459.97 237.608C459.62 238.218 458.58 239.268 457.97 239.608Z" fill="#D4DEE8"/>
<path d="M346 245.608C347.95 243.658 348.001 243.808 350.791 243.498C364.591 241.968 390.681 242.658 405.021 243.608C409.051 243.878 410.77 242.018 409.98 247.608L346 245.608Z" fill="#D4DEE8"/>
<path d="M459.971 159.609H393.991C395.921 157.659 395.991 157.789 398.781 157.499C412.351 156.109 439.331 156.379 453.151 157.499C456.401 157.759 457.311 156.959 459.971 159.619V159.609Z" fill="#D4DEE8"/>
<path d="M459.97 237.608V159.608C461.92 161.558 461.77 161.608 462.08 164.398C463.81 180.208 463.47 214.648 462.1 230.808C461.76 234.798 461.74 234.468 459.97 237.608Z" fill="#D4DEE8"/>
<path d="M393.99 159.608V239.618L457.97 239.608C452.91 242.428 449.92 241.908 443.98 241.628V243.608H505.95V324.608C505.95 324.828 503.03 328.598 502 326.628L503.95 309.608H473.96L473.83 302.718L481.06 299.758L481.72 262.848L474.29 259.328L473.96 251.618H503.95V245.618H413.97V325.618H467.96C468.41 329.138 463.44 327.518 460.98 327.618C447.5 328.178 432.38 328.108 418.86 327.728C414.22 327.598 411.27 323.728 409.97 323.628C411.69 310.238 409.78 295.788 409.87 282.708C409.92 275.968 408.62 251.368 409.97 247.628C410.2 246.998 416.16 244.368 415.97 241.648H391.97C393.87 229.678 388.66 164.988 393.98 159.628L393.99 159.608ZM503.96 259.608C501.64 258.798 495.96 260.488 495.96 262.608V301.608H503.96V259.608Z" fill="#D4DEE8"/>
<path d="M346 325.607C343.34 322.947 344.14 322.038 343.88 318.788C342.53 301.928 342.06 266.807 343.88 250.407C344.19 247.617 344.04 247.567 345.99 245.617V325.617L346 325.607Z" fill="#D4DEE8"/>
<path d="M220.031 74.6072L226.021 71.6272L222.031 73.6072V151.607H220.031V74.6072Z" fill="#D4DEE8"/>
<path d="M347.99 239.627H338.01V241.587H347.99V239.627Z" fill="#D4DEE8"/>
<path d="M425.98 167.608L426 175.598H417.97L418.01 191.608L435.98 176.598L431.98 174.328V167.618H455.99L455.83 175.458C449.7 173.808 433.78 185.288 434.26 190.258C434.55 193.278 450.72 219.898 457.63 217.908L457.97 225.608H427.98C424.98 218.828 432.32 217.668 432.06 214.798C431.62 209.958 426.65 202.928 422.95 199.618C416.03 198.208 418.08 213.708 417.96 217.618H425.99L425.97 225.608H395.98L395.85 218.718L403.08 215.758L403.74 178.848L396.31 175.328L395.98 167.618H425.97L425.98 167.608Z" fill="#D4DEE8"/>
<path d="M295.011 251.608L298.001 256.578C282.741 261.618 289.051 272.528 288.031 285.608L315.961 262.608L308.341 259.308L308.001 251.608H337.991L338.011 259.598L329.961 260.758L329.981 301.618H338.011L337.991 309.608H308.001L307.981 301.618H316.011L314.971 275.588L288.001 296.628L297.991 304.628L295.001 309.598H266.011L265.991 301.608L274.041 300.448L274.021 259.588H265.991L266.011 251.598H295.001L295.011 251.608Z" fill="#D4DEE8"/>
<path d="M386.99 251.609C402.34 253.769 416.05 269.029 398 278.599C415.28 284.429 406.64 309.609 392.99 309.609H348L347.98 301.619L356.03 300.459L356.01 259.599H347.98L348 251.609C360.2 252.829 375.2 249.949 386.99 251.609ZM369.99 275.619C380.09 275.899 395.38 278.099 391.05 263.599C378.67 254.319 366.11 258.329 369.99 275.619ZM369.99 283.609L371.87 300.739C381.22 302.859 395.45 303.969 394.1 290.679C392.65 281.349 376.77 283.769 369.99 283.609Z" fill="#D4DEE8"/>
</svg>
