<svg width="312" height="257" viewBox="0 0 312 257" fill="none" xmlns="http://www.w3.org/2000/svg">
<path d="M103.96 82L101.96 0H163.94V83C163.94 83.61 161.41 84.53 161.94 86H192.93L195.93 89V170L191.93 169.98C190.98 169.19 193.93 167.45 193.93 167V88H135.94V96H191.93V120.01H183.94L182.06 104.87L157.9 105.15L157.94 120.01C166.41 121.18 166.63 118.72 169.05 111.88L175.92 112C175.44 117.5 176.65 123.77 176.03 129.12C175.5 133.75 171.62 139.32 167.95 136.02C166.96 135.13 169.13 124.99 157.94 128.01L157.92 146.03L179.93 145.03C185.2 142.46 183.94 134.88 183.93 130.01H191.91V154.02H135.92L137.92 170L133.92 170.02V87.02C133.92 86.6 136.91 84.74 135.92 84.04H127.92C127.71 86.1 131.92 88.17 131.92 89.02V167.02L121.93 170V168.04L129.92 168.02V88.02H72.9302L69.9302 91.02V165.02C69.9302 165.7 75.0002 168.99 73.9302 170C69.4902 170.78 69.9302 169.67 68.9402 166.11C66.2402 156.43 66.6301 106.8 67.8901 94.97C68.3701 90.41 69.7702 87.81 71.9402 84.02H27.9502V82.02H97.9302V2.02002H39.9402V0.0200195H96.9302L99.9302 3.02002V81.02C99.9302 81.87 95.7202 83.94 95.9302 86H105.93C106.73 85.49 104.06 83.09 103.93 82.02H161.92V2.02002H103.93L103.95 10.02C104.65 11.02 106.5 8.02002 106.93 8.02002H159.92V32.01L152.87 30.0801C154.94 12.4501 139.87 14.1001 126.8 17.8901L125.92 32.03H135.94V24.01H143.92L143.96 46.8801L135.94 48.05V40.02H125.93L126.81 56.1602L129.21 57.75L151.66 55.76L152.87 43.97L159.91 42.04V66.03H106.93C106.5 66.03 104.67 63.04 103.95 64.03C104.4 69.82 103.26 76.39 103.93 82.03L103.96 82ZM103.96 58L113.67 54.72L112.08 16.8801L103.95 16.01V58.01L103.96 58ZM143.95 104H135.95V146H143.95V104Z" fill="#D4DEE8"/>
<path d="M95.9602 8L95.9802 15.99H87.9502L88.8601 56.1501L96.1001 59.21L95.9502 79.99L88.9502 78.01L85.1702 65.79C70.5302 64.51 32.5402 55.58 37.9702 80.01H29.9902L30.2302 59.25C31.7302 54.95 38.0803 57.4101 41.8003 52.8201C47.4203 45.8801 57.8402 8.98998 37.9802 15.98V8H95.9702H95.9602ZM73.9702 16L56.8501 17.8701C56.0301 30.8201 55.1802 42.91 49.9502 54.97L73.9702 56V16Z" fill="#D4DEE8"/>
<path d="M253.92 180L253.59 187.71C243.05 188.03 246.08 196.08 245.91 204.01C260.39 200.96 289.66 209.52 278.04 229.13C276.48 231.75 265.22 238 262.92 238H223.93L223.91 230.01H231.94L231.03 189.85L223.8 186.89L223.93 180H253.92ZM245.92 230.01C258.08 231.39 271 229.82 264.11 214.8L245.92 211.99V230.01Z" fill="#D4DEE8"/>
<path d="M63.9696 180V204.01H55.9796C58.6496 192.24 50.0596 181.81 40.2596 191.29C40.4896 201.79 38.5996 214.35 40.5096 224.55C41.5996 230.35 42.5896 230.75 48.6896 229.99C57.0896 243.81 8.4596 239.38 17.9596 230.01L27.7096 226.73L27.6896 191.29C17.8896 181.81 9.29961 192.24 11.9696 204.01H3.98963C4.98963 196.29 1.12962 185.8 6.97962 180H63.9696Z" fill="#D4DEE8"/>
<path d="M127.96 96.0002V118.01H119.97L118.09 104.87L107.97 103.99V143.99H115.98L115.96 151.99H85.9705L85.9504 144H93.9604V103.99C82.9304 102.57 78.6604 107.07 79.9304 117.99H71.9805V95.9902H127.97L127.96 96.0002Z" fill="#D4DEE8"/>
<path d="M145.95 174C120.66 173.72 95.2497 174.38 69.9697 174L72.8696 171.95C82.1996 172.01 91.5296 172.07 100.86 171.91C107.65 171.79 108.05 171.63 115.03 171.9C122.08 172.17 142.25 170.27 145.96 174.01L145.95 174Z" fill="#D4DEE8"/>
<path d="M69.97 174V254C62.19 253.81 67.7599 255.58 63.1199 256.18C53.4399 257.42 35.41 256.44 24.97 256C22.51 255.9 17.54 257.52 17.99 254H62.98L65.98 251V174H2V253L3.02002 255.96C2.30002 255.02 0 253.53 0 253V175C1.75 172.15 3.9899 172.24 6.8999 171.9C27.4899 169.48 49.74 173.7 69.99 174H69.97Z" fill="#D4DEE8"/>
<path d="M145.95 174C151.27 179.36 146.06 244.05 147.96 256.01L69.9697 254C95.2397 254.62 120.68 253.54 145.96 254.01V174H145.95Z" fill="#D4DEE8"/>
<path d="M215.93 251.999C215.74 253.449 216.91 256.259 214.74 256.039C196.29 254.399 174.77 258.089 156.74 256.109C153.95 255.799 153.9 255.949 151.95 253.999C170.29 254.279 188.72 253.589 207.08 254.089C210.59 254.189 215.13 251.939 215.94 251.999H215.93Z" fill="#D4DEE8"/>
<path d="M263.92 168L265.92 166C265.57 166.61 264.53 167.66 263.92 168Z" fill="#D4DEE8"/>
<path d="M151.95 174C153.9 172.05 153.95 172.2 156.74 171.89C170.54 170.36 196.63 171.05 210.97 172C215 172.27 216.72 170.41 215.93 176L151.95 174Z" fill="#D4DEE8"/>
<path d="M265.92 88.0011H199.94C201.87 86.0511 201.94 86.1812 204.73 85.8912C218.3 84.5012 245.28 84.7712 259.1 85.8912C262.35 86.1512 263.26 85.3511 265.92 88.0111V88.0011Z" fill="#D4DEE8"/>
<path d="M265.92 166V88C267.87 89.95 267.72 90 268.03 92.79C269.76 108.6 269.42 143.04 268.05 159.2C267.71 163.19 267.69 162.86 265.92 166Z" fill="#D4DEE8"/>
<path d="M199.94 88V168.01L263.92 168C258.86 170.82 255.87 170.3 249.93 170.02V172H311.9V253C311.9 253.22 308.98 256.99 307.95 255.02L309.9 238H279.91L279.78 231.11L287.01 228.15L287.67 191.24L280.24 187.72L279.91 180.01H309.9V174.01H219.92V254.01H273.91C274.36 257.53 269.39 255.91 266.93 256.01C253.45 256.57 238.33 256.5 224.81 256.12C220.17 255.99 217.22 252.12 215.92 252.02C217.64 238.63 215.73 224.18 215.82 211.1C215.87 204.36 214.57 179.76 215.92 176.02C216.15 175.39 222.11 172.76 221.92 170.04H197.92C199.82 158.07 194.61 93.38 199.93 88.02L199.94 88ZM309.91 188C307.59 187.19 301.91 188.88 301.91 191V230H309.91V188Z" fill="#D4DEE8"/>
<path d="M151.95 254C149.29 251.34 150.09 250.43 149.83 247.18C148.48 230.32 148.01 195.2 149.83 178.8C150.14 176.01 149.99 175.96 151.94 174.01V254.01L151.95 254Z" fill="#D4DEE8"/>
<path d="M25.9805 2.99951L31.9705 0.0195312L27.9805 1.99951V79.9995H25.9805V2.99951Z" fill="#D4DEE8"/>
<path d="M153.94 168.02H143.96V169.979H153.94V168.02Z" fill="#D4DEE8"/>
<path d="M231.93 96L231.95 103.99H223.92L223.96 120L241.93 104.99L237.93 102.72V96.01H261.94L261.78 103.85C255.65 102.2 239.73 113.68 240.21 118.65C240.5 121.67 256.67 148.29 263.58 146.3L263.92 154H233.93C230.93 147.22 238.27 146.06 238.01 143.19C237.57 138.35 232.6 131.32 228.9 128.01C221.98 126.6 224.03 142.1 223.91 146.01H231.94L231.92 154H201.93L201.8 147.11L209.03 144.15L209.69 107.24L202.26 103.72L201.93 96.01H231.92L231.93 96Z" fill="#D4DEE8"/>
<path d="M100.96 180L103.95 184.97C88.6904 190.01 95.0005 200.92 93.9805 214L121.91 191L114.291 187.7L113.95 180H143.94L143.96 187.99L135.91 189.15L135.93 230.01H143.96L143.94 238H113.95L113.93 230.01H121.96L120.92 203.98L93.9504 225.02L103.94 233.02L100.95 237.99H71.9604L71.9404 230L79.9905 228.84L79.9705 187.98H71.9404L71.9604 179.99H100.95L100.96 180Z" fill="#D4DEE8"/>
<path d="M192.94 180.001C208.29 182.161 222 197.421 203.95 206.991C221.23 212.821 212.59 238.001 198.94 238.001H153.95L153.93 230.011L161.98 228.851L161.96 187.991H153.93L153.95 180.001C166.15 181.221 181.15 178.341 192.94 180.001ZM175.94 204.011C186.04 204.291 201.33 206.491 197 191.991C184.62 182.711 172.06 186.721 175.94 204.011ZM175.94 212.001L177.82 229.131C187.17 231.251 201.4 232.361 200.05 219.071C198.6 209.741 182.72 212.161 175.94 212.001Z" fill="#D4DEE8"/>
</svg>
