<svg width="370" height="113" viewBox="0 0 370 113" fill="none" xmlns="http://www.w3.org/2000/svg">
<path d="M267.94 58.2773V0.277344H300.93C301.28 0.277344 304.46 3.35737 304.9 4.30737C306.61 7.95737 306.77 51.9675 305.06 54.4075L267.94 58.2773ZM289.94 14.2773H283.94V48.2773L286.91 48.2573L289.94 45.2773V14.2773Z" fill="#D4DEE8"/>
<path d="M101.99 0.277344V42.2773C105.08 42.7473 104.36 38.5573 104.95 36.2573C107.97 24.5173 109.34 12.2475 112.19 0.477539L125.99 0.277344V52.2773L88 54.2773V0.277344H102H101.99Z" fill="#D4DEE8"/>
<path d="M351.92 60.2773V109.277L348.92 112.277H313.93V62.2773L351.92 60.2773ZM335.93 98.2773V67.2773L332.93 64.3174L329.93 67.2773V98.2773H335.93Z" fill="#D4DEE8"/>
<path d="M89.99 63.2773L93.14 60.4973C98.39 63.9673 103.42 60.1673 106.84 60.2373C108.07 60.2673 107.78 63.8773 109.32 64.2573C115.64 65.8073 125.09 61.2173 129.98 67.2773V112.277H113.98V72.2773L105.07 110.357L89.99 112.277V63.2773Z" fill="#D4DEE8"/>
<path d="M173.97 0.277344V47.2773L170.66 49.9675L157.97 50.2773V14.2773H149.98V52.2773H135.98V0.277344H173.97Z" fill="#D4DEE8"/>
<path d="M79.99 52.2773C69.41 44.5673 54.36 51.8573 44 43.2773V0.277344H76.99L79.99 3.27734V52.2773ZM58 14.2773V44.2773H65.99C65.01 38.3873 68.2 18.1375 64.11 15.1675L58 14.2773Z" fill="#D4DEE8"/>
<path d="M181.97 0.27815C187.79 1.20815 201.37 -1.96187 204.98 2.25813C208.86 6.79813 210.86 36.6982 210.96 44.2982C219.26 35.2682 212.38 32.3182 211.75 25.2982C211.18 18.9182 214.73 8.90817 213.8 1.54817L219.95 0.27815V52.2781L203.95 50.2781V14.2782H197.95V48.2781H181.95V0.27815H181.97Z" fill="#D4DEE8"/>
<path d="M261.95 0.277344L261.96 14.2874L243.94 14.2673V32.2874L255.96 32.2673V48.2874L244.03 48.3674L241.05 57.7773L227.96 53.2773V0.277344H261.95Z" fill="#D4DEE8"/>
<path d="M325.93 0.278009V42.278L347.04 44.1481C351.36 55.9181 344.47 55.5481 335 56.3581C302.55 59.1481 311.86 55.4581 312.02 33.3781C312.09 22.8681 309.9 13.788 310.21 3.54803C312 -1.80197 321.5 0.707999 325.93 0.268V0.278009Z" fill="#D4DEE8"/>
<path d="M46 60.2773H84C85.58 75.2073 72.92 72.3973 62 72.2773V112.277H46V60.2773Z" fill="#D4DEE8"/>
<path d="M40 0.277344L40.01 14.2874L28.01 14.2773V44.2773L12.01 42.2773V14.2773L0 14.2874L0.00999999 0.277344H40Z" fill="#D4DEE8"/>
<path d="M231.95 62.2773L245.67 64.5674L246.82 96.4075L267.95 98.2673L267.94 112.277H231.95V62.2773Z" fill="#D4DEE8"/>
<path d="M271.94 62.2773H309.92C309.06 75.6773 297.74 72.1073 287.94 72.2773V112.277H271.94V62.2773Z" fill="#D4DEE8"/>
<path d="M367.92 0.277344H351.92V56.2773H367.92V0.277344Z" fill="#D4DEE8"/>
<path d="M201.96 62.2773V105.277C201.96 114.047 186.04 112.597 179.96 112.287L180.21 98.4075L185.97 98.2773V62.2773H201.97H201.96Z" fill="#D4DEE8"/>
<path d="M32.01 60.2773V112.277H16.01V58.2773L32.01 60.2773Z" fill="#D4DEE8"/>
<path d="M223.96 62.2773H207.96V112.277H223.96V62.2773Z" fill="#D4DEE8"/>
<path d="M153.97 64.2773V107.277C153.97 112.687 138.24 113.007 133.97 112.287C134.33 108.707 133.35 104.557 133.82 101.147C134.35 97.2975 137.65 99.2375 138.13 95.4175C138.78 90.2475 136.71 68.2373 138.19 66.4973L153.97 64.2874V64.2773Z" fill="#D4DEE8"/>
<path d="M369.92 62.2773V112.277H355.92V60.2773L369.92 62.2773Z" fill="#D4DEE8"/>
<path d="M175.97 62.2773H161.97V112.277H175.97V62.2773Z" fill="#D4DEE8"/>
</svg>
