<svg width="281" height="222" viewBox="0 0 281 222" fill="none" xmlns="http://www.w3.org/2000/svg">
<path d="M85.0759 81.6865L92.1012 64.0395C94.4133 52.7555 97.1404 38.0232 100.747 27.2432C102.407 22.283 110.914 0.762489 115.677 0.713085C125.716 13.1333 112.683 30.6817 108.869 43.2699C105.055 55.8581 103.089 67.8929 98.8992 79.7202L130.498 29.328L155.19 0.713085C156.929 2.26438 158.204 2.94608 158.174 5.57438C158.125 10.2085 120.528 60.1859 114.995 69.1577C112.525 73.1594 111.665 78.6137 109.175 83.0996C106.685 87.5855 101.231 90.8561 99.7687 95.4111C96.261 106.27 103.672 117.949 102.842 129.124C105.806 129.559 107.496 128.937 109.897 127.277C120.321 120.054 126.18 88.9786 131.486 75.7679C137.899 59.8301 146.92 44.7618 152.256 28.3399C155.595 27.6976 156.346 29.1007 157.68 31.7784C164.755 46.0463 155.457 82.7339 156.178 100.48C156.307 103.523 154.331 108.305 159.113 107.367C169.498 88.5636 173.164 57.607 184.951 40.3254C186.236 38.4481 199.97 23.3996 201.057 22.7672C206.59 19.5757 213.428 23.2611 219.386 20.4352C218.734 40.77 209.347 58.7333 203.567 77.7342C198.439 78.5444 199.496 76.8056 199.565 72.7445C199.773 59.9686 204.98 48.576 207.243 36.877C208.33 31.2647 202.065 34.8711 199.615 37.1931C179.102 56.7176 178.835 92.0416 173.45 117.732C169.527 136.466 164.251 150.2 166.375 171.325C166.682 174.428 168.065 177.343 168.045 180.485C171.01 183.212 178.045 170.91 178.924 168.668C183.41 157.196 186.276 123.897 190.732 117.238C191.265 116.437 193.202 114.649 193.696 115.281C190.761 121.862 197.826 123.127 197.826 126.012C197.856 135.221 186.72 173.025 181.562 181.187C172.581 195.405 158.263 195.751 156.08 177.61C155.329 171.395 153.817 151.593 154.054 145.922C154.311 139.618 162.571 132.84 154.222 129.105L151.772 157.305L140.399 198.251C131.298 178.874 136.486 156.821 140.547 136.189C140.942 134.164 147.345 125.429 141.377 125.192C140.27 125.152 122.277 134.174 121.665 135.083C120.183 137.296 118.987 144.489 117.278 148.392C111.952 160.536 110.776 174.616 106.675 188.903C106.211 190.514 103.435 190.346 103.02 191.907C99.9466 203.33 104.304 215.335 89.0184 218.012C88.2279 217.252 87.5462 200.454 87.9414 198.162C89.1271 191.186 93.445 187.698 94.522 183.044C95.9844 176.75 90.54 128.66 88.5441 120.667C87.8129 117.752 86.4198 115.222 84.0484 113.325L78.9696 138.867L75.1951 136.99L63.2986 194.318C51.0068 191.285 59.8403 181.108 61.2434 173.47C62.9429 164.231 61.3817 155.832 67.1719 146.297C68.3674 144.331 72.3889 144.094 73.0312 141.722C73.8315 138.719 69.8594 132.029 72.2308 127.168L33.6561 190.366L28.6662 188.439C25.3759 183.439 32.5494 170.397 35.3259 165.338C43.201 150.971 71.7071 117.564 73.9896 105.025C75.8176 94.9961 71.638 51.9254 69.2172 41.185C68.5848 38.3689 69.3259 35.0588 65.3143 34.2486L37.3317 121.882C33.8537 128.107 37.2527 138.65 35.8002 143.718C35.1777 145.872 30.5436 144.46 28.7255 146.821C27.026 149.044 16.1867 190.84 14.428 197.786C11.9874 207.479 16.0484 222.706 0.100737 221.975C0.150141 215.018 -0.689747 207.726 1.75082 200.978C8.04491 183.568 13.5881 171.088 18.3902 152.334C19.7439 147.048 27.0359 139.341 27.2829 133.689C27.4707 129.421 21.1074 115.449 19.7537 110.203L23.8049 106.379C20.89 103.414 18.1135 99.4918 16.8587 95.5296C13.0743 83.6133 6.1577 51.1745 5.85139 39.1791C5.72294 34.2585 6.91848 21.1268 12.5407 28.8042C25.949 47.1134 30.9388 80.2735 31.6996 102.446C31.7787 104.827 30.2373 109.788 33.6659 109.323L37.6182 103.414C37.3515 97.8515 38.468 92.4072 40.1576 87.1506C49.2974 58.6148 54.9295 40.8886 68.9306 15.0799C71.47 10.3963 67.5473 4.13183 74.1872 0.683414C80.5703 0.594486 79.7897 24.526 80.4517 29.9506C81.4991 38.5667 82.1413 44.3764 82.8922 53.0024C83.7222 62.4682 86.479 71.6969 85.066 81.6568L85.0759 81.6865ZM126.566 119.244L146.051 110.094L150.24 61.9347C147.256 62.4485 146.406 65.5314 145.349 67.8929C140.498 78.7618 138.917 89.6209 135.982 100.016C133.877 107.456 129.115 112.436 126.575 119.244H126.566ZM156.159 125.162V121.23H154.222V125.162H156.159ZM108.76 150.842L107.782 139.015C103.573 140.863 103.138 154.696 108.76 150.842Z" fill="#D4DEE8"/>
<path d="M247.062 111.339C242.843 125.735 229.88 163.629 213.547 167.838C210.632 168.589 206.185 166.128 205.622 166.662C205.059 167.195 203.063 178.855 198.656 180.465C188.153 171.049 197.233 162.887 199.15 153.333C203.577 131.219 203.834 107.92 211.462 86.6172L203.646 84.6608C205.355 81.0049 212.183 78.8906 213.418 76.1931C217.114 68.1007 217.874 54.475 220.295 46.2047C222.113 39.9995 233.022 3.28244 235.156 1.59281C245.343 -6.46007 237.735 18.5779 237.715 19.8328C237.656 23.0935 240.541 25.2476 240.255 28.5379C239.573 36.3833 220.888 70.1558 225.364 75.7681C241.391 69.2665 245.689 98.0889 247.082 109.363V111.339H247.062ZM221.382 83.6629C217.726 107.031 211.067 130.093 207.035 153.382C206.61 155.842 204.407 155.892 208.517 158.728C221.017 153.777 229.969 132.425 232.478 119.896C234.781 108.395 237.142 83.9593 221.382 83.6629Z" fill="#D4DEE8"/>
<path d="M247.062 111.339C246.993 110.687 247.141 110.015 247.062 109.362C258.079 80.9847 256.726 37.8549 270.144 11.0679C271.666 8.02463 275.835 6.40417 278.651 4.6355C283.345 13.884 277.11 19.4668 275.618 28.2311C269.749 62.5769 257.941 93.3852 251.38 126.703C247.942 144.153 248.406 167.363 242.991 185.317C241.648 189.783 238.772 196.284 236.174 200.256C228.714 202.015 233.022 180.376 233.703 176.028C236.589 157.502 248.772 127.355 247.072 111.339H247.062Z" fill="#D4DEE8"/>
</svg>
