<svg width="293" height="167" viewBox="0 0 293 167" fill="none" xmlns="http://www.w3.org/2000/svg">
<path d="M108.073 106.152H116.073V134.152H100.063L100.073 122.152H62.0828V134.162L46.0828 134.152V106.152L53.9828 106.062L64.0828 40.1523H105.073L108.073 43.1523V106.152ZM92.0728 106.152V59.1523C89.8028 55.1023 79.2428 54.7023 76.9628 58.0323C76.0028 72.3623 70.1728 89.1124 70.0028 103.122C69.9528 107.362 69.9328 105.692 73.0128 106.152C78.7728 107.022 86.0628 105.512 92.0728 106.142V106.152Z" fill="#D4DEE8"/>
<path d="M145.623 38.623C159.963 36.873 175.513 43.703 177.923 59.283C179.353 68.563 179.003 96.813 176.683 105.783C169.833 132.293 126.153 130.443 122.243 102.973C120.993 94.153 120.903 64.223 123.003 56.103C125.503 46.443 136.103 39.793 145.623 38.623ZM145.493 54.563C143.743 55.083 140.863 57.483 139.943 59.033C136.643 64.563 136.213 103.743 142.033 107.173C149.683 110.333 160.353 108.013 162.003 99.113C163.043 93.493 162.893 71.123 161.943 65.283C160.503 56.443 154.353 51.943 145.493 54.573V54.563Z" fill="#D4DEE8"/>
<path d="M206.043 40.1522V72.1522L217.013 72.2322C226.443 58.6322 225.053 32.8122 248.053 41.1722L230.053 79.3022L248.023 122.142C243.393 121.602 235.943 123.572 232.003 121.172C228.513 119.052 218.753 93.8222 215.803 88.4122L206.033 91.1422V122.142H190.033V43.1422L193.343 40.4522L206.033 40.1422L206.043 40.1522Z" fill="#D4DEE8"/>
<path d="M292.023 0.152344V54.1523H278.023V14.1523H238.033V0.152344H292.023Z" fill="#D4DEE8"/>
<path d="M54.0828 0.152344V14.1523H14.0928V54.1523H0.0927734V0.152344H54.0828Z" fill="#D4DEE8"/>
<path d="M14.0928 112.152V154.152H54.0828V166.152H0.0927734V112.152H14.0928Z" fill="#D4DEE8"/>
<path d="M292.023 112.152V166.152H238.033V154.152H278.023V112.152H292.023Z" fill="#D4DEE8"/>
</svg>
