<svg width="418" height="72" viewBox="0 0 418 72" fill="none" xmlns="http://www.w3.org/2000/svg">
<path d="M353.823 1.15234V11.1624L337.803 12.1724L359.813 61.1423C342.153 64.2923 339.413 35.3424 331.803 23.1624C324.683 26.1924 324.083 54.8624 321.623 56.9424C298.553 62.9824 306.463 37.1224 298.843 23.1724C289.073 34.4224 288.023 64.2823 269.853 61.1523L289.853 16.0624L286.563 11.3024L275.823 12.2723L274.713 3.01239L305.653 1.36237L315.833 39.1523L324.853 1.16235H353.843L353.823 1.15234Z" fill="#D4DEE8"/>
<path d="M61.8931 1.15234V11.1624C55.8731 11.7524 48.2031 8.88233 43.9431 14.1423C49.9431 20.3823 55.853 42.7124 60.873 47.1724C64.153 50.0924 70.1531 48.2023 71.6331 52.4023C72.4231 63.9623 74.8631 73.5624 59.8931 71.1624V59.1523H11.9031V71.1624L1.78308 70.2723L0.163086 52.3923L1.86304 50.1024C17.443 48.4724 18.6931 24.9924 27.8531 14.1324C26.3031 12.3024 25.7531 11.3623 23.1331 11.2823C14.7631 11.0223 8.73308 18.8323 9.90308 1.15234H61.8931ZM49.8931 49.1523L37.873 19.1523C29.393 26.4523 27.2231 39.5723 21.9031 49.1523H49.8931Z" fill="#D4DEE8"/>
<path d="M195.863 1.15234V40.1523L192.863 43.1523H155.873L154.973 59.2424C152.283 63.1524 143.873 60.7423 143.873 58.1523V4.15234L146.873 1.15234H195.863ZM155.873 31.1523H183.863V11.1423L157.743 12.0223L155.873 31.1523Z" fill="#D4DEE8"/>
<path d="M95.3032 1.58254C132.243 -6.74746 150.763 36.6625 121.743 56.0225C91.4632 76.2125 57.7632 34.9826 82.8832 9.15255C84.8332 7.14255 92.6332 2.18254 95.3032 1.58254ZM99.3132 11.5726C78.3032 16.3026 82.4332 52.9626 106.403 50.7426C134.793 48.1126 128.383 5.0226 99.3132 11.5726Z" fill="#D4DEE8"/>
<path d="M367.813 1.15234H377.823L377.813 21.1523H417.803V61.1523H367.813V1.15234ZM407.803 49.1523L405.933 32.0223L377.803 31.1423V49.1523H407.803Z" fill="#D4DEE8"/>
<path d="M255.843 1.15234V11.1624L237.823 12.1724L263.813 58.1924C265.403 63.3624 253.813 61.8524 250.813 59.1824C246.763 55.5724 235.393 27.9624 231.823 21.1624C228.753 18.8524 213.203 57.1324 210.883 59.1824C207.543 62.1324 203.773 61.1923 199.873 61.1423C196.703 58.0923 221.833 20.8324 223.813 14.1024C225.873 7.10236 211.923 15.2824 207.763 12.2924C203.903 9.52236 206.223 1.16235 208.853 1.16235H255.843V1.15234Z" fill="#D4DEE8"/>
<path d="M417.813 1.14292V15.1629L404.673 13.2929C400.783 1.31294 407.233 0.0329194 417.813 1.14292Z" fill="#D4DEE8"/>
<path d="M227.123 41.3929C238.413 37.6329 241.123 50.6629 235.983 54.2829C225.523 61.6429 218.633 44.2229 227.123 41.3929Z" fill="#D4DEE8"/>
<path d="M111.893 25.1426H97.873V37.1626H111.893V25.1426Z" fill="#D4DEE8"/>
</svg>
