<svg width="304" height="197" viewBox="0 0 304 197" fill="none" xmlns="http://www.w3.org/2000/svg">
<path d="M39.9501 4.12387L67.9501 7.09384L71.9401 18.1139C77.5801 18.2039 77.4501 12.154 82.6901 9.99398C112.96 -2.48602 119.66 51.7639 121.66 71.3739C124.52 99.4039 122.74 122.184 87.9401 106.114C88.3401 119.354 68.5201 115.114 58.9501 118.144L56.9401 106.134C48.2701 116.534 32.56 129.194 19.88 117.184L0 7.18392C2.78 -7.17608 34.77 2.92383 40.96 12.0838L39.9501 4.13388V4.12387ZM49.92 34.1038C44.28 33.2638 39.59 36.9038 40.03 42.8138C47.51 56.0438 38.8401 91.5339 57.9301 90.1139L49.92 34.1038ZM87.9401 88.1038C104.03 88.0038 91.9701 41.604 87.0601 37.974C84.6301 36.174 82.9701 35.6639 79.9401 36.1139L87.9401 88.1038Z" fill="#D4DEE8"/>
<path d="M161.62 16.3942C170.48 43.9542 177.45 72.8143 175.8 102.004L157.91 104.114V82.0942H149.92V106.114L129.93 108.114C130.12 93.1842 129.67 77.9542 127.89 63.1442C126.56 52.0842 118.53 26.1443 120.76 17.9643C123.76 6.93429 152.17 17.4642 161.63 16.4042L161.62 16.3942ZM149.89 34.1042L143.87 35.0742C141.28 36.7742 145.63 57.6942 147.43 61.5942C149.95 67.0542 155.5 64.8442 155.12 58.0842C154.98 55.6242 150.84 34.8842 149.9 34.1042H149.89Z" fill="#D4DEE8"/>
<path d="M201.89 52.0933L193.91 20.1233L211.49 22.5435C217.08 45.6335 220.74 69.0333 221.67 92.8433L205.91 98.1033C205.76 92.5333 206.3 86.9233 205.66 81.3433C205.41 79.1733 204.72 70.4933 200.93 72.1233C195.35 74.5233 202.95 92.4432 199.62 97.8132L181.9 100.113C183.81 71.9133 175.66 45.1733 169.91 18.1133L186 19.0234L194.91 50.1033L201.9 52.0933H201.89Z" fill="#D4DEE8"/>
<path d="M203.9 102.104C204.02 111.544 206.45 116.803 195.76 119.313L190.92 160.134L177.91 164.104C176.02 162.064 182.17 129.654 181.97 123.144C181.77 116.674 169.83 122.514 168.84 124.044C166.61 127.504 161.82 156.644 173.89 148.094L172.08 164.833L151.84 169.264C146.2 165.144 154.85 118.624 155.73 109.394L203.89 102.104H203.9Z" fill="#D4DEE8"/>
<path d="M149.92 110.113C146.64 123.363 148.85 161.043 141.79 170.993C138.6 175.483 132.57 173.413 127.94 176.113L129.91 162.123H123.97C123.32 175.233 119.88 180.733 105.93 180.103L116.15 119.343C121.36 110.033 140.26 110.613 149.92 110.113ZM133.91 128.113C129.4 127.343 129.96 128.473 128.94 132.023C127.92 135.573 124.98 145.143 128.92 148.063C136.08 143.313 133.76 135.533 133.91 128.113Z" fill="#D4DEE8"/>
<path d="M239.88 96.1133L237.02 150.233L223.91 154.103V130.123C218.71 143.203 220.7 160.493 201.91 158.093L206.77 101.973L221.88 100.113C221.3 105.203 220.04 109.783 219.79 115.013C219.69 117.193 218.47 124.473 221.86 124.093L227.66 99.3132L239.86 96.1133H239.88Z" fill="#D4DEE8"/>
<path d="M237.869 26.1038L239.729 33.2239L254.099 35.3438C259.769 50.8438 264.449 67.4737 263.859 84.0837C257.369 84.7637 245.769 83.0338 247.869 92.1138L222.399 60.7739L233.769 27.2739L237.859 26.0938L237.869 26.1038Z" fill="#D4DEE8"/>
<path d="M51.9601 192.103L53.9402 184.123C50.8402 181.493 41.7002 190.093 42.0302 183.223C42.2502 178.633 44.9702 172.063 45.6802 166.833C46.6402 159.713 46.7002 139.643 48.2002 135.353C49.5902 131.353 60.3602 132.543 58.9402 122.123L81.9202 153.113C73.8302 167.193 64.6001 181.633 51.9701 192.113L51.9601 192.103Z" fill="#D4DEE8"/>
<path d="M111.91 114.114C111.4 118.564 113.02 124.754 111.62 128.804C110.56 131.874 105.93 131.894 104.34 135.524C100.39 144.574 100.58 179.594 92.5297 183.714C90.6997 184.654 78.9397 186.833 77.9297 186.083L87.9596 137.134L79.9097 136.114L80.7897 119.964L111.91 114.104V114.114Z" fill="#D4DEE8"/>
<path d="M275.87 92.1133C278.4 94.4733 268.13 112.953 268.07 117.073C268.01 121.193 275.79 139.983 273.87 142.073L261.78 143.273L255.9 126.123L254.89 144.123C252.62 148.773 246.3 148.383 241.89 148.103L244.11 96.3433L256.96 96.0234L259.85 114.103L264.82 94.0632L275.86 92.1233L275.87 92.1133Z" fill="#D4DEE8"/>
<path d="M303.87 88.1028V123.103C303.87 127.853 300.28 136.893 294.83 138.073C288.11 139.823 296.1 125.633 287.88 128.103L286 139.243L275.85 139.083L282.01 93.2429C285.55 88.2729 298 88.0528 303.87 88.1028ZM289.9 118.103C295.54 116.163 293.74 109.003 293.86 104.103C288.22 106.043 290.02 113.203 289.9 118.103Z" fill="#D4DEE8"/>
<path d="M33.9294 136.093C33.3294 145.353 30.5194 187.803 23.9594 191.123C21.4394 192.393 18.6295 192.163 15.9395 192.083L27.1995 136.023L33.9194 136.093H33.9294Z" fill="#D4DEE8"/>
<path d="M279.88 40.1041C280.2 51.0241 287.18 64.5242 287.45 75.7242C287.62 82.6642 281.35 85.6241 279.94 79.1041C276.63 63.8041 274.48 54.0042 269.95 39.0242C268.17 33.1242 276.58 36.0441 279.88 40.1141C279.85 38.9741 279.73 36.2441 279.89 36.1241C288.32 29.8341 294.72 62.7241 293.9 68.1041L295.67 61.334L290.87 36.1141C297.54 44.7641 302.02 61.254 303.05 72.084C303.39 75.614 304.87 77.474 300.84 80.084L296.87 70.084L295.86 80.1141H289.88C287.63 67.5041 288.29 50.4841 279.87 40.1041H279.88Z" fill="#D4DEE8"/>
<path d="M45.9301 134.094C47.9001 135.944 40.2601 185.664 38.0801 187.234C35.9001 188.804 32.48 187.964 29.96 188.094L38.25 134.404L45.9401 134.094H45.9301Z" fill="#D4DEE8"/>
<path d="M21.9302 138.113C20.1302 148.753 17.6401 188.443 10.7101 193.883C8.83008 195.363 6.4502 196.463 3.9502 196.103L13.9901 138.143L21.9202 138.113H21.9302Z" fill="#D4DEE8"/>
<path d="M277.89 82.0934L267.9 84.1034L257.89 34.1134C260.52 34.1934 263.55 33.4535 265.96 35.0235C270.76 38.1435 276.79 74.4734 277.89 82.0934Z" fill="#D4DEE8"/>
</svg>
