<svg width="700" height="400" viewBox="0 0 700 400" fill="none" xmlns="http://www.w3.org/2000/svg">
<path d="M330.105 244.086C336.985 237.916 332.885 213.526 325.135 212.066C322.105 211.496 309.245 211.356 307.885 213.276C306.215 221.156 299.945 231.956 303.405 239.666C304.805 242.776 308.575 240.866 308.095 244.066H288.115C294.615 237.456 296.365 230.596 299.105 222.076C308.515 192.786 315.275 160.166 322.115 130.076C327.305 129.516 325.295 130.096 326.155 133.006C336.735 168.886 342.105 206.556 354.115 242.076C355.585 243.166 360.085 240.276 360.085 239.086V132.086L390.095 216.086C393.225 215.726 393.165 213.126 393.885 210.896C401.115 188.386 402.285 161.866 410.225 139.236C414.225 133.516 423.825 136.836 430.055 136.096C430.015 140.536 428.125 144.496 427.975 148.996C427.185 172.416 425.155 213.316 427.955 235.206C428.515 239.556 429.995 240.736 432.065 244.066H406.075C405.235 243.446 410.075 238.286 410.075 237.086V172.086L392.075 256.086L387.895 253.266L366.095 194.086V237.086C366.095 238.106 372.075 241.616 372.095 244.086H330.105ZM326.105 206.076L318.125 174.096L310.105 206.066H326.095L326.105 206.076Z" fill="#D4DEE8"/>
<path d="M273.115 136.085C296.625 138.955 305.545 160.035 298.585 181.555C293.655 196.805 280.815 198.685 268.375 205.345C268.415 218.275 265.785 232.205 272.115 244.075L246.125 244.105L252.095 270.095C245.715 265.255 234.485 248.045 228.085 245.135C222.225 242.475 201.705 242.935 197.205 248.165C190.055 256.465 197.305 261.965 197.115 270.115C182.915 266.415 179.005 251.265 180.125 238.085L187.935 237.915L215.135 130.105L244.135 242.085C247.535 242.735 248.285 241.325 249.635 238.605C253.535 230.755 253.305 169.065 252.095 157.115C251.305 149.255 249.025 142.235 244.115 136.095C253.365 136.895 264.085 134.995 273.105 136.095L273.115 136.085ZM268.115 196.085C288.245 194.005 289.845 145.585 268.115 144.085V196.085ZM226.125 238.085L209.125 176.065L194.125 238.085H226.115H226.125Z" fill="#D4DEE8"/>
<path d="M470.065 136.086C469.665 141.496 465.125 143.246 464.175 149.196C462.645 158.796 465.085 170.816 463.975 180.766C487.165 186.256 502.155 206.346 490.845 229.866C488.935 233.846 478.535 244.086 475.065 244.086H442.075C443.145 241.516 445.085 239.986 446.015 237.026C449.995 224.366 449.565 170.176 448.045 155.116C447.285 147.536 444.535 142.836 442.075 136.086H470.065ZM464.065 188.086V238.086C483.085 235.556 482.255 192.686 464.065 188.086Z" fill="#D4DEE8"/>
<path d="M520.055 260.086C516.565 257.066 507.935 250.656 505.945 247.196C500.585 237.856 505.625 183.076 504.135 167.006C501.835 142.136 485.655 145.156 488.295 170.866C489.015 177.836 493.405 183.606 493.075 190.076C477.045 175.826 475.265 130.836 504.575 136.516C510.075 137.586 520.055 145.856 520.055 151.086V260.086Z" fill="#D4DEE8"/>
</svg>
