<svg width="341" height="142" viewBox="0 0 341 142" fill="none" xmlns="http://www.w3.org/2000/svg">
<path d="M150.663 115.153C157.543 108.983 153.443 84.5926 145.693 83.1326C142.663 82.5626 129.803 82.4226 128.443 84.3426C126.773 92.2226 120.503 103.023 123.963 110.733C125.363 113.843 129.133 111.933 128.653 115.133H108.673C115.173 108.523 116.923 101.663 119.663 93.1426C129.073 63.8526 135.833 31.2326 142.673 1.14257C147.863 0.582566 145.853 1.16262 146.713 4.07262C157.293 39.9526 162.663 77.6226 174.673 113.143C176.143 114.233 180.643 111.343 180.643 110.153V3.15258L210.653 87.1526C213.783 86.7926 213.723 84.1926 214.443 81.9626C221.673 59.4526 222.843 32.9326 230.783 10.3026C234.783 4.5826 244.383 7.90259 250.613 7.16259C250.573 11.6026 248.683 15.5626 248.533 20.0626C247.743 43.4826 245.713 84.3826 248.513 106.273C249.073 110.623 250.553 111.803 252.623 115.133H226.633C225.793 114.513 230.633 109.353 230.633 108.153V43.1526L212.633 127.153L208.453 124.333L186.653 65.1526V108.153C186.653 109.173 192.633 112.683 192.653 115.153H150.663ZM146.663 77.1426L138.683 45.1626L130.663 77.1326H146.653L146.663 77.1426Z" fill="#D4DEE8"/>
<path d="M93.6733 7.15186C117.183 10.0219 126.103 31.1019 119.143 52.6219C114.213 67.8719 101.373 69.7519 88.9333 76.4119C88.9733 89.3419 86.3433 103.272 92.6733 115.142L66.6833 115.172L72.6533 141.162C66.2733 136.322 55.0432 119.112 48.6432 116.202C42.7832 113.542 22.2632 114.002 17.7632 119.232C10.6132 127.532 17.8633 133.032 17.6733 141.182C3.47327 137.482 -0.436722 122.332 0.683278 109.152L8.49321 108.982L35.6933 1.17188L64.6933 113.152C68.0933 113.802 68.8433 112.392 70.1933 109.672C74.0933 101.822 73.8633 40.1319 72.6533 28.1819C71.8633 20.3219 69.5833 13.3019 64.6733 7.16187C73.9233 7.96187 84.6433 6.06187 93.6633 7.16187L93.6733 7.15186ZM88.6733 67.1519C108.803 65.0719 110.403 16.6519 88.6733 15.1519V67.1519ZM46.6833 109.152L29.6833 47.1319L14.6833 109.152H46.6733H46.6833Z" fill="#D4DEE8"/>
<path d="M290.623 7.15234C290.223 12.5623 285.683 14.3124 284.733 20.2624C283.203 29.8624 285.643 41.8823 284.533 51.8323C307.723 57.3223 322.713 77.4124 311.403 100.932C309.493 104.912 299.093 115.152 295.623 115.152H262.633C263.703 112.582 265.643 111.052 266.573 108.092C270.553 95.4323 270.123 41.2424 268.603 26.1824C267.843 18.6024 265.093 13.9023 262.633 7.15234H290.623ZM284.623 59.1523V109.152C303.643 106.622 302.813 63.7523 284.623 59.1523Z" fill="#D4DEE8"/>
<path d="M340.613 131.153C337.123 128.133 328.493 121.723 326.503 118.263C321.143 108.923 326.183 54.1428 324.693 38.0728C322.393 13.2028 306.213 16.2228 308.853 41.9328C309.573 48.9028 313.963 54.6728 313.633 61.1428C297.603 46.8928 295.823 1.90278 325.133 7.58278C330.633 8.65278 340.613 16.9228 340.613 22.1528V131.153Z" fill="#D4DEE8"/>
</svg>
