<svg width="384" height="163" viewBox="0 0 384 163" fill="none" xmlns="http://www.w3.org/2000/svg">
<path d="M43.5125 104.152C41.4825 118.292 45.1525 127.232 53.4925 138.132C37.6325 130.702 33.4725 127.132 17.5225 138.152L29.3225 117.522L1.38259 102.932C4.81259 84.1924 -2.97761 48.0425 1.92239 31.5625C3.22239 27.1825 13.4625 20.4724 16.5125 16.2224L29.4925 24.1423C30.8325 15.1223 23.5325 9.21236 19.5025 2.17236C33.7925 7.70236 38.1024 9.26234 51.4724 0.152344C53.6524 2.51234 45.0625 11.2623 44.2625 14.1123C41.8425 22.8423 66.5924 28.8224 71.1624 35.4724L71.1126 98.7825L54.1424 111.872L43.5125 104.152ZM43.4925 24.1523V97.1523C43.4925 102.032 57.4925 102.032 57.4925 97.1523V35.1523L43.4925 24.1523ZM29.4925 108.152V33.1523C29.4925 27.3423 15.4925 27.3423 15.4925 33.1523V97.1523C15.4925 97.9323 24.9825 106.152 26.5125 108.132L29.4824 108.152H29.4925Z" fill="#D4DEE8"/>
<path d="M147.463 54.1519C168.953 55.6119 163.773 13.4219 155.463 2.17188C166.323 5.11188 170.643 6.11188 181.453 2.17188C173.983 10.3919 174.013 26.622 175.333 37.272C176.163 43.972 178.703 43.2818 183.413 47.1418C180.943 51.1018 175.833 50.592 175.293 55.082C173.793 67.602 174.293 85.5418 181.443 96.1318C179.183 97.9918 171.323 90.712 168.103 90.532C163.923 90.292 160.453 97.1918 155.453 96.1318C162.043 86.5718 163.093 72.382 161.463 61.092C160.563 54.842 150.603 59.7018 147.333 61.3818C147.163 75.3718 146.243 87.6618 153.453 100.132C141.783 95.3618 137.953 92.5518 125.463 98.1318C134.933 88.3218 135.163 72.172 133.603 59.072C132.943 53.512 126.223 56.282 123.673 50.842L125.473 38.1418C130.563 31.8618 129.543 53.5019 133.463 52.1519V21.1519C133.463 19.6019 126.613 12.8119 127.463 12.1719C137.813 14.0219 144.643 14.9618 154.443 10.1318C156.643 13.3018 147.463 20.4819 147.463 21.1519V54.1519Z" fill="#D4DEE8"/>
<path d="M345.412 74.1526L367.282 33.0227L383.402 28.1626C382.552 31.6826 377.792 33.1926 376.442 36.1826C374.652 40.1426 374.282 101.663 375.322 109.233C376.382 116.983 382.342 119.183 383.392 126.143C372.002 118.863 363.562 119.343 351.432 124.133C348.592 121.393 361.422 112.423 361.422 111.143V62.1426L331.432 110.143V33.1426C331.432 31.8626 323.852 28.1826 325.452 24.1426C334.292 29.2326 343.482 29.0826 352.452 24.1826C353.712 27.3326 345.432 31.7426 345.432 33.1426V74.1426L345.412 74.1526Z" fill="#D4DEE8"/>
<path d="M293.423 112.152L307.363 116.122C311.763 106.362 315.423 70.5322 304.063 66.5022C300.273 65.1622 294.543 67.7221 291.423 63.1421C314.153 61.2321 308.413 31.9721 303.383 16.1521L286.403 54.1421C285.513 46.9321 280.793 38.3721 281.243 31.1221C281.763 22.6821 296.383 14.0723 301.383 7.07227C326.993 16.2723 326.093 45.0421 311.413 64.1121C337.063 74.3221 324.723 117.142 304.693 128.012L283.753 104.752L293.413 76.1621V112.162L293.423 112.152Z" fill="#D4DEE8"/>
<path d="M253.433 64.1534V105.153C253.433 112.803 264.573 125.793 266.993 110.663C268.073 103.903 262.933 89.8734 263.443 82.1534L277.343 103.143C277.483 107.973 263.393 126.203 258.443 126.183C253.023 116.283 240.783 108.913 239.373 97.2035C237.783 83.9235 237.953 48.7836 243.793 37.5336C261.433 3.52357 287.503 58.7835 274.363 76.1735L253.413 64.1635L253.433 64.1534ZM259.403 32.1635C254.193 31.5535 256.253 32.2436 255.373 35.0836C252.993 42.7836 253.353 50.9835 253.313 58.9335L265.413 62.1534L259.393 32.1635H259.403Z" fill="#D4DEE8"/>
<path d="M106.773 105.462C105.503 106.842 98.143 112.262 96.743 112.022C91.913 105.962 79.003 100.702 77.533 93.1116C76.643 88.5016 75.8929 76.2516 81.4529 74.1516C80.7729 86.7216 90.333 95.9716 98.473 104.112C102.343 104.142 107.763 72.5517 104.583 68.0317L85.493 62.1316L105.243 54.8816L99.4529 26.1616C94.1829 22.2016 84.653 50.7116 79.503 52.1516L79.813 29.4817L96.6231 18.0918C118.913 24.1718 116.893 36.2417 119.563 55.0417C119.973 57.9517 122.853 59.9418 123.113 61.5518C123.473 63.7818 120.103 66.2117 119.603 69.2917C117.523 82.2817 116.423 95.0317 106.783 105.452L106.773 105.462Z" fill="#D4DEE8"/>
<path d="M187.452 10.1531C190.392 7.1231 206.332 19.4131 210.442 19.4131C213.902 19.4131 232.662 7.1231 233.412 8.1531L235.412 68.1431L223.012 27.5733L217.452 24.1631L217.422 88.1631L213.452 86.1331L217.412 126.143L209.452 120.143L211.412 162.133C208.592 162.613 208.502 158.593 208.012 156.583C204.462 142.003 199.502 119.663 197.422 105.133C197.252 103.933 196.872 101.853 198.422 102.153L207.412 110.143L200.422 68.1531L205.432 72.1431V31.1431C205.432 29.8531 203.582 22.3031 199.462 24.1531L188.942 64.6531L187.442 65.1531V10.1531H187.452Z" fill="#D4DEE8"/>
</svg>
