<svg width="700" height="400" viewBox="0 0 700 400" fill="none" xmlns="http://www.w3.org/2000/svg">
<path d="M201.685 222.99C199.655 237.13 203.325 246.07 211.665 256.97C195.805 249.54 191.645 245.97 175.695 256.99L187.495 236.36L159.555 221.77C162.985 203.03 155.195 166.88 160.095 150.4C161.395 146.02 171.635 139.31 174.685 135.06L187.665 142.98C189.005 133.96 181.705 128.05 177.675 121.01C191.965 126.54 196.275 128.1 209.645 118.99C211.825 121.35 203.235 130.1 202.435 132.95C200.015 141.68 224.765 147.66 229.335 154.31L229.285 217.62L212.315 230.71L201.685 222.99ZM201.665 142.99V215.99C201.665 220.87 215.665 220.87 215.665 215.99V153.99L201.665 142.99ZM187.665 226.99V151.99C187.665 146.18 173.665 146.18 173.665 151.99V215.99C173.665 216.77 183.155 224.99 184.685 226.97L187.655 226.99H187.665Z" fill="#D4DEE8"/>
<path d="M305.635 172.99C327.125 174.45 321.945 132.26 313.635 121.01C324.495 123.95 328.815 124.95 339.625 121.01C332.155 129.23 332.185 145.46 333.505 156.11C334.335 162.81 336.875 162.119 341.585 165.979C339.115 169.939 334.005 169.43 333.465 173.92C331.965 186.44 332.465 204.379 339.615 214.969C337.355 216.829 329.495 209.55 326.275 209.37C322.095 209.13 318.625 216.029 313.625 214.969C320.215 205.409 321.265 191.22 319.635 179.93C318.735 173.68 308.775 178.539 305.505 180.219C305.335 194.209 304.415 206.499 311.625 218.969C299.955 214.199 296.125 211.389 283.635 216.969C293.105 207.159 293.335 191.01 291.775 177.91C291.115 172.35 284.395 175.12 281.845 169.68L283.645 156.979C288.735 150.699 287.715 172.34 291.635 170.99V139.99C291.635 138.44 284.785 131.65 285.635 131.01C295.985 132.86 302.815 133.799 312.615 128.969C314.815 132.139 305.635 139.32 305.635 139.99V172.99Z" fill="#D4DEE8"/>
<path d="M503.585 192.99L525.455 151.86L541.575 147C540.725 150.52 535.965 152.03 534.615 155.02C532.825 158.98 532.455 220.5 533.495 228.07C534.555 235.82 540.515 238.02 541.565 244.98C530.175 237.7 521.735 238.18 509.605 242.97C506.765 240.23 519.595 231.26 519.595 229.98V180.98L489.605 228.98V151.98C489.605 150.7 482.025 147.02 483.625 142.98C492.465 148.07 501.655 147.92 510.625 143.02C511.885 146.17 503.605 150.58 503.605 151.98V192.98L503.585 192.99Z" fill="#D4DEE8"/>
<path d="M451.595 230.99L465.536 234.96C469.936 225.2 473.595 189.37 462.235 185.34C458.445 184 452.715 186.56 449.595 181.98C472.325 180.07 466.586 150.81 461.556 134.99L444.575 172.98C443.685 165.77 438.965 157.21 439.415 149.96C439.935 141.52 454.556 132.91 459.556 125.91C485.166 135.11 484.265 163.88 469.585 182.95C495.235 193.16 482.895 235.98 462.865 246.85L441.925 223.59L451.585 195V231L451.595 230.99Z" fill="#D4DEE8"/>
<path d="M411.605 182.991V223.991C411.605 231.641 422.746 244.631 425.166 229.501C426.246 222.741 421.105 208.711 421.615 200.991L435.516 221.981C435.656 226.811 421.565 245.041 416.615 245.021C411.195 235.121 398.956 227.751 397.546 216.041C395.956 202.761 396.126 167.621 401.966 156.371C419.606 122.361 445.676 177.621 432.536 195.011L411.585 183.001L411.605 182.991ZM417.575 151.001C412.365 150.391 414.426 151.081 413.546 153.921C411.166 161.621 411.526 169.821 411.486 177.771L423.585 180.991L417.565 151.001H417.575Z" fill="#D4DEE8"/>
<path d="M264.945 224.299C263.675 225.679 256.315 231.099 254.915 230.859C250.085 224.799 237.175 219.539 235.705 211.949C234.815 207.339 234.065 195.089 239.625 192.989C238.945 205.559 248.505 214.809 256.645 222.949C260.515 222.979 265.935 191.389 262.755 186.869L243.665 180.969L263.415 173.719L257.625 144.999C252.355 141.039 242.825 169.549 237.675 170.989L237.985 148.319L254.795 136.929C277.085 143.009 275.065 155.079 277.735 173.879C278.145 176.789 281.025 178.779 281.285 180.389C281.645 182.619 278.275 185.049 277.775 188.129C275.695 201.119 274.595 213.869 264.955 224.289L264.945 224.299Z" fill="#D4DEE8"/>
<path d="M345.625 128.991C348.565 125.961 364.505 138.251 368.615 138.251C372.075 138.251 390.835 125.961 391.585 126.991L393.585 186.981L381.185 146.411L375.625 143.001L375.595 207.001L371.625 204.971L375.585 244.981L367.625 238.981L369.585 280.971C366.765 281.451 366.675 277.431 366.185 275.421C362.635 260.841 357.675 238.501 355.595 223.971C355.425 222.771 355.045 220.691 356.595 220.991L365.585 228.981L358.595 186.991L363.605 190.981V149.981C363.605 148.691 361.755 141.141 357.635 142.991L347.115 183.491L345.615 183.991V128.991H345.625Z" fill="#D4DEE8"/>
</svg>
