<svg width="429" height="166" viewBox="0 0 429 166" fill="none" xmlns="http://www.w3.org/2000/svg">
<path d="M351.867 44.1539C352.641 45.0436 356.908 39.615 357.608 38.7912C366.761 28.0823 375.657 14.6961 385.205 4.71206C387.223 2.60322 388.953 0.00012207 392.215 0.617946V53.5943C394.653 57.4165 405.766 55.9667 400.897 62.0049C391.828 59.9373 381.975 59.7725 372.922 62.1202C367.963 56.601 378.244 56.5681 381.506 54.8299V17.8676C378.631 19.9929 376.39 22.9832 374.117 25.6934C365.162 36.3446 356.043 50.0603 346.521 59.7643C344.189 62.1367 341.677 64.2126 341.117 59.3853L341.183 7.74351L332.648 4.58026C330.597 4.27547 331.545 0.865081 332.648 0.585001C341.982 1.64766 351.29 1.76298 360.541 0.00012207C365.41 6.04656 354.297 4.58849 351.859 8.419V44.1457L351.867 44.1539Z" fill="#D4DEE8"/>
<path d="M10.8365 10.4466C9.7574 6.55841 -2.6485 6.96206 0.514753 2.62081C1.75864 0.907383 6.42939 2.62081 8.73593 2.68672C16.0757 2.90089 23.3083 2.29131 30.5986 1.82176L30.508 5.84997C27.386 6.59136 23.6955 7.02796 21.5372 9.63105V45.3577L57.3051 2.5961C60.0565 0.94857 61.564 1.48402 61.9347 4.66375C63.2362 15.7681 62.2065 34.0557 61.9347 45.8026C61.8441 49.6825 59.0185 53.9414 63.2527 56.7422C66.8855 59.1476 72.2729 56.8905 70.9549 63.4229C64.4801 62.2532 58.2442 61.4376 51.6211 61.7919C48.9439 61.9319 40.4838 65.0457 40.4591 61.3635C40.5333 57.5165 51.1928 57.6318 51.1928 54.7981V19.8952C49.2816 19.854 47.8483 21.9216 46.6538 23.1655C35.4177 34.8795 25.6561 50.498 14.6011 62.6568L10.8365 63.4229V10.4466Z" fill="#D4DEE8"/>
<path d="M235.469 0.388621C282.597 -6.06146 285.628 70.0215 235.346 64.148C202.296 60.2928 201.546 5.02642 235.469 0.388621ZM235.444 6.11379C215.015 10.2409 216.069 62.9865 244.25 59.2384C261.344 56.9648 263.049 30.8844 258.304 18.2561C254.424 7.91784 246.384 3.89786 235.444 6.10555V6.11379Z" fill="#D4DEE8"/>
<path d="M298.471 54.698L307.029 58.0672C307.796 59.1957 307.647 61.7823 306.197 62.0047C299.986 60.6126 293.602 60.2584 287.226 60.5879C285.249 60.695 277.522 63.1745 276.954 60.9091C275.471 54.978 286.987 57.8942 287.671 51.996C289.162 39.0876 286.485 23.3125 287.605 10.0828C286.921 5.61803 279.475 6.54065 277.67 4.39062C272.851 -1.35102 285.925 1.44154 288 1.48273C295.818 1.63925 304.089 -0.362504 311.725 0.823718C330.985 3.79751 333.769 31.1465 315.613 38.8075C312.903 39.9526 295.752 44.5574 301.551 37.9261C302.507 36.8305 307.903 35.669 310.135 34.1697C322.87 25.5943 315.358 -0.716718 298.734 7.19966L298.471 54.7144V54.698Z" fill="#D4DEE8"/>
<path d="M166.487 9.21102L155.795 9.63938C151.264 11.534 149.723 22.5478 147.137 25.6451C146.017 26.9796 144.039 26.3865 142.598 26.4607L145.086 3.07397C147.03 -2.88185 149.839 3.60942 153.76 4.23548C158.414 4.97687 188.103 4.8533 191.785 3.65061C194.034 2.91746 195.228 0.833331 197.345 0.182556C199.223 0.594439 201.448 22.9761 201.884 26.4607C195.344 27.8446 194.923 18.083 192.18 13.5605C188.556 7.57997 184.28 8.96389 177.954 9.57348L177.344 54.6417C178.679 59.09 190.483 56.388 188.646 62.105C188.193 63.5218 187.229 63.2747 186.084 63.25C180.87 63.11 175.672 61.6437 170.145 61.7507C167.855 61.8002 156.281 63.9337 155.778 63.423L156.585 58.8923L166.479 56.0338V9.21102H166.487Z" fill="#D4DEE8"/>
<path d="M131.905 26.4608L126.172 26.4279C122.234 -0.896402 89.6955 -2.00025 87.4466 27.713C85.1566 57.8628 110.471 71.3066 129.104 46.2477L132.68 48.3483C124.953 68.1928 94.7781 69.3378 82.6358 53.019C73.4673 40.6955 73.6733 18.2067 85.3543 7.55543C93.3283 0.281581 106.962 -2.15676 116.814 2.50575C119.087 3.58488 123.799 8.43685 124.911 8.44509C128.503 8.4698 126.501 -1.15177 131.905 1.00649V26.4691V26.4608Z" fill="#D4DEE8"/>
<path d="M315.253 98.0656L310.327 102.604C299.972 113.396 290.326 130.349 279.839 140.366C277.557 142.541 275.086 143.694 274.864 139.583L274.905 88.617C274.007 83.6991 263.356 87.0271 265.077 81.2937C265.703 79.2013 268.842 80.8242 270.341 80.8571C278.752 81.0383 287.162 80.9065 295.499 79.9922L295.392 83.9957C291.916 85.0501 288.069 85.6102 285.614 88.6252V123.528C287.484 123.676 288.588 121.798 289.708 120.628C300.565 109.376 309.865 93.3783 320.607 82.4552C322.939 80.0828 325.451 77.9986 326.011 82.8341L325.97 132.977C326.571 136.28 332.486 136.338 335.064 137.046L335.855 141.602C325.245 139.814 315.978 140.111 305.384 141.602C304.42 135.02 311.974 137.442 315.269 133.8V98.0738L315.253 98.0656Z" fill="#D4DEE8"/>
<path d="M362.191 106.566C370.264 108.65 367.241 96.6062 373.782 98.7068C375.009 99.5717 375.009 118.485 373.782 119.359C367.389 121.698 369.523 110.454 363.452 111.459C359.769 112.068 362.158 115.849 362.233 118.444C362.389 123.741 361.936 129.087 362.307 134.376C369.506 136.979 376.797 138.289 380.981 130.644C383.436 126.171 382.209 119.111 388.544 120.52L386.888 141.872C385.85 142.959 360.997 140.117 356.796 140.2C354.283 140.249 341.49 142.613 340.773 141.88L341.136 137.72C341.976 136.534 349.571 136.806 351.079 133.676L351.491 89.7278C350.856 86.3009 343.747 85.8643 341.119 84.4392L341.655 80.3121C356.079 83.047 370.734 81.1771 385.249 80.2874L388.189 103.303C387.522 104.242 384.499 104.506 383.708 103.995C382.538 103.238 381.575 90.3868 376.5 87.7837C373.568 86.2762 365.033 86.0702 362.191 88.0885V106.566Z" fill="#D4DEE8"/>
<path d="M101.459 132.098C102.208 136.62 115.207 136.892 118.502 133.893C123.124 129.684 121.279 118.81 128.635 120.186C127.86 126.315 128.19 133.515 126.962 139.462C126.765 140.409 126.732 141.134 125.636 141.48L104.375 139.866L81.6637 141.184L81.2188 137.37L90.7827 133.589C89.5141 119.601 92.3644 102.994 90.7992 89.336C90.1155 83.372 78.9535 86.873 80.9717 81.2796C81.3177 80.324 81.9767 79.9451 82.957 79.8957L125.307 79.9863C125.488 86.3046 127.827 93.9738 127.893 100.07C127.902 101.239 127.86 103.365 126.559 103.752C121.493 105.276 122.242 90.341 116.6 87.4414C114.104 86.1563 103.197 85.4561 101.879 88.1498C100.923 90.1021 100.989 104.114 102.637 105.482C108.23 110.111 108.436 95.7532 113.823 98.0103V119.362L109.795 119.263C108.568 114.519 107.431 109.807 101.467 111.149C102.208 117.517 100.454 126.018 101.467 132.089L101.459 132.098Z" fill="#D4DEE8"/>
<path d="M193.696 103.348C193.284 104.823 190.252 106.099 188.712 105.037C187.822 104.427 186.447 98.3643 185.623 96.6179C178.843 82.202 161.618 78.248 152.911 93.051C140.192 114.683 157.368 150.723 183.275 133.185C186.57 130.952 190.928 122.822 193.622 128.152C188.827 139.528 176.314 143.54 164.477 142.353C126.098 138.49 130.101 76.6581 168.546 78.2891C176.652 78.6351 179.165 81.8561 185.022 85.7278C189.808 88.891 188.144 81.0158 190.36 79.4836C191.612 78.6187 193.704 79.5495 193.704 80.3568V103.356L193.696 103.348Z" fill="#D4DEE8"/>
<path d="M260.077 80.8077V84.91C257.12 84.7123 255.027 85.2643 252.63 86.9365C249.871 88.8641 238.758 102.283 236.641 105.496C236.089 106.336 235.422 107.094 235.537 108.198L275.72 165.4L269.905 164.23L224.861 114.08L242.704 87.6861C243.107 85.0995 233.782 85.3713 237.827 80.3464C245.332 81.3761 252.54 81.269 260.077 80.7994V80.8077Z" fill="#D4DEE8"/>
<path d="M75.0984 79.9369L75.0243 84.7889C70.2794 85.934 66.556 85.3326 65.9958 90.9754C64.719 103.884 67.0338 118.918 66.0617 132.073C66.7619 135.763 72.067 136.002 75.0243 136.686L75.0984 141.53C68.6154 140.187 62.4289 139.545 55.7646 139.907C53.0956 140.047 45.6076 143.194 45.4758 139.528C45.3193 135.055 52.7414 136.126 55.3775 133.597V89.3279C55.9129 84.8878 47.7659 85.6703 46.6373 84.097L46.3572 81.2467L48.3343 79.904C57.025 81.4197 66.3912 81.0325 75.0984 79.9287V79.9369Z" fill="#D4DEE8"/>
<path d="M232.069 79.9921C235.455 87.719 224.178 83.4848 223.033 89.4571L223.527 134.286C227.522 136.461 233.42 135.481 232.078 141.593C227.275 141.56 222.464 139.896 217.67 139.896C214.334 139.896 205.734 142.12 203.798 141.503C201.681 140.827 202.521 138.265 203.435 136.84C205.907 136.132 211.772 135.885 212.316 132.985L211.797 87.3071L202.76 84.1521L203.295 80.025C212.859 81.6726 222.522 82.0844 232.061 79.9921H232.069Z" fill="#D4DEE8"/>
<path d="M42.1559 79.9452C44.1082 86.7495 35.434 84.13 34.0995 88.7348C33.4404 90.9919 33.6382 103.76 34.1159 106.438C36.2001 118.151 49.6851 110.4 50.3935 111.149C51.7363 115.647 45.937 119.025 42.2053 119.815C31.0927 122.171 24.2555 117.863 23.234 106.611C22.8139 101.964 24.239 91.2308 23.0857 87.8616C21.9325 84.4924 12.8134 86.6013 14.9881 79.9288C23.9342 81.1809 33.2098 81.1809 42.1559 79.9288V79.9452Z" fill="#D4DEE8"/>
<path d="M429 30.4628C425.203 34.2027 422.031 37.0694 419.527 41.9461C417.871 36.8965 415.606 34.1039 410.885 31.6738L416.644 26.7477L419.131 21.4179C422.575 25.0013 422.921 29.8121 429 30.4628Z" fill="#D4DEE8"/>
</svg>
