<svg width="700" height="400" viewBox="0 0 700 400" fill="none" xmlns="http://www.w3.org/2000/svg">
<path d="M313.009 194.12C256.779 191.42 265.96 109.25 321.12 121.01C349.88 127.15 356.799 170.821 332.489 186.601L319.019 194.101H343.009L343.999 220.14L357.999 194.12H386.989V264.12H356.999C356.839 257.81 357.229 251.421 356.999 245.101C356.909 242.681 358.499 237.66 355.029 238.14L343.029 263.15L311.029 262.13L311.009 280.13H283.019V264.12H259.019L259.039 280.14L229.909 278.26C228.289 275.94 228.379 248.12 229.939 245.99C231.499 243.86 235.93 245.301 237.07 242.731C240.82 234.311 239.289 195.85 241.019 194.13H303.009V244.14C307.189 243.93 311.909 242.63 311.039 248.12L313.009 248.14V194.14V194.12ZM314.999 152.13C312.079 151.99 309.689 151.51 307.969 154.07L307.029 160.11H315.009V152.13H314.999ZM271.019 216.12H263.029C264.639 224.75 261.509 233.21 260.989 241.13C260.619 246.83 267.279 243.28 271.019 244.12V216.12Z" fill="#D4DEE8"/>
<path d="M438.97 122.121V189.121C431.94 195.061 419.26 191.301 410.26 191.841C404.14 189.841 408.02 173.541 406.96 168.121L393.98 184.081L381 168.121L380.98 192.121H350.99V122.121L379 123.101L393.98 142.081L409.98 122.121H438.97Z" fill="#D4DEE8"/>
<path d="M422.98 194.121L423.98 220.141L434.98 194.121H466.97V264.121H436.98V236.121L422.98 264.121H390.99V194.121H422.98Z" fill="#D4DEE8"/>
<path d="M233.03 122.121V150.121C248.69 151.921 245.89 132.781 249.03 122.121H279.02C279.36 135.481 273.15 148.411 263.06 157.121C273.33 166.191 279.66 178.071 279.02 192.121H249.03C246.18 181.851 247.84 164.231 233.03 164.121V192.121H203.04V122.121H233.03Z" fill="#D4DEE8"/>
<path d="M496.96 122.121V140.131H472.96V148.111H490.97V166.131C488.77 168.331 470.02 161.281 472.95 171.111L495.08 172.991L496.95 192.121H443.96L440.96 189.121V122.121H496.95H496.96Z" fill="#D4DEE8"/>
</svg>
