<svg width="295" height="162" viewBox="0 0 295 162" fill="none" xmlns="http://www.w3.org/2000/svg">
<path d="M110.262 75.1516C54.0324 72.4516 63.2125 -9.7184 118.372 2.0416C147.132 8.1816 154.052 51.8516 129.742 67.6316L116.272 75.1316H140.262L141.252 101.172L155.252 75.1516H184.242V145.152H154.252C154.092 138.842 154.482 132.452 154.252 126.132C154.162 123.712 155.752 118.692 152.282 119.172L140.282 144.182L108.282 143.162L108.262 161.162H80.2724V145.152H56.2724L56.2924 161.172L27.1623 159.292C25.5423 156.972 25.6323 129.152 27.1923 127.022C28.7523 124.892 33.1824 126.332 34.3224 123.762C38.0724 115.342 36.5424 76.8816 38.2724 75.1616H100.262V125.172C104.442 124.962 109.162 123.662 108.292 129.152L110.262 129.172V75.1716V75.1516ZM112.252 33.1616C109.332 33.0216 106.942 32.5416 105.222 35.1016L104.282 41.1416H112.262V33.1616H112.252ZM68.2724 97.1516H60.2824C61.8924 105.782 58.7624 114.242 58.2424 122.162C57.8724 127.862 64.5324 124.312 68.2724 125.152V97.1516Z" fill="#D4DEE8"/>
<path d="M236.223 3.15234V70.1523C229.193 76.0923 216.513 72.3324 207.513 72.8724C201.393 70.8724 205.273 54.5723 204.213 49.1523L191.233 65.1124L178.253 49.1523L178.233 73.1523H148.243V3.15234L176.253 4.13239L191.233 23.1124L207.233 3.15234H236.223Z" fill="#D4DEE8"/>
<path d="M220.233 75.1523L221.233 101.172L232.233 75.1523H264.223V145.152H234.233V117.152L220.233 145.152H188.243V75.1523H220.233Z" fill="#D4DEE8"/>
<path d="M30.283 3.15234V31.1523C45.943 32.9523 43.143 13.8123 46.283 3.15234H76.2729C76.6129 16.5123 70.403 29.4423 60.313 38.1523C70.583 47.2223 76.9129 59.1023 76.2729 73.1523H46.283C43.433 62.8823 45.093 45.2623 30.283 45.1523V73.1523H0.292969V3.15234H30.283Z" fill="#D4DEE8"/>
<path d="M294.213 3.15234V21.1624H270.213V29.1423H288.223V47.1624C286.023 49.3624 267.273 42.3123 270.203 52.1423L292.333 54.0223L294.203 73.1523H241.213L238.213 70.1523V3.15234H294.203H294.213Z" fill="#D4DEE8"/>
</svg>
