<svg width="700" height="400" viewBox="0 0 700 400" fill="none" xmlns="http://www.w3.org/2000/svg">
<path d="M163.045 211.294C164.375 206.984 181.815 206.934 184.125 210.214L193.015 250.284L201.315 208.564L219.035 208.294V270.294H207.035V242.294L201.025 270.284L184.205 270.414L177.045 242.294V270.294H163.045V211.294Z" fill="#D4DEE8"/>
<path d="M424.985 242.295C428.075 242.765 427.355 238.575 427.945 236.275C430.275 227.185 431.775 217.675 433.075 208.395L448.975 208.315C447.015 219.185 438.895 237.005 438.955 247.325C438.995 254.885 445.315 262.445 444.975 270.285L431.245 270.035L425.985 252.275L424.995 270.305H410.975L409.985 254.275L405.065 269.375L390.995 270.275C404.345 248.235 392.635 230.895 389.005 208.305L404.075 210.215L410.985 238.295V208.295H424.985V242.295Z" fill="#D4DEE8"/>
<path d="M510.965 208.295V252.295L521.905 210.245L536.955 208.295V270.295L522.945 270.305L521.955 248.275L516.765 270.105L496.965 270.295V208.295H510.965Z" fill="#D4DEE8"/>
<path d="M251.025 144.294V191.294L247.715 193.984L235.025 194.294V145.294C235.025 143.534 241.685 133.974 244.245 132.524C251.355 128.484 265.345 128.844 271.075 135.234C272.375 136.684 277.005 146.214 277.005 147.294V191.294C273.135 195.964 264.585 195.774 261.005 191.294V147.294C261.005 144.184 254.085 142.034 251.005 144.294H251.025Z" fill="#D4DEE8"/>
<path d="M338.005 208.294C351.525 211.184 350.325 236.594 348.875 247.164C347.045 260.484 336.835 262.204 325.005 262.294V270.314L309.005 270.294V208.294C317.535 209.514 330.135 206.614 337.995 208.294H338.005ZM332.825 222.514L325.265 223.564L325.015 248.314H332.995L332.825 222.514Z" fill="#D4DEE8"/>
<path d="M283.015 133.294C284.595 128.164 320.285 126.804 322.875 143.424C325.925 162.964 325.535 189.184 298.995 184.284L299.015 194.304L286.315 193.974L283.005 191.294V133.294H283.015ZM306.775 144.544L299.025 144.284C299.835 149.034 296.625 171.134 302.045 172.284C312.835 168.344 308.895 153.264 306.775 144.544Z" fill="#D4DEE8"/>
<path d="M370.995 194.296H356.995V147.296C356.995 143.426 344.995 141.406 344.995 147.296V194.296C340.575 193.846 331.065 196.375 329.285 191.025L332.505 140.806C336.905 129.906 352.615 126.766 362.095 132.186C363.795 133.156 370.985 142.006 370.985 143.296V194.296H370.995Z" fill="#D4DEE8"/>
<path d="M207.035 130.295V164.295L217.225 130.495L231.035 130.295C233.445 132.705 222.845 162.195 222.875 169.305C222.905 178.185 228.825 185.495 229.025 194.285L214.945 193.375L208.035 174.275L207.045 194.305H193.035V130.295H207.035Z" fill="#D4DEE8"/>
<path d="M438.975 130.295V164.295L449.235 130.555L462.975 130.295C461.265 152.535 447.055 169.335 460.885 191.315C458.315 195.255 450.595 195.515 446.925 193.315C441.535 190.095 444.205 177.805 438.985 174.295V194.295L424.965 194.285V130.285H438.965L438.975 130.295Z" fill="#D4DEE8"/>
<path d="M508.965 194.294H494.965V147.294C494.965 143.424 482.965 141.404 482.965 147.294V194.294H468.965V143.294C468.965 134.344 484.125 129.534 492.075 130.164C498.135 130.644 508.955 137.824 508.955 143.294V194.294H508.965Z" fill="#D4DEE8"/>
<path d="M466.975 208.295V242.295L477.165 208.495L492.965 208.315C490.925 218.685 483.435 233.325 482.875 243.355C482.315 253.365 488.495 260.725 488.965 270.285L473.165 270.095L467.975 252.275L468.065 268.385L452.975 270.295V208.295H466.975Z" fill="#D4DEE8"/>
<path d="M351.005 270.295L358.995 208.285L378.715 208.575L388.995 270.295H351.005ZM365.005 264.305L371.825 264.125L374.485 261.395L370.975 234.315C367.895 233.995 368.155 239.625 367.645 241.945C366.915 245.285 363.785 263.125 365.005 264.315V264.305Z" fill="#D4DEE8"/>
<path d="M404.985 146.294V191.294C401.115 195.964 392.565 195.774 388.985 191.294V146.294L375.865 144.424L376.865 131.164H417.105C422.895 143.144 417.735 148.364 404.985 146.294Z" fill="#D4DEE8"/>
<path d="M257.025 208.295L257.035 222.305L241.015 222.285L240.995 241.145L257.035 242.285V256.305L241.015 256.285L241.035 270.305L227.035 270.295V208.295H257.025Z" fill="#D4DEE8"/>
<path d="M305.015 208.295L306.175 220.425L291.025 222.295V270.295H277.025V225.295C273.245 220.355 266.505 222.665 261.015 222.305V208.295H305.015Z" fill="#D4DEE8"/>
</svg>
