<svg width="375" height="142" viewBox="0 0 375 142" fill="none" xmlns="http://www.w3.org/2000/svg">
<path d="M0.103027 82.1521C1.43303 77.8421 18.873 77.792 21.183 81.072L30.073 121.142L38.373 79.422L56.093 79.1521V141.152H44.093V113.152L38.083 141.142L21.263 141.272L14.103 113.152V141.152H0.103027V82.1521Z" fill="#D4DEE8"/>
<path d="M262.043 113.152C265.133 113.622 264.413 109.432 265.003 107.132C267.333 98.0423 268.833 88.5323 270.133 79.2523L286.033 79.1722C284.073 90.0422 275.953 107.862 276.013 118.182C276.053 125.742 282.373 133.302 282.033 141.142L268.303 140.892L263.043 123.132L262.053 141.162H248.033L247.043 125.132L242.123 140.232L228.053 141.132C241.403 119.092 229.693 101.752 226.063 79.1624L241.133 81.0723L248.043 109.152V79.1523H262.043V113.152Z" fill="#D4DEE8"/>
<path d="M348.023 79.1523V123.152L358.963 81.1023L374.013 79.1523V141.152L360.003 141.162L359.013 119.132L353.823 140.962L334.023 141.152V79.1523H348.023Z" fill="#D4DEE8"/>
<path d="M88.083 15.1519V62.1519L84.773 64.8418L72.083 65.1519V16.1519C72.083 14.3919 78.743 4.83188 81.303 3.38188C88.413 -0.658124 102.403 -0.298163 108.133 6.09184C109.433 7.54184 114.063 17.0719 114.063 18.1519V62.1519C110.193 66.8219 101.643 66.6319 98.063 62.1519V18.1519C98.063 15.0419 91.143 12.8919 88.063 15.1519H88.083Z" fill="#D4DEE8"/>
<path d="M175.063 79.1518C188.583 82.0418 187.383 107.452 185.933 118.022C184.103 131.342 173.893 133.062 162.063 133.152V141.172L146.063 141.152V79.1518C154.593 80.3718 167.193 77.4718 175.053 79.1518H175.063ZM169.883 93.3718L162.323 94.4217L162.073 119.172H170.053L169.883 93.3718Z" fill="#D4DEE8"/>
<path d="M120.073 4.15188C121.653 -0.978122 157.343 -2.33812 159.933 14.2819C162.983 33.8219 162.593 60.0419 136.053 55.1419L136.073 65.1619L123.373 64.8318L120.063 62.1519V4.15188H120.073ZM143.833 15.4019L136.083 15.1419C136.893 19.8919 133.683 41.9919 139.103 43.1419C149.893 39.2019 145.953 24.1219 143.833 15.4019Z" fill="#D4DEE8"/>
<path d="M208.053 65.1532H194.053V18.1532C194.053 14.2832 182.053 12.2632 182.053 18.1532V65.1532C177.633 64.7032 168.123 67.2332 166.343 61.8832L169.563 11.6632C173.963 0.763188 189.673 -2.37681 199.153 3.04319C200.853 4.01319 208.043 12.8632 208.043 14.1532V65.1532H208.053Z" fill="#D4DEE8"/>
<path d="M44.093 1.15234V35.1523L54.283 1.35229L68.093 1.15234C70.503 3.56234 59.903 33.0524 59.933 40.1624C59.963 49.0424 65.883 56.3523 66.083 65.1423L52.003 64.2323L45.093 45.1323L44.103 65.1624H30.093V1.15234H44.093Z" fill="#D4DEE8"/>
<path d="M276.033 1.15259V35.1526L286.293 1.4126L300.033 1.15259C298.323 23.3926 284.113 40.1925 297.943 62.1725C295.373 66.1125 287.653 66.3725 283.983 64.1725C278.593 60.9525 281.263 48.6626 276.043 45.1526V65.1526L262.023 65.1426V1.14258H276.023L276.033 1.15259Z" fill="#D4DEE8"/>
<path d="M346.023 65.1518H332.023V18.1518C332.023 14.2818 320.023 12.2618 320.023 18.1518V65.1518H306.023V14.1518C306.023 5.20178 321.183 0.391772 329.133 1.02177C335.193 1.50177 346.013 8.68178 346.013 14.1518V65.1518H346.023Z" fill="#D4DEE8"/>
<path d="M304.033 79.1523V113.152L314.223 79.3523L330.023 79.1722C327.983 89.5422 320.493 104.182 319.933 114.212C319.373 124.222 325.553 131.582 326.023 141.142L310.223 140.952L305.033 123.132L305.123 139.242L290.033 141.152V79.1523H304.033Z" fill="#D4DEE8"/>
<path d="M188.063 141.153L196.053 79.1426L215.773 79.4325L226.053 141.153H188.063ZM202.063 135.163L208.883 134.983L211.543 132.253L208.033 105.172C204.953 104.852 205.213 110.482 204.703 112.802C203.973 116.142 200.843 133.982 202.063 135.172V135.163Z" fill="#D4DEE8"/>
<path d="M242.043 17.1515V62.1515C238.173 66.8215 229.623 66.6315 226.043 62.1515V17.1515L212.923 15.2815L213.923 2.02148H254.163C259.953 14.0015 254.793 19.2215 242.043 17.1515Z" fill="#D4DEE8"/>
<path d="M94.083 79.1523L94.093 93.1624L78.073 93.1423L78.053 112.002L94.093 113.142V127.162L78.073 127.142L78.093 141.162L64.093 141.152V79.1523H94.083Z" fill="#D4DEE8"/>
<path d="M142.073 79.1523L143.233 91.2823L128.083 93.1523V141.152H114.083V96.1523C110.303 91.2123 103.563 93.5224 98.073 93.1624V79.1523H142.073Z" fill="#D4DEE8"/>
</svg>
