<svg width="386" height="191" viewBox="0 0 386 191" fill="none" xmlns="http://www.w3.org/2000/svg">
<path d="M20.9027 0.152344V46.1523L26.8927 41.1423L27.7727 2.02234L48.8826 0.172241C49.7426 3.46224 45.4127 1.08226 44.8427 3.44226C42.6327 12.5823 46.8826 28.5323 44.4826 38.7423C43.5926 42.5323 39.5126 45.4723 39.1826 47.5123C38.7926 49.9523 43.9627 54.3423 44.7827 59.2623C47.3827 74.9223 41.5126 94.7523 46.8826 110.142L26.8927 110.162V52.1624H20.8927V110.162L0.902662 110.142C0.0326621 109.512 4.07266 106.502 4.46266 104.722C7.10266 92.6023 6.79266 22.9322 5.02266 9.05225C4.46266 4.70225 2.98267 3.52226 0.912672 0.192261L20.9027 0.172241V0.152344Z" fill="#D4DEE8"/>
<path d="M160.863 44.1526L163.863 90.1725L168.853 44.1426H190.853V105.153C190.853 106.003 195.063 108.073 194.853 110.133L176.863 110.153V62.1526C174.153 63.1726 173.413 72.5826 173.103 75.3926C172.673 79.2626 171.493 109.922 169.723 110.182L156.853 110.163L154.853 77.1626L150.863 62.1526V110.153H136.863V49.1526C136.863 48.3026 132.643 46.2326 132.863 44.1526H160.853H160.863Z" fill="#D4DEE8"/>
<path d="M64.8826 156.153L46.8926 156.133C48.9626 152.803 50.4526 151.623 51.0026 147.273C54.1226 122.913 51.6526 79.1527 51.0026 53.0427C50.9226 49.6427 50.3626 47.1726 48.8926 44.1726L64.7826 44.3126L64.9126 50.1527C65.6226 51.0627 78.6326 35.4426 85.0526 45.4826C88.0026 50.1026 88.0025 100.143 85.4225 105.663C81.4025 114.253 71.9726 108.423 64.9026 108.133V156.133L64.8826 156.153ZM64.8826 58.1527V93.1527C64.8826 94.2227 69.2525 97.2827 70.8625 96.1427C73.1025 90.0827 74.8426 61.8427 70.9926 59.0427L64.8826 58.1527Z" fill="#D4DEE8"/>
<path d="M90.8826 116.172C87.8826 123.572 88.4625 133.122 88.8625 141.212C89.0725 145.342 90.0226 144.842 93.8726 144.162C95.7426 143.832 95.6926 119.552 92.8826 116.172H112.873C109.563 136.862 109.563 161.512 112.873 182.132H92.8826C95.6926 178.752 95.7426 154.472 93.8726 154.142C90.0326 153.462 89.0725 152.962 88.8625 157.092C88.4525 165.182 87.8726 174.732 90.8826 182.132H70.8926C74.2026 161.442 74.2026 136.792 70.8926 116.172H90.8826Z" fill="#D4DEE8"/>
<path d="M192.853 116.152V182.152H176.853V126.152C173.193 126.892 173.123 130.072 172.783 133.082C171.123 147.702 173.223 165.612 170.453 180.752C166.413 187.572 161.173 191.662 152.863 190.142C159.643 179.282 156.293 165.542 156.883 153.182C157.433 141.512 163.243 126.522 154.863 116.162H192.853V116.152Z" fill="#D4DEE8"/>
<path d="M256.843 116.153V144.153H262.833L260.843 116.172H280.833C281.703 116.802 277.663 119.813 277.273 121.593C275.563 129.443 275.603 164.583 276.713 173.263C277.273 177.613 278.753 178.793 280.823 182.123H260.833L262.823 154.133H256.833V182.143L238.843 182.123C242.153 161.433 242.153 136.783 238.843 116.163L256.833 116.143L256.843 116.153Z" fill="#D4DEE8"/>
<path d="M212.853 44.1526V91.1526L218.853 94.1526V44.1526H234.853V107.153C234.853 107.583 237.843 109.413 236.853 110.133L221.943 110.283L220.823 105.653C218.103 99.2226 216.123 108.403 214.963 109.153C210.443 112.103 200.953 110.483 199.263 104.743C194.453 88.3826 205.013 59.7126 194.863 44.1626L212.853 44.1426V44.1526Z" fill="#D4DEE8"/>
<path d="M108.873 44.1523V94.1523L114.873 91.1523V44.1523H128.873V110.152L114.983 109.992L114.853 104.152C109.273 109.222 102.983 113.472 95.8526 108.172C88.0226 99.0522 97.0726 56.8823 90.8726 44.1823L108.863 44.1624L108.873 44.1523Z" fill="#D4DEE8"/>
<path d="M148.393 118.632C155.663 125.912 145.623 170.662 154.863 182.142C148.793 181.152 139.843 185.562 137.883 178.162C115.033 196.732 107.383 153.702 121.803 142.092C126.453 138.342 133.153 138.542 136.823 133.152C134.303 129.462 131.893 130.002 128.013 130.252C119.943 130.782 123.033 136.442 116.873 136.142C109.383 116.942 139.893 110.122 148.383 118.622L148.393 118.632ZM136.863 150.162L131.223 153.492L130.883 168.162H136.863V150.162Z" fill="#D4DEE8"/>
<path d="M380.833 160.173C384.383 160.493 383.143 171.023 382.753 173.113C380.363 185.863 353.933 185.353 349.863 176.113C347.343 170.393 347.553 120.913 352.143 118.003C355.923 115.613 371.203 115.333 375.763 116.203C388.783 118.703 387.153 147.403 378.693 155.053C375.253 158.163 363.463 160.503 362.813 163.193C360.953 170.913 381.463 169.473 380.823 160.183L380.833 160.173ZM368.803 130.143H362.823V148.143L368.463 144.813L368.803 130.143Z" fill="#D4DEE8"/>
<path d="M284.833 119.153C284.753 118.583 281.823 116.902 282.833 116.172L300.843 116.143V134.153C305.153 128.603 320.823 131.693 320.823 137.153V177.153C320.823 182.223 304.613 184.973 301.813 178.163C299.863 185.563 290.913 181.143 284.833 182.153C282.903 162.513 287.443 138.173 284.833 119.153ZM300.833 170.143C310.613 171.163 307.633 144.963 303.793 144.163C294.153 146.453 303.813 162.313 300.833 170.143Z" fill="#D4DEE8"/>
<path d="M198.853 119.153C198.773 118.583 195.843 116.902 196.853 116.172L212.863 116.143V134.143C243.133 118.343 236.243 163.713 231.903 180.203C224.373 187.603 213.703 177.573 212.903 178.193C212.733 178.323 213.433 181.682 211.563 182.182C208.063 183.122 202.753 181.593 198.853 182.163C196.923 162.523 201.463 138.183 198.853 119.163V119.153ZM218.823 170.153L220.523 147.473L218.953 145.043L212.853 144.163C212.603 147.743 211.103 175.723 218.823 170.143V170.153Z" fill="#D4DEE8"/>
<path d="M344.813 116.172L342.633 177.302L346.803 182.132H324.823C328.133 161.512 328.133 136.862 324.823 116.172H344.813Z" fill="#D4DEE8"/>
<path d="M274.833 68.1523H240.843V82.1523H274.833V68.1523Z" fill="#D4DEE8"/>
</svg>
