<svg width="363" height="197" viewBox="0 0 363 197" fill="none" xmlns="http://www.w3.org/2000/svg">
<path d="M12.6934 4.15174L0.693359 4.13172C5.80336 -4.62828 18.1733 3.7017 26.4833 2.3617L49.6833 74.1716L72.4434 3.33167L94.6533 0.161752C96.0233 6.58175 90.3133 3.70174 86.6633 4.15174V98.1517L94.6533 98.1716V100.152H64.6733V98.1716L74.6733 98.1517V10.1517L45.6633 96.1618L41.7633 92.1618L14.6934 10.1517V98.1517C18.3234 98.9217 26.1833 95.1917 24.6833 102.142C16.9233 98.8317 4.87325 105.922 0.703247 98.1716L12.7032 98.1517V4.15174H12.6934Z" fill="#D4DEE8"/>
<path d="M220.643 120.153C220.423 119.783 214.643 121.753 216.653 116.163C221.043 116.753 229.243 114.713 232.723 117.073C234.463 118.253 245.743 147.993 248.453 153.323C249.253 154.893 249.053 159.463 252.603 156.153C256.153 152.843 262.913 122.893 267.573 118.103C271.193 114.383 279.593 116.693 284.623 116.173L278.503 121.253V173.073L284.623 176.153L262.653 178.163L268.643 174.173V124.173L247.623 172.183L243.753 168.163L224.653 124.173V174.173L232.653 174.193C232.313 176.873 229.913 177.723 227.563 178.113C222.573 178.923 200.093 177.933 196.683 175.053C195.393 173.963 194.853 171.893 194.573 170.233H191.733C181.573 183.773 155.223 180.843 156.563 161.213C157.663 145.023 180.153 143.773 192.673 144.183C193.133 129.673 195.543 116.243 176.113 120.623C161.713 123.863 175.953 134.213 170.593 138.103C160.933 145.113 153.793 122.733 172.083 118.603C220.203 107.733 194.723 158.823 203.603 172.233C207.603 178.273 212.483 169.263 216.663 170.203L220.653 174.183V120.183L220.643 120.153ZM192.653 148.153C151.813 140.103 167.423 193.123 188.693 169.203C194.083 163.143 192.633 155.683 192.653 148.153Z" fill="#D4DEE8"/>
<path d="M96.6728 120.153C92.7028 120.153 89.5428 121.693 90.6828 116.163L106.683 116.143L107.663 126.143C117.753 113.223 136.943 114.102 146.373 127.432C166.483 155.862 134.683 198.083 106.693 168.153L106.653 192.163L114.663 193.143C109.183 197.953 96.0228 197.893 90.6928 193.143L96.6828 192.153V120.153H96.6728ZM120.093 120.593C102.183 124.693 101.603 162.713 115.653 172.163C141.933 189.853 144.533 143.962 137.653 128.172C133.983 119.762 129.103 118.523 120.103 120.593H120.093Z" fill="#D4DEE8"/>
<path d="M242.172 40.5216C248.732 39.7616 259.912 44.5415 264.732 49.0615C291.062 73.8315 258.002 118.792 227.662 96.1416C205.552 79.6316 215.332 43.6316 242.172 40.5216ZM238.042 44.5815C219.782 50.0515 223.742 116.952 254.512 97.0316C266.472 89.2916 268.262 35.5315 238.042 44.5815Z" fill="#D4DEE8"/>
<path d="M86.673 116.152L80.543 121.242V173.062L86.813 175.252L85.673 190.182L84.393 178.452C81.443 173.762 42.643 180.612 34.673 178.152V190.162C29.713 189.862 31.5129 178.642 32.6329 175.512C33.5029 173.072 37.913 174.442 39.693 172.222C41.643 169.782 46.5629 121.992 44.7029 120.152H34.693C34.543 118.852 37.353 116.162 37.693 116.162H86.683L86.673 116.152ZM70.683 120.152H46.683C47.513 138.292 45.503 156.282 42.693 174.152H70.683V120.152Z" fill="#D4DEE8"/>
<path d="M296.623 120.152C292.653 120.152 289.493 121.692 290.633 116.162H312.603L306.483 121.242L306.603 144.162C317.753 142.292 336.793 146.652 336.013 160.852C334.963 179.822 304.183 178.582 290.623 178.142C289.483 172.612 292.643 174.152 296.613 174.152V120.152H296.623ZM306.623 174.152C331.793 177.252 329.563 144.152 306.623 146.152V174.152Z" fill="#D4DEE8"/>
<path d="M128.663 42.1516C127.183 41.6916 124.473 42.4616 122.663 42.1516C123.103 42.0716 123.933 40.3116 125.643 40.2816C127.353 40.2516 128.203 42.0716 128.663 42.1516Z" fill="#D4DEE8"/>
<path d="M122.662 42.1523C114.262 47.6123 111.362 53.9924 112.652 64.1624C117.272 63.2124 137.042 66.8023 138.442 60.9923C139.402 57.0423 133.372 43.6323 128.652 42.1523C143.152 44.4523 148.902 51.1523 150.642 66.1523H112.652C105.922 103.212 136.422 113.622 151.652 80.1624C153.702 91.7024 142.602 101.102 131.672 102.212C91.4924 106.322 90.4124 48.3023 122.642 42.1523H122.662Z" fill="#D4DEE8"/>
<path d="M214.643 42.1523V44.1323L206.643 44.1523V98.1523L213.633 100.162L190.653 100.132C189.893 96.3723 196.643 98.7523 196.643 98.1523V44.1523H172.653V83.1523C172.653 90.6123 167.322 103.752 157.712 102.252C145.212 100.302 158.103 78.4223 163.643 98.1423C170.683 94.7323 170.733 52.8723 170.663 44.1423L160.653 42.1523H214.643Z" fill="#D4DEE8"/>
<path d="M346.613 120.153L342.033 120.193L341.623 116.143L362.603 116.163C363.983 122.583 358.263 119.703 354.613 120.153V174.153L362.603 175.143C357.003 180.743 347.673 177.313 340.633 178.143C339.493 172.613 342.653 174.153 346.623 174.153V120.153H346.613Z" fill="#D4DEE8"/>
<path d="M318.613 70.1523H286.623V72.1523H318.613V70.1523Z" fill="#D4DEE8"/>
</svg>
