<svg width="417" height="101" viewBox="0 0 417 101" fill="none" xmlns="http://www.w3.org/2000/svg">
<path d="M328.413 22.1719L326.443 50.162C332.883 43.142 348.493 31.7619 344.413 22.1819H358.413C355.563 27.8719 348.863 31.122 345.513 36.292C338.353 47.352 355.973 60.9119 359.433 72.1819C363.333 73.3319 364.043 66.3319 364.933 63.7219C369.413 50.6019 373.823 35.872 376.483 22.262L394.393 22.1919C392.903 25.2919 392.573 26.702 393.163 30.162C395.503 44.032 405.193 75.562 410.293 89.272C411.883 93.552 413.893 96.492 416.393 100.152H390.403C401.273 88.552 384.033 69.0419 371.393 70.0919C364.553 70.6619 360.073 94.152 364.413 100.152H350.423L358.413 82.1819L346.523 82.0619L334.393 54.1819C321.893 55.7119 326.453 73.192 328.413 82.162H310.423C313.923 63.352 313.463 41.1219 310.423 22.1919H328.403L328.413 22.1719ZM390.393 72.142L379.413 36.162C376.533 39.742 368.793 64.532 370.393 66.152C378.363 65.002 383.463 70.282 390.393 72.142Z" fill="#D4DEE8"/>
<path d="M396.403 0.152344V8.15234H9.50269L6.5127 5.12231L9.50269 0.152344H396.403Z" fill="#D4DEE8"/>
<path d="M30.5029 22.172C28.1429 25.342 36.1029 49.732 37.5129 50.172C41.6529 51.442 40.1729 47.9121 41.0029 45.7621C43.8929 38.2821 46.8429 30.2921 46.5029 22.1621H72.4829C64.3429 33.1021 70.2329 45.572 70.5629 57.072C70.9829 71.432 67.8429 86.9521 74.4829 100.132H50.4929C55.7729 79.3121 51.7229 54.0721 51.4929 32.1321L34.4729 82.1521C29.3529 82.9521 31.3629 81.692 30.3029 79.342C26.4229 70.782 23.7529 58.8421 20.0029 49.6421C18.9029 46.9421 17.5629 40.6321 14.5129 40.1621C16.2029 59.4521 5.37288 82.5421 14.4929 100.132H0.492875C-0.147125 99.6721 3.3028 96.242 3.9128 94.582C7.2928 85.422 10.0729 50.7421 10.5629 39.2421C10.8129 33.4321 11.1829 27.552 8.48287 22.172H30.4829H30.5029Z" fill="#D4DEE8"/>
<path d="M338.423 92.1523V100.152H82.4928C81.6828 97.8323 83.3728 92.1523 85.4928 92.1523H338.433H338.423Z" fill="#D4DEE8"/>
<path d="M80.4832 22.1523H96.4732L95.5032 56.1722C97.6632 56.1322 114.343 36.7523 115.423 34.0623C117.343 29.3023 116.663 26.6422 114.473 22.1722H132.463C129.333 41.7622 129.333 62.5123 132.463 82.1423H114.473C113.483 81.4123 116.473 79.5823 116.473 79.1523V42.1523C105.483 53.6023 90.1332 65.0223 96.4832 82.1423H78.4832C77.4932 81.4123 80.4832 79.5823 80.4832 79.1523V22.1523Z" fill="#D4DEE8"/>
<path d="M286.432 42.1521C281.712 40.8921 283.053 43.382 281.863 44.712C272.613 55.072 258.662 67.8821 266.432 82.1321H248.442C251.662 63.0721 251.672 41.2721 248.442 22.1621H266.432C267.422 22.8821 264.432 24.7221 264.432 25.1521V56.1521C272.872 47.4321 290.242 35.0621 284.432 22.1621H302.422C299.112 40.7621 299.112 63.4621 302.422 82.1321H284.432C283.672 79.9821 286.422 77.7721 286.422 77.1521V42.1521H286.432Z" fill="#D4DEE8"/>
<path d="M208.453 28.1532C199.273 26.0332 195.993 34.4732 188.463 36.1332L193.683 22.0332H239.223L242.443 34.1432L224.453 26.1532V79.1532C224.453 79.6132 228.243 81.8232 225.443 82.1632L206.453 82.1332C205.463 81.4132 208.453 79.5832 208.453 79.1532V28.1532Z" fill="#D4DEE8"/>
<path d="M186.443 20.1621L184.443 36.1521L169.013 24.462C145.963 20.882 148.853 95.2621 179.173 75.8521L192.433 62.1621L186.693 80.9821C153.563 90.6821 136.403 78.0121 140.463 43.1521C143.733 15.0621 165.393 21.0121 186.443 20.1621Z" fill="#D4DEE8"/>
</svg>
