<svg width="700" height="400" viewBox="0 0 700 400" fill="none" xmlns="http://www.w3.org/2000/svg">
<path d="M162.945 171.928L182.985 121.948L216.945 191.918L201.235 191.658L176.995 143.938L155.005 193.918L131.965 143.918C127.815 143.048 129.205 145.598 128.095 147.938C121.975 160.848 118.145 175.158 111.885 187.908C110.475 190.768 112.335 192.928 107.005 191.918L135.015 121.938L162.955 171.928H162.945Z" fill="#D4DEE8"/>
<path d="M369.99 123.938V166.482L401.972 123.938C403.122 132.66 387.306 143.122 387.917 149.9L411.985 191.612C407.854 190.896 399.521 192.965 396.4 191.215C395.099 190.49 383.975 170.166 381.174 166.25C379.834 164.374 380.924 161.609 377.013 162.605C376.383 162.769 370.361 171.606 370.02 173.289C369.29 176.924 370.791 190.877 370 191.631H355.985V123.938H369.99Z" fill="#D4DEE8"/>
<path d="M216.545 124.358L238.975 163.918L259.265 124.268C284.555 119.328 294.315 141.718 274.945 157.898C298.165 168.328 282.425 198.038 258.955 191.918L274.775 186.768C291.565 177.428 281.095 154.718 262.945 157.918C267.825 151.158 274.405 156.468 279.805 147.728C287.495 135.288 275.595 124.008 262.265 125.798C251.495 146.028 243.525 168.168 231.915 187.988C230.395 190.588 232.265 193.038 226.945 191.918L232.145 177.888L198.965 124.928L216.545 124.358Z" fill="#D4DEE8"/>
<path d="M486.985 191.929L471.316 191.618L466.663 180.61L428.291 180.591L418.985 191.938L451.004 123.938L486.985 191.929ZM462.981 178.337C464.012 173.916 447.022 141.883 445.001 143.36L428.971 178.337H462.981Z" fill="#D4DEE8"/>
<path d="M292.935 123.929H306.945L307.025 145.849C335.625 144.529 339.685 188.709 311.985 191.979C305.975 192.689 299.095 191.419 292.945 191.939V123.939L292.935 123.929ZM306.925 189.929C334.275 190.399 334.075 147.279 306.925 149.929V189.929Z" fill="#D4DEE8"/>
<path d="M418.005 206.948L432.015 206.938L432.115 230.848L466.005 230.958L465.985 206.938L479.995 206.948V276.948H465.995V234.948H432.005V276.948H418.005V206.948Z" fill="#D4DEE8"/>
<path d="M487.005 206.938H501.015V230.928C548.915 234.838 528.945 286.238 487.005 276.938V206.938ZM501.005 272.938C522.025 276.428 535.005 248.198 515.745 237.198C512.325 235.248 503.335 231.598 501.005 235.938V272.938Z" fill="#D4DEE8"/>
<path d="M370.005 205.948L383.125 207.818L384.195 229.748C430.025 235.668 410.835 285.618 370.005 275.938V205.938V205.948ZM384.005 271.948C413.845 273.468 415.325 231.818 384.005 233.948V271.948Z" fill="#D4DEE8"/>
<path d="M328.955 206.2L362.975 276.18C357.555 275.7 350.185 277.99 345.955 274.23C341.225 270.01 324.565 226.88 321.965 226.19C317.955 225.12 319.125 228.04 318.095 230.21C311.495 244.15 305.775 258.92 297.975 272.25C296.455 274.85 298.325 277.3 293.005 276.18C304.295 254.21 313.545 231.01 324.815 209.04C325.885 206.96 323.765 205.27 328.965 206.2H328.955Z" fill="#D4DEE8"/>
<path d="M592.995 205.938C591.765 212.898 577.415 208.048 576.965 211.078L576.985 229.948L592.985 231.918L576.995 231.938V271.938L592.995 271.958C587.345 279.918 572.125 274.358 563.005 275.938V205.938H592.995Z" fill="#D4DEE8"/>
<path d="M556.005 205.938H542.005V275.938H556.005V205.938Z" fill="#D4DEE8"/>
<path d="M348.925 123.929H334.925V191.929H348.925V123.929Z" fill="#D4DEE8"/>
<path d="M512.302 156.216C515.552 158.686 512.262 159.836 509.352 160.206C502.832 161.036 495.042 159.616 488.332 160.196C485.082 157.726 488.372 156.576 491.282 156.206C497.802 155.376 505.592 156.796 512.302 156.216Z" fill="#D4DEE8"/>
</svg>
