<svg width="486" height="157" viewBox="0 0 486 157" fill="none" xmlns="http://www.w3.org/2000/svg">
<path d="M55.9399 49.99L75.98 0.0098877L109.94 69.98L94.23 69.72L69.99 22L48 71.98L24.96 21.98C20.81 21.11 22.1998 23.66 21.0898 26C14.9698 38.91 11.1399 53.22 4.87988 65.97C3.46988 68.83 5.33 70.99 0 69.98L28.01 0L55.95 49.99H55.9399Z" fill="#D4DEE8"/>
<path d="M262.985 2V44.5435L294.967 2C296.117 10.7214 280.302 21.1832 280.912 27.9612L304.98 69.6731C300.849 68.9576 292.516 71.0267 289.395 69.2766C288.094 68.5515 276.97 48.2274 274.169 44.3114C272.829 42.4356 273.919 39.6703 270.008 40.6662C269.378 40.8306 263.356 49.6679 263.016 51.3503C262.285 54.9859 263.786 68.9383 262.995 69.6925H248.98V2H262.985Z" fill="#D4DEE8"/>
<path d="M109.54 2.41955L131.97 41.9796L152.26 2.32959C177.55 -2.61041 187.31 19.7796 167.94 35.9596C191.16 46.3896 175.42 76.0996 151.95 69.9796L167.77 64.8296C184.56 55.4896 174.09 32.7796 155.94 35.9796C160.82 29.2196 167.4 34.5295 172.8 25.7895C180.49 13.3495 168.59 2.06962 155.26 3.85962C144.49 24.0896 136.52 46.2296 124.91 66.0496C123.39 68.6496 125.26 71.0996 119.94 69.9796L125.14 55.9496L91.96 2.98962L109.54 2.41955Z" fill="#D4DEE8"/>
<path d="M379.98 69.9903L364.311 69.6793L359.658 58.6715L321.286 58.652L311.98 70L343.999 2L379.98 69.9903ZM355.976 56.3981C357.007 51.9774 340.017 19.9448 337.996 21.4216L321.966 56.3981H355.976Z" fill="#D4DEE8"/>
<path d="M185.93 1.99023H199.94L200.02 23.9102C228.62 22.5902 232.68 66.7702 204.98 70.0402C198.97 70.7502 192.09 69.4802 185.94 70.0002V2.00024L185.93 1.99023ZM199.92 67.9902C227.27 68.4602 227.07 25.3402 199.92 27.9902V67.9902Z" fill="#D4DEE8"/>
<path d="M311 85.01L325.01 85L325.11 108.91L359 109.02L358.98 85L372.99 85.01V155.01H358.99V113.01H325V155.01H311V85.01Z" fill="#D4DEE8"/>
<path d="M380 85H394.01V108.99C441.91 112.9 421.94 164.3 380 155V85ZM394 151C415.02 154.49 428 126.26 408.74 115.26C405.32 113.31 396.33 109.66 394 114V151Z" fill="#D4DEE8"/>
<path d="M263 84.01L276.12 85.88L277.19 107.81C323.02 113.73 303.83 163.68 263 154V84V84.01ZM277 150.01C306.84 151.53 308.32 109.88 277 112.01V150.01Z" fill="#D4DEE8"/>
<path d="M221.95 84.2617L255.97 154.242C250.55 153.762 243.18 156.052 238.95 152.292C234.22 148.072 217.56 104.942 214.96 104.252C210.95 103.182 212.12 106.102 211.09 108.272C204.49 122.212 198.77 136.982 190.97 150.312C189.45 152.912 191.32 155.362 186 154.242C197.29 132.272 206.54 109.072 217.81 87.1017C218.88 85.0217 216.76 83.3317 221.96 84.2617H221.95Z" fill="#D4DEE8"/>
<path d="M485.99 84C484.76 90.96 470.41 86.11 469.96 89.14L469.98 108.01L485.98 109.98L469.99 110V150L485.99 150.02C480.34 157.98 465.12 152.42 456 154V84H485.99Z" fill="#D4DEE8"/>
<path d="M449 84H435V154H449V84Z" fill="#D4DEE8"/>
<path d="M241.92 1.99023H227.92V69.9902H241.92V1.99023Z" fill="#D4DEE8"/>
<path d="M405.297 34.2776C408.547 36.7476 405.257 37.8976 402.347 38.2676C395.827 39.0976 388.037 37.6776 381.327 38.2576C378.077 35.7876 381.367 34.6376 384.277 34.2676C390.797 33.4376 398.587 34.8576 405.297 34.2776Z" fill="#D4DEE8"/>
</svg>
