<svg width="700" height="400" viewBox="0 0 700 400" fill="none" xmlns="http://www.w3.org/2000/svg">
<path d="M306.661 161.327L304.994 92.9719H356.661V162.161C356.661 162.669 354.552 163.436 354.994 164.662H380.827L383.328 167.163V234.684L379.993 234.668C379.201 234.009 381.661 232.559 381.661 232.184V166.329H333.32V172.998H379.993V193.013H373.333L371.766 180.392L351.626 180.625L351.659 193.013C358.72 193.988 358.903 191.937 360.921 186.235L366.647 186.335C366.247 190.92 367.256 196.147 366.739 200.607C366.297 204.466 363.063 209.109 360.004 206.359C359.178 205.617 360.987 197.164 351.659 199.681L351.643 214.703L369.99 213.869C374.383 211.727 373.333 205.408 373.325 201.349H379.977V221.363H333.303L334.971 234.684L331.636 234.701V165.512C331.636 165.162 334.129 163.611 333.303 163.028H326.635C326.459 164.745 329.969 166.471 329.969 167.179V232.2L321.641 234.684V233.05L328.302 233.034V166.346H280.795L278.294 168.846V230.533C278.294 231.1 282.52 233.842 281.628 234.684C277.927 235.335 278.294 234.409 277.469 231.442C275.218 223.372 275.543 182.001 276.593 172.139C276.993 168.338 278.161 166.171 279.969 163.011H243.299V161.344H301.635V94.6558H253.294V92.9886H300.801L303.302 95.4894V160.51C303.302 161.219 299.793 162.944 299.968 164.662H308.304C308.97 164.237 306.745 162.236 306.636 161.344H354.977V94.6558H306.636L306.653 101.325C307.237 102.158 308.779 99.6574 309.137 99.6574H353.31V119.656L347.433 118.047C349.158 103.35 336.596 104.726 325.701 107.885L324.967 119.672H333.32V112.987H339.972L340.006 132.051L333.32 133.027V126.333H324.976L325.709 139.787L327.71 141.112L346.424 139.454L347.433 129.625L353.301 128.017V148.015H309.137C308.779 148.015 307.253 145.522 306.653 146.347C307.028 151.174 306.078 156.651 306.636 161.352L306.661 161.327ZM306.661 141.321L314.756 138.587L313.43 107.043L306.653 106.318V141.329L306.661 141.321ZM339.997 179.667H333.328V214.678H339.997V179.667Z" fill="#D4DEE8"/>
<path d="M299.992 99.6406L300.009 106.301H293.315L294.074 139.779L300.109 142.329L299.984 159.652L294.149 158.001L290.998 147.815C278.794 146.748 247.125 139.303 251.652 159.668H245L245.2 142.363C246.45 138.778 251.743 140.829 254.844 137.003C259.529 131.218 268.215 100.466 251.66 106.293V99.6406H300.001H299.992ZM281.661 106.309L267.39 107.868C266.706 118.664 265.998 128.742 261.638 138.795L281.661 139.654V106.309Z" fill="#D4DEE8"/>
<path d="M431.668 243.02L431.393 249.447C422.607 249.714 425.133 256.425 424.991 263.035C437.061 260.493 461.461 267.628 451.775 283.975C450.474 286.159 441.088 291.369 439.17 291.369H406.668L406.652 284.709H413.345L412.587 251.231L406.56 248.764L406.668 243.02H431.668ZM424.999 284.709C435.136 285.859 445.906 284.55 440.162 272.03L424.999 269.687V284.709Z" fill="#D4DEE8"/>
<path d="M273.325 243.02V263.035H266.665C268.89 253.224 261.73 244.529 253.56 252.432C253.752 261.184 252.177 271.655 253.769 280.157C254.677 284.992 255.503 285.326 260.588 284.692C267.59 296.212 227.052 292.52 234.971 284.709L243.099 281.974L243.082 252.432C234.913 244.529 227.752 253.224 229.978 263.035H223.326C224.159 256.6 220.941 247.855 225.818 243.02H273.325Z" fill="#D4DEE8"/>
<path d="M326.668 172.998V191.345H320.008L318.441 180.392L310.005 179.658V213.002H316.682L316.665 219.671H291.666L291.649 213.011H298.326V179.658C289.131 178.475 285.572 182.226 286.631 191.329H280.003V172.99H326.677L326.668 172.998Z" fill="#D4DEE8"/>
<path d="M341.664 238.018C320.582 237.785 299.401 238.335 278.327 238.018L280.745 236.31C288.522 236.36 296.3 236.41 304.077 236.276C309.737 236.176 310.071 236.043 315.889 236.268C321.766 236.493 338.58 234.909 341.673 238.027L341.664 238.018Z" fill="#D4DEE8"/>
<path d="M278.327 238.018V304.707C271.842 304.548 276.485 306.024 272.617 306.524C264.548 307.558 249.518 306.741 240.815 306.374C238.764 306.29 234.621 307.641 234.996 304.707H272.5L275.001 302.206V238.018H221.667V303.873L222.517 306.34C221.917 305.557 220 304.315 220 303.873V238.852C221.459 236.476 223.326 236.551 225.752 236.268C242.916 234.251 261.463 237.768 278.344 238.018H278.327Z" fill="#D4DEE8"/>
<path d="M341.664 238.019C346.099 242.487 341.756 296.412 343.34 306.382L278.327 304.707C299.392 305.224 320.599 304.323 341.673 304.715V238.019H341.664Z" fill="#D4DEE8"/>
<path d="M400 303.039C399.841 304.248 400.817 306.59 399.008 306.407C383.628 305.04 365.689 308.116 350.659 306.465C348.333 306.207 348.292 306.332 346.666 304.706C361.954 304.94 377.318 304.365 392.623 304.781C395.549 304.865 399.333 302.989 400.008 303.039H400Z" fill="#D4DEE8"/>
<path d="M440.004 233.017L441.671 231.35C441.379 231.858 440.512 232.734 440.004 233.017Z" fill="#D4DEE8"/>
<path d="M346.666 238.019C348.292 236.393 348.333 236.518 350.659 236.26C362.163 234.985 383.911 235.56 395.865 236.352C399.225 236.577 400.658 235.026 400 239.686L346.666 238.019Z" fill="#D4DEE8"/>
<path d="M441.672 166.33H386.671C388.28 164.704 388.338 164.813 390.664 164.571C401.976 163.412 424.466 163.637 435.987 164.571C438.696 164.788 439.455 164.121 441.672 166.338V166.33Z" fill="#D4DEE8"/>
<path d="M441.671 231.35V166.329C443.297 167.954 443.172 167.996 443.43 170.322C444.873 183.501 444.589 212.21 443.447 225.681C443.164 229.008 443.147 228.732 441.671 231.35Z" fill="#D4DEE8"/>
<path d="M386.67 166.329V233.025L440.004 233.017C435.786 235.368 433.294 234.934 428.342 234.701V236.351H480V303.873C480 304.057 477.566 307.199 476.708 305.557L478.333 291.369H453.333L453.225 285.626L459.252 283.158L459.802 252.39L453.609 249.456L453.333 243.029H478.333V238.027H403.326V304.715H448.332C448.707 307.649 444.564 306.299 442.513 306.382C431.276 306.849 418.672 306.791 407.402 306.474C403.534 306.366 401.075 303.14 399.991 303.056C401.425 291.894 399.833 279.849 399.908 268.945C399.95 263.327 398.866 242.82 399.991 239.703C400.183 239.177 405.151 236.985 404.993 234.718H384.986C386.57 224.739 382.227 170.814 386.662 166.346L386.67 166.329ZM478.342 249.689C476.408 249.014 471.673 250.423 471.673 252.19V284.7H478.342V249.689Z" fill="#D4DEE8"/>
<path d="M346.666 304.706C344.448 302.489 345.115 301.731 344.899 299.021C343.773 284.967 343.382 255.691 344.899 242.02C345.157 239.694 345.032 239.652 346.657 238.027V304.715L346.666 304.706Z" fill="#D4DEE8"/>
<path d="M241.657 95.4722L246.65 92.988L243.324 94.6386V159.66H241.657V95.4722Z" fill="#D4DEE8"/>
<path d="M348.325 233.033H340.005V234.667H348.325V233.033Z" fill="#D4DEE8"/>
<path d="M413.337 172.998L413.354 179.658H406.66L406.693 193.004L421.673 180.492L418.339 178.6V173.006H438.353L438.22 179.542C433.11 178.166 419.839 187.736 420.239 191.879C420.481 194.396 433.96 216.587 439.721 214.928L440.004 221.347H415.004C412.503 215.695 418.622 214.728 418.405 212.336C418.039 208.301 413.896 202.441 410.811 199.681C405.043 198.506 406.752 211.427 406.652 214.686H413.345L413.329 221.347H388.329L388.221 215.603L394.248 213.136L394.798 182.367L388.604 179.433L388.329 173.006H413.329L413.337 172.998Z" fill="#D4DEE8"/>
<path d="M304.161 243.02L306.653 247.163C293.933 251.365 299.193 260.459 298.342 271.363L321.625 252.19L315.273 249.439L314.989 243.02H339.989L340.006 249.681L333.295 250.648L333.312 284.709H340.006L339.989 291.369H314.989L314.973 284.709H321.667L320.8 263.01L298.317 280.549L306.645 287.218L304.153 291.361H279.986L279.97 284.7L286.68 283.734L286.664 249.672H279.97L279.986 243.012H304.153L304.161 243.02Z" fill="#D4DEE8"/>
<path d="M380.835 243.021C393.631 244.821 405.059 257.542 390.013 265.52C404.417 270.38 397.215 291.37 385.836 291.37H348.333L348.316 284.709L355.026 283.742L355.01 249.681H348.316L348.333 243.021C358.503 244.038 371.007 241.637 380.835 243.021ZM366.664 263.036C375.083 263.269 387.829 265.103 384.219 253.016C373.899 245.28 363.429 248.623 366.664 263.036ZM366.664 269.696L368.231 283.976C376.025 285.743 387.887 286.668 386.762 275.59C385.553 267.812 372.315 269.83 366.664 269.696Z" fill="#D4DEE8"/>
</svg>
