<svg width="700" height="400" viewBox="0 0 700 400" fill="none" xmlns="http://www.w3.org/2000/svg">
<path d="M180.94 105.755L168.94 105.735C174.05 96.9748 186.42 105.305 194.73 103.965L217.93 175.775L240.69 104.935L262.9 101.765C264.27 108.185 258.56 105.305 254.91 105.755V199.755L262.9 199.775V201.755H232.92V199.775L242.92 199.755V111.755L213.91 197.765L210.01 193.765L182.94 111.755V199.755C186.57 200.525 194.43 196.795 192.93 203.745C185.17 200.435 173.12 207.525 168.95 199.775L180.95 199.755V105.755H180.94Z" fill="#D4DEE8"/>
<path d="M388.889 221.756C388.669 221.386 382.889 223.356 384.899 217.766C389.289 218.356 397.489 216.316 400.969 218.676C402.709 219.856 413.989 249.596 416.699 254.926C417.499 256.496 417.299 261.066 420.849 257.756C424.399 254.446 431.16 224.496 435.82 219.706C439.44 215.986 447.839 218.296 452.869 217.776L446.749 222.856V274.676L452.869 277.756L430.899 279.766L436.889 275.776V225.776L415.869 273.786L411.999 269.766L392.899 225.776V275.776L400.899 275.796C400.56 278.476 398.16 279.326 395.81 279.716C390.82 280.526 368.34 279.536 364.93 276.656C363.64 275.566 363.1 273.496 362.82 271.836H359.979C349.819 285.376 323.47 282.446 324.81 262.816C325.91 246.626 348.4 245.376 360.92 245.786C361.38 231.276 363.789 217.846 344.359 222.226C329.959 225.466 344.199 235.816 338.839 239.706C329.179 246.716 322.039 224.336 340.329 220.206C388.449 209.336 362.969 260.426 371.849 273.836C375.849 279.876 380.73 270.866 384.91 271.806L388.899 275.786V221.786L388.889 221.756ZM360.899 249.756C320.059 241.706 335.67 294.726 356.94 270.806C362.33 264.746 360.879 257.286 360.899 249.756Z" fill="#D4DEE8"/>
<path d="M264.919 221.756C260.949 221.756 257.789 223.296 258.929 217.766L274.929 217.746L275.909 227.746C285.999 214.826 305.189 215.706 314.619 229.036C334.729 257.466 302.929 299.686 274.939 269.756L274.899 293.766L282.909 294.746C277.429 299.556 264.269 299.496 258.939 294.746L264.929 293.756V221.756H264.919ZM288.339 222.196C270.429 226.296 269.849 264.316 283.899 273.766C310.179 291.456 312.779 245.566 305.899 229.776C302.229 221.366 297.349 220.126 288.349 222.196H288.339Z" fill="#D4DEE8"/>
<path d="M410.419 142.125C416.979 141.365 428.159 146.145 432.979 150.665C459.309 175.435 426.249 220.395 395.909 197.745C373.799 181.235 383.579 145.235 410.419 142.125ZM406.289 146.185C388.029 151.655 391.989 218.555 422.759 198.635C434.719 190.895 436.509 137.135 406.289 146.185Z" fill="#D4DEE8"/>
<path d="M254.92 217.755L248.79 222.845V274.665L255.06 276.855L253.92 291.785L252.64 280.055C249.69 275.365 210.89 282.215 202.92 279.755V291.765C197.96 291.465 199.76 280.245 200.88 277.115C201.75 274.675 206.16 276.045 207.94 273.825C209.89 271.385 214.809 223.595 212.949 221.755H202.94C202.79 220.455 205.6 217.765 205.94 217.765H254.93L254.92 217.755ZM238.93 221.755H214.93C215.76 239.895 213.75 257.885 210.94 275.755H238.93V221.755Z" fill="#D4DEE8"/>
<path d="M464.87 221.755C460.9 221.755 457.74 223.295 458.88 217.765H480.85L474.73 222.845L474.85 245.765C486 243.895 505.04 248.255 504.26 262.455C503.21 281.425 472.43 280.185 458.87 279.745C457.73 274.215 460.89 275.755 464.86 275.755V221.755H464.87ZM474.87 275.755C500.04 278.855 497.81 245.755 474.87 247.755V275.755Z" fill="#D4DEE8"/>
<path d="M296.91 143.755C295.43 143.295 292.72 144.065 290.91 143.755C291.35 143.675 292.18 141.915 293.89 141.885C295.6 141.855 296.45 143.675 296.91 143.755Z" fill="#D4DEE8"/>
<path d="M290.909 143.755C282.509 149.215 279.609 155.595 280.899 165.765C285.519 164.815 305.289 168.405 306.689 162.595C307.649 158.645 301.619 145.235 296.899 143.755C311.399 146.055 317.149 152.755 318.889 167.755H280.899C274.169 204.815 304.669 215.225 319.899 181.765C321.949 193.305 310.849 202.705 299.919 203.815C259.739 207.925 258.659 149.905 290.889 143.755H290.909Z" fill="#D4DEE8"/>
<path d="M382.889 143.755V145.735L374.889 145.755V199.755L381.879 201.765L358.899 201.735C358.139 197.975 364.889 200.355 364.889 199.755V145.755H340.899V184.755C340.899 192.215 335.569 205.355 325.959 203.855C313.459 201.905 326.349 180.025 331.889 199.745C338.929 196.335 338.979 154.475 338.909 145.745L328.899 143.755H382.889Z" fill="#D4DEE8"/>
<path d="M514.86 221.756L510.28 221.796L509.87 217.746L530.85 217.766C532.23 224.186 526.51 221.306 522.86 221.756V275.756L530.85 276.746C525.25 282.346 515.92 278.916 508.88 279.746C507.74 274.216 510.9 275.756 514.87 275.756V221.756H514.86Z" fill="#D4DEE8"/>
<path d="M486.86 171.755H454.87V173.755H486.86V171.755Z" fill="#D4DEE8"/>
</svg>
