<svg width="700" height="400" viewBox="0 0 700 400" fill="none" xmlns="http://www.w3.org/2000/svg">
<path d="M185.04 186.99L342.99 122L342.01 130.01L197.04 189.99V271.99H501.96L504.96 268.99V192.99L388.17 144.22L387.01 131.99L514.96 186.99V281.99H188.04L185.04 278.99V186.99Z" fill="#D4DEE8"/>
<path d="M311.01 155.99V261.99H301.01V201.99L294.979 234.47L288.189 238.08L279.02 203.99V261.99H271.02V169.99L281 167.98L290.99 219.98L300.34 160.45L311.01 155.99Z" fill="#D4DEE8"/>
<path d="M359 203.99L369.01 147.98C371.24 147.18 377 148.85 377 150.99V261.99H369V191.99C366.04 193.22 365.86 202.02 365.32 205.32C362.28 224.16 360.2 243.21 356.95 261.99H351V140C353.32 139.19 359 140.88 359 143V204V203.99Z" fill="#D4DEE8"/>
<path d="M386.989 153.99L395.069 157.36L394.909 202.65L404.989 205.99V161.99L412.979 163.99V261.99H404.989V215.99L394.989 213.99V261.99H386.989V153.99Z" fill="#D4DEE8"/>
<path d="M319.01 152.99L342.99 142L342.66 153.66L329.01 157.99V197.99L338.99 196C338.76 198.29 339.44 200.93 339.13 203.06C338.38 208.09 333.51 207.33 329.01 208V252H341.02V262.01H319.02V153L319.01 152.99Z" fill="#D4DEE8"/>
<path d="M422.98 169.99L429.09 170.88L431.17 203.8C452.63 203.5 450.48 229.77 449.07 245.09C447.37 263.64 439.92 262.67 422.97 261.99V169.99H422.98ZM430.98 213.99V251.99L439.18 250.82C442.1 246.76 445.32 209.59 430.98 213.99Z" fill="#D4DEE8"/>
<path d="M232.71 209.671L225.04 211.981L222.04 200.041C219.91 201.931 216.36 202.261 215.35 205.311C214.34 208.361 214.36 247.461 215.35 250.671C216.28 253.671 219.21 254.861 222 253.981C228.28 251.991 219.84 238.171 232 237.981C242.13 263.671 207.92 273.651 204.97 247.041C202.81 227.581 200.72 190.991 227.62 190.291C234.6 191.991 233.55 203.961 232.7 209.671H232.71Z" fill="#D4DEE8"/>
<path d="M241.03 184.99L263 173.99L262.74 185.71L248.93 191.3L249.03 213.97L259 211.99C258.73 214.27 259.49 217.02 259.13 219.08C258.28 223.97 253.77 222.43 249.01 223.98V253.98H263.02V261.97H241.02V184.98L241.03 184.99Z" fill="#D4DEE8"/>
<path d="M472.97 189.991C480.15 192.541 499.97 195.591 493.93 206.021L482.97 204.001L482.84 222.861C483.18 224.821 497.66 223.001 491.94 232.001L482.95 231.981L484.83 253.121L494.97 254.01V261.981H472.97V189.981V189.991Z" fill="#D4DEE8"/>
<path d="M464.97 261.991H454.97V184.991L457.96 182.041C459.33 183.371 464.97 185.721 464.97 186.991V261.991Z" fill="#D4DEE8"/>
<path d="M376.659 128.32L376.979 137.99C366.919 134.73 347.309 132.34 351.009 118.01L376.659 128.32Z" fill="#D4DEE8"/>
</svg>
