<svg width="700" height="400" viewBox="0 0 700 400" fill="none" xmlns="http://www.w3.org/2000/svg">
<path d="M313.009 200.12C256.779 197.42 265.96 115.25 321.12 127.01C349.88 133.15 356.799 176.82 332.489 192.6L319.019 200.1H343.009L343.999 226.14L357.999 200.12H386.989V270.12H356.999C356.839 263.81 357.229 257.42 356.999 251.1C356.909 248.68 358.499 243.66 355.029 244.14L343.029 269.15L311.029 268.13L311.009 286.13H283.019V270.12H259.019L259.039 286.14L229.909 284.26C228.289 281.94 228.379 254.12 229.939 251.99C231.499 249.86 235.93 251.3 237.07 248.73C240.82 240.31 239.289 201.85 241.019 200.13H303.009V250.14C307.189 249.93 311.909 248.63 311.039 254.12L313.009 254.14V200.14V200.12ZM314.999 158.13C312.079 157.99 309.689 157.51 307.969 160.07L307.029 166.11H315.009V158.13H314.999ZM271.019 222.12H263.029C264.639 230.75 261.509 239.21 260.989 247.13C260.619 252.83 267.279 249.28 271.019 250.12V222.12Z" fill="#D4DEE8"/>
<path d="M438.97 128.121V195.121C431.94 201.061 419.26 197.301 410.26 197.841C404.14 195.841 408.02 179.541 406.96 174.121L393.98 190.081L381 174.121L380.98 198.121H350.99V128.121L379 129.101L393.98 148.081L409.98 128.121H438.97Z" fill="#D4DEE8"/>
<path d="M422.98 200.121L423.98 226.141L434.98 200.121H466.97V270.121H436.98V242.121L422.98 270.121H390.99V200.121H422.98Z" fill="#D4DEE8"/>
<path d="M233.03 128.121V156.121C248.69 157.921 245.89 138.781 249.03 128.121H279.02C279.36 141.481 273.15 154.411 263.06 163.121C273.33 172.191 279.66 184.071 279.02 198.121H249.03C246.18 187.851 247.84 170.231 233.03 170.121V198.121H203.04V128.121H233.03Z" fill="#D4DEE8"/>
<path d="M496.96 128.121V146.131H472.96V154.111H490.97V172.131C488.77 174.331 470.02 167.281 472.95 177.111L495.08 178.991L496.95 198.121H443.96L440.96 195.121V128.121H496.95H496.96Z" fill="#D4DEE8"/>
</svg>
