<svg width="700" height="400" viewBox="0 0 700 400" fill="none" xmlns="http://www.w3.org/2000/svg">
<path d="M177.868 104.847V150.847L183.857 145.837L184.738 106.717L205.847 104.867C206.707 108.157 202.378 105.777 201.808 108.137C199.598 117.277 203.847 133.227 201.447 143.437C200.557 147.227 196.477 150.167 196.147 152.207C195.757 154.647 200.928 159.037 201.748 163.957C204.348 179.617 198.477 199.447 203.847 214.837L183.857 214.857V156.857H177.857V214.857L157.868 214.837C156.998 214.207 161.038 211.197 161.428 209.417C164.068 197.297 163.758 127.627 161.988 113.747C161.428 109.397 159.948 108.217 157.878 104.887L177.868 104.867V104.847Z" fill="#D4DEE8"/>
<path d="M317.828 148.847L320.828 194.867L325.818 148.837H347.818V209.847C347.818 210.697 352.028 212.767 351.818 214.827L333.828 214.847V166.847C331.118 167.867 330.378 177.277 330.068 180.087C329.638 183.957 328.458 214.617 326.688 214.877L313.818 214.857L311.818 181.857L307.828 166.847V214.847H293.828V153.847C293.828 152.997 289.608 150.927 289.828 148.847H317.818H317.828Z" fill="#D4DEE8"/>
<path d="M221.847 260.847L203.857 260.827C205.927 257.497 207.417 256.317 207.967 251.967C211.087 227.607 208.617 183.847 207.967 157.737C207.887 154.337 207.327 151.867 205.857 148.867L221.747 149.007L221.877 154.847C222.587 155.757 235.597 140.137 242.017 150.177C244.967 154.797 244.967 204.837 242.387 210.357C238.367 218.947 228.937 213.117 221.867 212.827V260.827L221.847 260.847ZM221.847 162.847V197.847C221.847 198.917 226.217 201.977 227.827 200.837C230.067 194.777 231.807 166.537 227.957 163.737L221.847 162.847Z" fill="#D4DEE8"/>
<path d="M247.847 220.866C244.847 228.266 245.427 237.816 245.827 245.906C246.037 250.036 246.987 249.536 250.837 248.856C252.707 248.526 252.657 224.246 249.847 220.866H269.837C266.527 241.556 266.527 266.206 269.837 286.826H249.847C252.657 283.446 252.707 259.166 250.837 258.836C246.997 258.156 246.037 257.656 245.827 261.786C245.417 269.876 244.837 279.426 247.847 286.826H227.857C231.167 266.136 231.167 241.486 227.857 220.866H247.847Z" fill="#D4DEE8"/>
<path d="M349.818 220.847V286.847H333.818V230.847C330.158 231.587 330.088 234.767 329.748 237.777C328.088 252.397 330.188 270.307 327.418 285.447C323.378 292.267 318.138 296.357 309.828 294.837C316.608 283.977 313.258 270.237 313.848 257.877C314.398 246.207 320.208 231.217 311.828 220.857H349.818V220.847Z" fill="#D4DEE8"/>
<path d="M413.808 220.847V248.847H419.798L417.808 220.867H437.798C438.668 221.497 434.628 224.507 434.238 226.287C432.528 234.137 432.568 269.277 433.678 277.957C434.238 282.307 435.718 283.487 437.788 286.817H417.798L419.788 258.827H413.798V286.837L395.808 286.817C399.118 266.127 399.118 241.477 395.808 220.857L413.798 220.837L413.808 220.847Z" fill="#D4DEE8"/>
<path d="M369.818 148.847V195.847L375.818 198.847V148.847H391.818V211.847C391.818 212.277 394.808 214.107 393.818 214.827L378.908 214.977L377.788 210.347C375.068 203.917 373.088 213.097 371.928 213.847C367.408 216.797 357.918 215.177 356.228 209.437C351.418 193.077 361.978 164.407 351.828 148.857L369.818 148.837V148.847Z" fill="#D4DEE8"/>
<path d="M265.837 148.847V198.847L271.837 195.847V148.847H285.837V214.847L271.947 214.687L271.817 208.847C266.237 213.917 259.947 218.167 252.817 212.867C244.987 203.747 254.037 161.577 247.837 148.877L265.827 148.857L265.837 148.847Z" fill="#D4DEE8"/>
<path d="M305.358 223.326C312.628 230.606 302.588 275.356 311.828 286.836C305.758 285.846 296.808 290.256 294.848 282.856C271.998 301.426 264.348 258.396 278.768 246.786C283.418 243.036 290.118 243.236 293.788 237.846C291.268 234.156 288.858 234.696 284.978 234.946C276.908 235.476 279.998 241.136 273.838 240.836C266.348 221.636 296.858 214.816 305.348 223.316L305.358 223.326ZM293.828 254.856L288.188 258.186L287.848 272.856H293.828V254.856Z" fill="#D4DEE8"/>
<path d="M537.797 264.867C541.347 265.187 540.107 275.718 539.717 277.808C537.327 290.558 510.897 290.048 506.827 280.808C504.307 275.088 504.517 225.608 509.107 222.698C512.887 220.308 528.167 220.028 532.727 220.898C545.747 223.398 544.117 252.097 535.657 259.747C532.217 262.857 520.427 265.197 519.777 267.887C517.917 275.607 538.427 274.167 537.787 264.877L537.797 264.867ZM525.767 234.838H519.787V252.838L525.427 249.507L525.767 234.838Z" fill="#D4DEE8"/>
<path d="M441.797 223.847C441.717 223.277 438.787 221.597 439.797 220.867L457.808 220.837V238.847C462.118 233.297 477.788 236.387 477.788 241.847V281.847C477.788 286.917 461.578 289.667 458.778 282.857C456.828 290.257 447.877 285.837 441.797 286.847C439.867 267.207 444.407 242.867 441.797 223.847ZM457.797 274.837C467.577 275.857 464.598 249.657 460.758 248.857C451.118 251.147 460.777 267.007 457.797 274.837Z" fill="#D4DEE8"/>
<path d="M355.818 223.847C355.738 223.277 352.808 221.597 353.818 220.867L369.827 220.837V238.837C400.097 223.037 393.208 268.407 388.868 284.897C381.338 292.297 370.668 282.267 369.868 282.887C369.698 283.017 370.397 286.377 368.527 286.877C365.027 287.817 359.718 286.287 355.818 286.857C353.888 267.217 358.428 242.877 355.818 223.857V223.847ZM375.787 274.847L377.488 252.167L375.917 249.737L369.818 248.857C369.568 252.437 368.067 280.417 375.787 274.837V274.847Z" fill="#D4DEE8"/>
<path d="M501.778 220.866L499.598 281.996L503.768 286.826H481.788C485.098 266.206 485.098 241.556 481.788 220.866H501.778Z" fill="#D4DEE8"/>
<path d="M431.798 172.847H397.808V186.847H431.798V172.847Z" fill="#D4DEE8"/>
</svg>
