<svg width="700" height="400" viewBox="0 0 700 400" fill="none" xmlns="http://www.w3.org/2000/svg">
<path d="M470.01 172.02L468.04 200.01C474.48 192.99 490.09 181.61 486.01 172.03H500.01C497.16 177.72 490.46 180.97 487.11 186.14C479.95 197.2 497.57 210.76 501.03 222.03C504.93 223.18 505.64 216.18 506.53 213.57C511.01 200.45 515.42 185.72 518.08 172.11L535.99 172.04C534.5 175.14 534.17 176.55 534.76 180.01C537.1 193.88 546.79 225.41 551.89 239.12C553.48 243.4 555.49 246.34 557.99 250H532C542.87 238.4 525.63 218.89 512.99 219.94C506.15 220.51 501.67 244 506.01 250H492.02L500.01 232.03L488.12 231.91L475.99 204.03C463.49 205.56 468.05 223.04 470.01 232.01H452.02C455.52 213.2 455.06 190.97 452.02 172.04H470L470.01 172.02ZM531.99 221.99L521.01 186.01C518.13 189.59 510.39 214.38 511.99 216C519.96 214.85 525.06 220.13 531.99 221.99Z" fill="#D4DEE8"/>
<path d="M537.999 150V158H151.099L148.109 154.97L151.099 150H537.999Z" fill="#D4DEE8"/>
<path d="M172.1 172.02C169.74 175.19 177.7 199.58 179.11 200.02C183.25 201.29 181.77 197.76 182.6 195.61C185.49 188.13 188.44 180.14 188.1 172.01H214.08C205.94 182.95 211.83 195.42 212.16 206.92C212.58 221.28 209.44 236.8 216.08 249.98H192.09C197.37 229.16 193.32 203.92 193.09 181.98L176.07 232C170.95 232.8 172.96 231.54 171.9 229.19C168.02 220.63 165.35 208.69 161.6 199.49C160.5 196.79 159.16 190.48 156.11 190.01C157.8 209.3 146.97 232.39 156.09 249.98H142.09C141.45 249.52 144.899 246.09 145.509 244.43C148.889 235.27 151.67 200.59 152.16 189.09C152.41 183.28 152.78 177.4 150.08 172.02H172.08H172.1Z" fill="#D4DEE8"/>
<path d="M480.019 242V250H224.089C223.279 247.68 224.969 242 227.089 242H480.029H480.019Z" fill="#D4DEE8"/>
<path d="M222.08 172H238.07L237.1 206.02C239.26 205.98 255.94 186.6 257.02 183.91C258.94 179.15 258.26 176.49 256.07 172.02H274.06C270.93 191.61 270.93 212.36 274.06 231.99H256.07C255.08 231.26 258.07 229.43 258.07 229V192C247.08 203.45 231.73 214.87 238.08 231.99H220.08C219.09 231.26 222.08 229.43 222.08 229V172Z" fill="#D4DEE8"/>
<path d="M428.029 192C423.309 190.74 424.649 193.23 423.459 194.56C414.209 204.92 400.259 217.73 408.029 231.98H390.039C393.259 212.92 393.269 191.12 390.039 172.01H408.029C409.019 172.73 406.029 174.57 406.029 175V206C414.469 197.28 431.839 184.91 426.029 172.01H444.019C440.709 190.61 440.709 213.31 444.019 231.98H426.029C425.269 229.83 428.019 227.62 428.019 227V192H428.029Z" fill="#D4DEE8"/>
<path d="M350.05 178.001C340.87 175.881 337.59 184.321 330.06 185.981L335.28 171.881H380.82L384.04 183.991L366.05 176.001V229.001C366.05 229.461 369.84 231.671 367.04 232.011L348.05 231.981C347.06 231.261 350.05 229.431 350.05 229.001V178.001Z" fill="#D4DEE8"/>
<path d="M328.04 170.01L326.04 186L310.61 174.31C287.56 170.73 290.45 245.11 320.77 225.7L334.03 212.01L328.29 230.83C295.16 240.53 278 227.86 282.06 193C285.33 164.91 306.99 170.86 328.04 170.01Z" fill="#D4DEE8"/>
</svg>
