<svg width="700" height="400" viewBox="0 0 700 400" fill="none" xmlns="http://www.w3.org/2000/svg">
<path d="M132.99 206.402L141.01 197.422C138.99 186.782 144.04 140.142 140.08 134.312C138.3 131.692 131.75 132.932 131 128.422C140.67 127.222 150.44 128.672 160.01 128.552C170.81 128.422 181.08 128.592 192.04 128.502C200.34 128.442 211.41 122.342 218.96 129.412C208.89 133.132 207.72 131.902 206.89 143.322C206.27 151.792 205.81 198.312 209.43 201.942C211.62 204.132 217.12 202.792 216.97 206.402H184.98C183.65 200.122 189.94 203.682 191.02 197.462C192.72 187.692 193.57 161.682 193.07 151.312C192.76 144.842 190.79 138.882 190.96 132.422C182.4 135.112 159.31 124.852 156.98 137.402C155.27 146.642 155.82 183.142 156.87 193.522C157.16 196.422 156.67 199.132 158.77 201.622C161.52 204.892 166.87 202.672 166.99 206.402H133H132.99Z" fill="#D4DEE8"/>
<path d="M232.964 148.201C232.754 147.871 226.774 147.481 226.964 144.221C238.264 148.241 273.644 138.671 275.134 155.161C276.624 171.651 262.644 172.881 248.954 172.181L262.684 165.941L260.154 150.021C238.824 139.621 242.924 176.951 248.954 188.181H228.974C227.474 184.621 232.964 182.081 232.964 181.201C232.964 176.171 233.834 149.601 232.964 148.201Z" fill="#D4DEE8"/>
<path d="M287.684 149.415C287.404 148.985 281.614 150.985 283.694 145.425H307.674L299.654 154.395C299.724 159.715 299.374 165.145 299.674 170.455C299.804 172.705 298.354 175.945 301.644 175.405C302.754 168.825 328.324 136.795 333.654 141.435C334.434 143.615 331.664 145.815 331.664 146.425V182.425C331.664 184.335 338.324 184.355 337.654 187.405H315.674C321.984 179.825 320.094 168.655 318.684 159.435C307.864 169.005 301.674 185.795 287.684 191.425V149.425V149.415Z" fill="#D4DEE8"/>
<path d="M432.032 146.863L427.962 144.733C415.802 149.963 415.732 163.853 412.142 174.963C410.692 179.453 404.932 181.443 410.562 184.273C415.462 186.733 420.942 188.883 426.022 185.863C423.982 199.413 406.712 188.163 401.092 188.043C396.482 187.943 391.302 192.863 386.062 191.853L394.042 184.873C392.412 181.503 370.832 164.513 367.002 163.843C361.032 162.803 362.322 174.833 364.142 178.403C365.312 180.703 368.782 178.773 368.042 181.843L346.042 180.863C354.592 179.883 353.282 149.323 351.082 145.763C349.712 143.533 344.222 145.313 346.082 139.873H368.052C369.652 141.313 357.532 155.983 365.062 159.823C371.192 153.873 383.302 150.293 378.062 139.873H400.042C398.902 144.053 391.752 143.063 388.202 145.003C383.452 147.603 380.182 154.803 374.042 156.873C373.252 160.853 375.092 159.373 376.632 160.333C384.382 165.173 393.282 167.023 399.052 175.813C401.062 175.863 404.692 160.613 406.302 157.113C416.192 135.583 430.102 141.723 450.032 139.863C451.902 145.513 445.582 143.273 444.312 147.063C443.252 150.243 443.532 175.713 445.002 177.903C446.342 179.913 450.672 178.673 450.032 181.823H426.062C425.392 178.773 432.052 178.753 432.052 176.843V146.843L432.032 146.863Z" fill="#D4DEE8"/>
<path d="M482.355 168.34L476.285 169.24C473.055 171.59 474.235 178.66 475.705 181.96C477.085 185.06 480.865 183.12 480.375 186.33H458.395C464.995 178.66 465.085 164.01 463.585 154.24C462.495 147.12 457.965 150.18 458.405 144.36H482.375C481.755 148.23 476.265 146.72 474.755 151.72C473.605 155.53 474.615 160.35 474.395 164.36L482.075 164.01C487.235 133.33 543.675 137.89 537.525 170.43C532.555 196.73 484.635 194.43 482.365 168.35L482.355 168.34ZM507.845 148.65C490.225 151.81 492.725 187.05 512.935 183.98C528.765 181.57 528.855 144.89 507.845 148.65Z" fill="#D4DEE8"/>
<path d="M567.973 164.258C571.213 166.728 567.933 167.878 565.023 168.248C559.113 168.998 552.073 167.718 545.993 168.228C549.903 160.958 561.273 165.318 567.973 164.258Z" fill="#D4DEE8"/>
<path d="M240.196 259.39L248.186 266.38H224.216C222.106 261.16 227.776 263.19 228.236 261.1C228.936 257.92 227.826 253.8 228.186 250.4C220.186 252.92 203.486 255.45 200.616 244.98C198.706 238.02 202.746 230.58 196.206 224.41H216.196C207.646 236.51 210.266 256.99 228.266 245.06C227.636 240.52 229.346 233.6 227.946 229.63C226.716 226.12 221.826 227.81 222.196 224.42H248.166C248.706 227.98 240.176 226.23 240.176 229.4V259.4L240.196 259.39Z" fill="#D4DEE8"/>
<path d="M296.251 224.405L298.241 236.395C292.201 237.325 294.581 231.245 288.391 229.275C283.801 227.815 278.941 228.425 274.251 228.395L274.521 242.115C281.301 246.205 284.721 242.055 290.231 238.405L290.261 251.395L274.261 246.395L274.241 262.405C285.431 263.745 290.601 262.265 298.221 254.395L297.921 264.055C296.471 264.355 293.971 266.395 293.241 266.395H256.251C264.051 262.455 264.051 232.465 261.291 228.335C259.951 226.325 255.631 227.575 256.251 224.395H296.241L296.251 224.405Z" fill="#D4DEE8"/>
<path d="M312.265 229.395C311.455 227.025 305.755 227.595 306.275 224.415H332.245C332.655 228.175 327.065 225.575 325.105 228.235C323.035 231.045 324.715 238.625 324.255 242.405L341.105 242.435C343.095 242.135 342.715 231.615 342.015 229.625C340.785 226.125 335.895 227.805 336.265 224.415H362.235C362.735 227.965 354.245 227.945 354.245 228.395V262.395C354.245 262.845 362.735 262.825 362.235 266.375H336.255C342.515 260.185 343.185 255.165 342.255 246.385C331.685 245.405 319.715 244.995 324.525 259.175C325.815 262.965 332.105 260.725 330.245 266.375H308.275C307.685 262.165 308.135 261.915 312.265 262.385C310.625 254.215 314.505 235.945 312.265 229.385V229.395Z" fill="#D4DEE8"/>
<path d="M420.334 262.723L400.344 262.703C407.214 254.933 403.554 244.243 404.324 234.723C397.924 236.933 378.984 270.473 372.364 264.713C371.584 262.533 374.354 260.333 374.354 259.723V227.723C374.354 226.523 369.514 221.363 370.354 220.743H392.334C392.934 223.833 388.884 222.623 387.414 224.773C385.364 227.763 384.144 237.753 384.264 241.673C384.354 244.703 382.934 247.543 387.314 246.713C390.554 242.013 412.774 211.813 418.324 216.743C416.284 228.103 414.794 244.413 416.154 255.883C416.724 260.663 421.804 256.723 420.324 262.733C427.174 258.103 432.944 252.413 440.304 248.693L439.064 244.723C421.314 244.793 428.014 220.733 441.314 220.733H478.304C469.334 232.633 470.284 250.583 478.304 262.713H456.314C463.744 257.053 465.504 229.233 458.324 225.733C442.744 218.133 433.024 237.433 446.824 243.213C450.894 244.923 457.364 243.253 458.294 246.703C440.414 254.753 431.724 275.243 409.624 274.573C408.054 274.523 400.014 273.543 400.334 270.753C410.384 272.773 413.944 267.033 420.324 262.733L420.334 262.723Z" fill="#D4DEE8"/>
</svg>
