<svg width="700" height="400" viewBox="0 0 700 400" fill="none" xmlns="http://www.w3.org/2000/svg">
<path d="M378.283 192.218L378.153 193.261C380.455 195.9 382.056 198.942 383.481 202.1C387.113 210.129 388.377 229.186 400.989 217.556C409.945 209.298 406.457 206.628 408.415 196.301C410.379 185.988 420.618 162.563 432.972 162.034C434.845 161.954 440.868 163.281 442.6 163.979C446.302 165.463 447.466 172.242 447.443 175.775C447.357 187.899 436.1 219.322 422.015 221.198C416.05 221.989 414.374 219.428 409.524 217.253C404.941 226.654 391.301 240.436 380.31 232.426C371.757 226.188 372.433 202.002 367.282 198.482C366.602 198.018 365.978 197.867 365.169 197.854C362.29 206.591 356.707 232.992 345.539 233.851C342.98 234.044 336.331 232.587 336.353 229.595C336.361 228.178 346.456 209.835 348.058 206.301C352.398 196.745 358.777 182.132 360.982 172.112C361.506 169.723 362.9 164.279 360.21 163.118C354.392 160.618 345.45 172.99 343.057 177.419C341.823 179.705 338.282 190.121 337.663 190.46C333.281 192.851 329.232 186.005 329.232 182.016C329.235 167.098 350.419 152.16 364.68 156.442C378.941 160.724 371.154 178.486 368.887 188.06C368.706 188.811 367.713 189.922 369.466 189.629C370.735 189.415 377.778 185.017 379.327 183.961C388.296 177.816 397.843 168.04 402.785 158.281C404.182 155.511 407.629 145.194 408.737 144.28C411.791 141.752 419.344 143.818 420.482 148.11C422.388 155.273 416.149 163.833 411.732 168.915C403.032 178.929 390.237 186.635 378.291 192.212L378.283 192.218ZM437.01 170.493C431.901 171.274 424.598 186.445 423.167 191.073C421.93 195.076 417.435 212.628 426.264 210.016C434.024 207.717 440.655 184.456 440.7 177.119C440.713 174.725 440.547 169.962 437.01 170.501L437.01 170.493Z" fill="#D4DEE8"/>
<path d="M156.68 153.779C163.618 152.211 167.402 154.501 166.526 161.829C165.465 170.698 158.219 185.525 155.342 194.898C154.545 197.48 153.629 200.083 153.4 202.802C174.138 202.185 189.518 178.889 189.389 159.637C189.334 151.747 184.224 147.085 176.899 145.361C145.237 137.903 120.064 173.539 123.574 202.249C107.524 205.525 107.702 189.788 111.455 178.603C119.102 155.805 145.107 136.601 169.089 135.154C226.58 131.686 204.589 205.35 160.464 210.608C158.025 210.895 151.057 210.407 150.062 211.416C147.43 219.526 144.508 227.732 142.687 236.075C141.67 240.719 143.55 246.98 137.812 247.295C114.857 248.586 131.02 218.658 135.462 207.69C142.679 189.872 152.421 172.543 156.673 153.771L156.68 153.779Z" fill="#D4DEE8"/>
<path d="M579.296 185.23C597.501 182.362 594.43 198.213 589.57 209.604C583.882 222.952 567.814 240.332 551.638 235.475C534.426 230.306 545.809 203.444 550.109 192.327C552.855 185.239 557.032 178.095 559.511 171.098C559.727 170.482 560.61 169.314 559.76 168.923C551.983 173.528 544.477 178.832 537.944 185.12C537.368 186.517 539.958 192.647 539.98 195.287C540.074 209.955 529.437 237.458 510.548 231.094C508.662 230.457 506.873 228.627 505.838 226.971C498.201 214.791 514.329 189.184 517.38 176.188C519.112 168.798 516.16 162.586 526.11 163.233C532.632 163.659 533.725 165.563 532.776 171.771C532.336 174.661 528.179 182.574 534.033 179.219C543.606 173.741 562.112 154.268 573.879 155.347C575.36 155.48 580.246 157.192 580.824 158.418C581.563 159.994 576.703 166.577 575.672 168.516C568.527 181.945 559.409 199.074 554.908 213.446C553.025 219.473 549.287 229.243 559.469 228.443C566.691 227.882 575.203 213.622 577.48 207.426C580.288 199.783 580.459 193.192 579.289 185.222L579.296 185.23ZM527.598 186.768C526.504 186.873 521.363 200.632 520.613 202.782C519.079 207.186 514.997 217.782 515.687 221.915C515.876 223.042 516.757 223.89 517.852 224.187C522.976 225.278 527.725 212.142 528.817 208.304C530.631 201.947 533.105 191.83 527.591 186.767L527.598 186.768Z" fill="#D4DEE8"/>
<path d="M259.157 198.128L257.808 197.222C251.173 213.542 244.506 249.935 228.764 259.831C221.843 264.185 210.793 263.159 210.584 253.343C232.813 245.271 243.827 217.734 251.048 196.891C254.906 185.741 260.907 175.632 242.737 177.511C243.778 164.994 262.277 161.82 268.081 172.413C274.413 183.978 268.459 201.632 267.432 213.741C267.36 214.616 266.56 216.343 267.834 216.326C274.515 205.097 280.371 192.866 287.347 181.848C292.123 174.297 295.783 165.497 306.308 170.921C300.176 190.058 292.038 209.289 291.013 229.771C290.842 233.256 292.584 245.192 291.438 246.948C290.39 248.557 285.83 249.209 283.978 248.89C276.252 247.57 276.137 241.046 276.499 234.56C277.042 224.691 280.661 214.111 281.761 204.224L262.19 241.106L260.446 242.262C258.796 242.897 254.012 239.422 254.152 238.3L259.156 198.135L259.157 198.128Z" fill="#D4DEE8"/>
<path d="M459.635 195.777C457.597 195.187 458.392 196.082 457.896 197.248C451.153 213.021 440.863 258.913 416.509 252.255C410.292 250.553 408.048 244.349 411.135 238.859C417.254 239.358 420.897 239.959 426.393 236.778C437.721 230.234 447.338 210.566 451.767 198.589C452.824 195.739 457.241 179.808 458.03 179.168C459.924 177.629 466.291 178.773 468.104 180.46C472.671 184.733 469.039 201.573 469.047 208.252C469.047 209.252 469.18 210.467 470.338 209.501C475.895 197.678 481.659 185.772 488.054 174.375C489.529 171.746 492.174 165.53 494.745 164.652C497.53 163.698 504.501 164.983 504.706 168.26C498.598 193.069 491.939 218.08 492.965 243.859C485.797 249.03 476.913 247.331 477.164 236.93C477.513 222.223 483.456 206.306 485.7 191.747L461.781 237.841C460.204 239.42 454.572 236.482 454.862 234.152L459.642 195.778L459.635 195.777Z" fill="#D4DEE8"/>
<path d="M231.857 181.394C240.609 181.279 242.907 190.164 241.714 197.394C238.335 217.897 218.297 235.294 199.919 242.831C199.15 242.261 199.251 241.63 199.09 240.872C197.627 233.961 196.677 219.421 196.786 212.21C196.924 202.897 198.317 185.552 209.43 182.677C216.503 180.847 220.469 185.9 222.252 185.779C223.468 185.697 227.817 181.453 231.864 181.402L231.857 181.394ZM218.937 204.412C220.352 200.388 219.472 189.093 213.391 190.169C207.31 191.245 207.089 201.877 207.032 206.845C206.999 209.639 208.187 228.19 209.74 228.742C211.05 228.781 212.148 228.121 213.149 227.362C218.775 223.131 226.757 214.592 230.241 208.502C233.427 202.93 241.041 185.38 228.131 187.498C223.059 188.334 225.193 193.254 225.092 196.061C224.94 200.148 224.193 205.622 218.938 204.405L218.937 204.412Z" fill="#D4DEE8"/>
<path d="M335.605 200.002C335.536 210.288 324.955 207.545 317.763 208.336C312.949 208.862 308.349 210.247 303.689 210.528C301.162 194.63 326.205 202.148 335.605 200.002Z" fill="#D4DEE8"/>
</svg>
