<svg width="700" height="400" viewBox="0 0 700 400" fill="none" xmlns="http://www.w3.org/2000/svg">
<path d="M205.03 121.248L221.02 141.238L236.03 118.248C238.29 116.938 261.65 114.408 264.63 115.208C266.74 115.768 266.57 120.008 269.26 120.948C274.44 122.758 283.4 119.348 288.05 122.218C290.38 123.658 299.19 141.018 300.04 145.238L312.33 121.568L336.91 121.378L339.1 115.108C368.99 112.938 398.37 121.028 427.9 117.338L430.26 139.968C431.82 144.958 439.95 143.008 443.99 143.258L445.98 117.238L523.97 125.258L519.96 159.258L497.98 155.248L492.1 208.408L458.09 205.148L457.96 191.248C443.11 205.048 421.04 204.838 401.98 205.258V189.258C393.99 194.268 401.7 205.668 399.99 213.258C418.27 210.958 437.87 211.248 453.95 201.248L455.14 211.478L479.64 215.598L489.75 267.058L206.03 285.268L220.06 190.768C222.31 185.788 235.53 187.528 240.03 187.238L238.01 175.268L231.09 181.318H215.32L212.05 177.278L214.02 205.258L182.05 207.248L176.03 121.268H205.02L205.03 121.248ZM262.03 121.238C235.22 116.138 235.24 131.768 223 149.238L201.96 126.208L180.05 127.258L186.03 201.258H208.04L206.05 163.248C220.49 181.218 233.99 181.038 240.05 157.258L246.31 196.958L268.03 195.228L262.04 121.228L262.03 121.238ZM342 124.248V156.248C342 165.378 332.39 177.418 322.09 175.328L323.88 196.368C358.47 204.538 361.08 163.628 361.99 139.238H372.01L369.99 197.258L391.99 199.258L396.01 123.238C387.62 124.908 344.41 116.498 342.01 124.248H342ZM421.95 123.238L401.97 125.238L407.97 199.258C426.1 198.068 456.92 197.148 459.59 173.708C461.9 153.438 443.32 146.458 426.18 149.018L421.94 123.228L421.95 123.238ZM513.94 151.258C513.39 145.958 519.03 133.518 514.08 130.118L452.02 123.298L449.97 145.258L469.96 143.258L464.02 199.158L487.97 201.258L493.98 147.248L513.95 151.248L513.94 151.258ZM300.04 157.248C292.03 142.408 289.38 122.048 268.01 127.248C265.84 146.578 282.85 161.288 289.77 178.288C284.26 184.948 278.4 183.638 272.04 179.248C263.25 217.978 309.29 204.808 315.56 179.798C316.42 176.348 315.34 168.358 316.26 167.388C316.87 166.738 320.67 168.158 322.2 166.058C327.33 159.038 329.77 138.488 335.92 130.218C335.56 125.968 320 126.928 316.33 127.578L304.15 156.018L300.04 157.238V157.248ZM331.97 167.248L335.98 149.258L328.03 166.278L331.97 167.248ZM463.96 151.258H459.98V155.238H463.96V151.258ZM280 175.238L270.03 157.258C269.49 165.608 268.55 176.028 280 175.238ZM363.98 203.258L362.99 177.228C358.48 196.158 341.96 208.398 322.29 201.948C318.5 200.708 316.26 199.688 315.96 195.268L313.02 195.238C304.38 208.608 288.12 211.908 273.1 207.158C268.6 205.738 265.48 201.848 260.84 201.258C254.18 200.418 247.04 204.598 240.02 203.268C242.05 213.828 255.62 207.958 264.89 209.378C277.57 211.308 282.88 218.948 300.07 214.318C314.25 210.498 305.65 209.198 324.91 209.338C342.08 209.468 347.56 208.538 357.01 193.268C362.9 190.278 357.84 208.168 361.15 209.478C363.84 211.388 399.11 215.378 397.97 205.268L363.98 203.268V203.258ZM258.71 250.018C263.07 248.198 268.51 248.718 270.96 243.208C282.87 216.368 228.54 214.848 230.05 238.108C230.82 249.918 239.05 247.208 244.54 249.378C246.49 250.148 245.27 252.828 248.93 253.408C258.04 254.848 257.26 250.628 258.71 250.018ZM276.01 221.248V253.248C286.97 255.398 288.37 248.978 293.01 241.228L294 253.258H306.01V221.248C295.8 218.658 295.02 229.278 288.03 233.248L287.14 223.118L276.01 221.248ZM342 221.248L317.88 222.118C314.14 224.718 317.1 234.928 315.61 239.848C314.41 243.828 306.97 247.368 310.02 255.238L321.17 251.418L328.97 229.268C335.15 232.668 330.32 251.628 331.99 253.258H342V221.248ZM348 224.248V253.248C362.94 254.218 381.79 255.298 371.2 235.048L360.01 233.238L358.15 222.098L351.22 221.428L348 224.248ZM379.99 221.248V253.248H390V241.248C393.89 243.818 395.92 245.768 401.06 245.478C404.44 245.288 408.95 231.518 407.97 253.258H417.98V221.248C404.2 217.288 407.44 231.858 397.01 235.268C392.59 228.548 390.18 219.298 379.99 221.248ZM423.98 224.248V253.248C438.92 254.218 457.77 255.298 447.18 235.048L435.99 233.238L434.13 222.098L427.2 221.428L423.98 224.248ZM463.97 221.248H453.97V253.248H463.97V221.248Z" fill="#D4DEE8"/>
<path d="M427.99 167.258C438.07 166.408 438.19 174.068 430.98 179.208L427.99 167.258Z" fill="#D4DEE8"/>
<path d="M246 241.247L241.92 236.247L245.03 231.257L246 241.247Z" fill="#D4DEE8"/>
<path d="M260.01 233.257L259.03 241.237C255.95 239.077 255.55 236.947 256.03 233.257H260.01Z" fill="#D4DEE8"/>
<path d="M439.96 241.257L439.95 244.217L435.99 247.247L435.98 241.257H439.96Z" fill="#D4DEE8"/>
<path d="M363.98 241.257L363.97 244.217L360.01 247.247L360 241.257H363.98Z" fill="#D4DEE8"/>
</svg>
