<svg width="700" height="400" viewBox="0 0 700 400" fill="none" xmlns="http://www.w3.org/2000/svg">
<path d="M201.685 237.99C199.655 252.13 203.325 261.07 211.665 271.97C195.805 264.54 191.645 260.97 175.695 271.99L187.495 251.36L159.555 236.77C162.985 218.03 155.195 181.88 160.095 165.4C161.395 161.02 171.635 154.31 174.685 150.06L187.665 157.98C189.005 148.96 181.705 143.05 177.675 136.01C191.965 141.54 196.275 143.1 209.645 133.99C211.825 136.35 203.235 145.1 202.435 147.95C200.015 156.68 224.765 162.66 229.335 169.31L229.285 232.62L212.315 245.71L201.685 237.99ZM201.665 157.99V230.99C201.665 235.87 215.665 235.87 215.665 230.99V168.99L201.665 157.99ZM187.665 241.99V166.99C187.665 161.18 173.665 161.18 173.665 166.99V230.99C173.665 231.77 183.155 239.99 184.685 241.97L187.655 241.99H187.665Z" fill="#D4DEE8"/>
<path d="M305.635 187.989C327.125 189.449 321.945 147.259 313.635 136.009C324.495 138.949 328.815 139.949 339.625 136.009C332.155 144.229 332.185 160.459 333.505 171.109C334.335 177.809 336.875 177.119 341.585 180.979C339.115 184.939 334.005 184.429 333.465 188.919C331.965 201.439 332.465 219.379 339.615 229.969C337.355 231.829 329.495 224.549 326.275 224.369C322.095 224.129 318.625 231.029 313.625 229.969C320.215 220.409 321.265 206.219 319.635 194.929C318.735 188.679 308.775 193.539 305.505 195.219C305.335 209.209 304.415 221.499 311.625 233.969C299.955 229.199 296.125 226.389 283.635 231.969C293.105 222.159 293.335 206.009 291.775 192.909C291.115 187.349 284.395 190.119 281.845 184.679L283.645 171.979C288.735 165.699 287.715 187.339 291.635 185.989V154.989C291.635 153.439 284.785 146.649 285.635 146.009C295.985 147.859 302.815 148.799 312.615 143.969C314.815 147.139 305.635 154.319 305.635 154.989V187.989Z" fill="#D4DEE8"/>
<path d="M503.585 207.99L525.455 166.86L541.575 162C540.725 165.52 535.965 167.03 534.615 170.02C532.825 173.98 532.455 235.5 533.495 243.07C534.555 250.82 540.515 253.02 541.565 259.98C530.175 252.7 521.735 253.18 509.605 257.97C506.765 255.23 519.595 246.26 519.595 244.98V195.98L489.605 243.98V166.98C489.605 165.7 482.025 162.02 483.625 157.98C492.465 163.07 501.655 162.92 510.625 158.02C511.885 161.17 503.605 165.58 503.605 166.98V207.98L503.585 207.99Z" fill="#D4DEE8"/>
<path d="M451.595 245.99L465.536 249.959C469.936 240.199 473.596 204.37 462.236 200.34C458.446 199 452.715 201.559 449.595 196.979C472.325 195.069 466.586 165.81 461.556 149.99L444.575 187.979C443.685 180.769 438.965 172.209 439.415 164.959C439.935 156.519 454.556 147.91 459.556 140.91C485.166 150.11 484.265 178.879 469.585 197.949C495.235 208.159 482.895 250.98 462.865 261.85L441.925 238.59L451.585 210V246L451.595 245.99Z" fill="#D4DEE8"/>
<path d="M411.606 197.991V238.991C411.606 246.641 422.746 259.631 425.166 244.501C426.246 237.741 421.106 223.711 421.616 215.991L435.516 236.981C435.656 241.811 421.566 260.041 416.616 260.021C411.196 250.121 398.956 242.751 397.546 231.041C395.956 217.761 396.126 182.621 401.966 171.371C419.606 137.361 445.676 192.621 432.536 210.011L411.585 198.001L411.606 197.991ZM417.575 166.001C412.365 165.391 414.426 166.081 413.546 168.921C411.166 176.621 411.526 184.821 411.486 192.771L423.585 195.991L417.565 166.001H417.575Z" fill="#D4DEE8"/>
<path d="M264.945 239.299C263.675 240.679 256.315 246.099 254.915 245.859C250.085 239.799 237.175 234.539 235.705 226.949C234.815 222.339 234.065 210.089 239.625 207.989C238.945 220.559 248.505 229.809 256.645 237.949C260.515 237.979 265.935 206.389 262.755 201.869L243.665 195.969L263.415 188.719L257.625 159.999C252.355 156.039 242.825 184.549 237.675 185.989L237.985 163.319L254.796 151.929C277.086 158.009 275.065 170.079 277.735 188.879C278.145 191.789 281.026 193.779 281.286 195.389C281.646 197.619 278.276 200.049 277.776 203.129C275.696 216.119 274.595 228.869 264.955 239.289L264.945 239.299Z" fill="#D4DEE8"/>
<path d="M345.625 143.991C348.565 140.961 364.505 153.251 368.615 153.251C372.075 153.251 390.835 140.961 391.585 141.991L393.585 201.98L381.185 161.411L375.625 158.001L375.595 222.001L371.625 219.97L375.585 259.98L367.625 253.98L369.585 295.97C366.765 296.45 366.675 292.431 366.185 290.421C362.635 275.841 357.675 253.5 355.595 238.97C355.425 237.77 355.045 235.691 356.595 235.991L365.585 243.98L358.595 201.991L363.605 205.98V164.98C363.605 163.69 361.755 156.141 357.635 157.991L347.115 198.491L345.615 198.991V143.991H345.625Z" fill="#D4DEE8"/>
</svg>
