<svg width="700" height="400" viewBox="0 0 700 400" fill="none" xmlns="http://www.w3.org/2000/svg">
<path d="M466.366 118.173L439.292 183.701C445.394 181.306 454.185 172.729 459.79 180.119C465.146 187.871 459.598 196.165 458.456 203.996C468.626 201.883 475.711 172.153 486.729 178.04L473.462 205.465L470.92 215.33C480.909 211.544 500.119 181.995 506.176 179.43C509.001 178.232 512.628 178.187 511.6 182.594L496.853 215.296C502.515 208.685 510.244 204.809 516.142 198.448C524.391 189.543 529.713 171.136 545.443 175.78C536.279 186.176 525.125 198.459 525.137 213.081C527.476 216.245 558.539 181.577 561.274 180.311C565.749 178.232 567.364 178.763 570.257 182.571C554.765 198.549 546.29 218.708 542.053 240.223C535.476 228.709 540.437 217.906 543.171 206.312C539.601 202.448 526.561 224.731 517.442 222.008C510.368 219.895 515.216 206.956 516.052 201.781L494.232 221.782C480.197 222.177 490.604 209.352 491.192 201.781C481.452 208.414 475.711 223.737 461.88 222.076L462.987 204.086C452.253 210.798 442.297 226.607 427.958 222.098C427.675 215.612 436.309 216.313 441.28 211.725C447.507 205.985 450.964 197.883 450.614 189.396C450.479 185.984 452.151 182.775 447.179 183.724L433.551 201.747L385.03 301.209C389.041 273.354 402.239 246.212 414.33 220.968L404.273 224.381L399.708 210.832C393.832 215.962 389.38 225.398 380.295 221.183L377.108 213.092C372.012 219.059 366.204 223.194 357.899 222.121C355.865 208.866 365.91 192.865 375.911 184.775C381.934 179.904 395.211 170.887 396.296 183.679C386.476 183.498 377.176 193.397 371.809 201.013C370.588 202.742 359.594 221.239 368.023 217.578C374.543 214.753 386.905 191.057 394.024 197.272L388.374 217.59C400.262 209.476 405.618 194.945 415.449 185.916C420.59 181.193 431.596 176.921 433.506 174.605C437.472 169.791 444.716 143.383 450.965 133.304C452.388 131.01 462.705 114.422 466.321 118.173H466.366ZM432.478 183.713C422.59 182.108 403.675 218.245 405.381 219.838L417.732 213.002L432.489 183.713H432.478Z" fill="#D4DEE8"/>
<path d="M182.05 134.355L159.145 187.125C170.061 181.521 184.389 163.407 197.282 173.724L190.728 194.99C202.887 193.589 207.203 177.159 220.097 179.215L202.039 215.341C206.006 216.143 207.621 213.307 209.972 210.866C214.921 205.736 233.532 181.046 237.306 179.453C250.459 173.87 232.199 201.826 230.99 204.776C229.781 207.725 227.532 212.222 227.984 215.307C243.86 207.284 257.77 171.475 277.082 175.136C287.173 177.046 286.529 184.391 284.461 192.707L313.535 175.034L318.53 179.227C321.976 186.018 296.032 205.827 296.924 215.341C323.016 211.68 326.361 183.272 343.231 167.938C351.672 173.927 338.723 178.594 339.864 185.973C369.074 164.367 361.729 200.403 348.068 214.539C342.034 220.788 323.897 232.087 321.784 217.624C330.157 222.81 339.468 211.815 344 204.821C356.802 185.057 348.746 180.413 333.028 196.741L274.279 308L269.771 306.859L312.688 214.2L293.512 223.488L286.551 217.748C284.845 208.742 301.218 191.521 305.964 183.735C286.178 187.091 270.494 223.194 252.855 224.144C242.911 224.675 242.21 214.019 242.685 206.312C228.379 220.731 211.204 234.562 222.345 201.792C213.916 209.872 206.819 223.33 193.033 222.098C190.107 213.002 194.581 203.521 199.757 196.131C188.457 193.137 186.276 208.923 181.293 216.087C173.948 226.652 163.281 241.771 148.919 240.415C131.799 238.788 146.907 223.409 153.506 217.68C168.942 204.29 188.83 202.267 185.101 174.695C151.845 186.357 150.026 215.352 135.347 240.28C133.63 243.207 135.754 245.975 129.743 244.732C129.777 214.324 152.094 198.38 142.659 167.407C139.201 156.039 123.076 139.282 135.325 129.405C148.365 118.885 209.554 128.965 230.357 127.304C284.043 123.021 271.048 86.1948 226.933 98.9975C242.538 83.2229 280.89 95.811 270.37 119.88C260.166 143.237 202.288 131.79 182.061 134.377L182.05 134.355ZM177.168 134.005L139.009 136.468C136.568 152.322 150.399 165.26 147.823 181.441L177.168 134.005ZM251.748 217.59C257.115 223.194 286.574 189.43 276.562 179.181C262.889 185.588 250.844 202.211 251.748 217.59ZM152.342 235.681C156.648 233.918 177.824 211.793 174.897 208.561C164.207 214.098 150.568 221.398 152.342 235.681Z" fill="#D4DEE8"/>
</svg>
