<svg width="700" height="400" viewBox="0 0 700 400" fill="none" xmlns="http://www.w3.org/2000/svg">
<path d="M466.366 129.173L439.292 194.701C445.394 192.306 454.185 183.729 459.79 191.119C465.146 198.871 459.598 207.165 458.456 214.996C468.626 212.883 475.711 183.153 486.729 189.04L473.462 216.465L470.92 226.33C480.909 222.544 500.119 192.995 506.176 190.43C509.001 189.232 512.628 189.187 511.6 193.594L496.853 226.296C502.515 219.685 510.244 215.81 516.142 209.448C524.391 200.543 529.713 182.136 545.443 186.78C536.279 197.176 525.125 209.459 525.137 224.081C527.476 227.245 558.539 192.577 561.274 191.311C565.749 189.232 567.364 189.763 570.257 193.571C554.765 209.549 546.29 229.708 542.053 251.223C535.476 239.709 540.437 228.906 543.171 217.313C539.601 213.448 526.561 235.731 517.442 233.008C510.368 230.895 515.216 217.957 516.052 212.781L494.232 232.782C480.197 233.178 490.604 220.352 491.192 212.781C481.452 219.414 475.711 234.737 461.88 233.076L462.987 215.086C452.253 221.799 442.297 237.607 427.958 233.098C427.675 226.612 436.308 227.313 441.28 222.725C447.507 216.985 450.964 208.883 450.614 200.397C450.479 196.984 452.151 193.775 447.179 194.724L433.551 212.747L385.03 312.209C389.041 284.355 402.239 257.212 414.33 231.968L404.273 235.381L399.708 221.832C393.832 226.963 389.38 236.398 380.295 232.183L377.108 224.092C372.012 230.059 366.204 234.195 357.899 233.121C355.865 219.866 365.91 203.866 375.911 195.775C381.934 190.905 395.211 181.887 396.296 194.679C386.476 194.498 377.176 204.397 371.809 212.013C370.588 213.742 359.594 232.24 368.023 228.578C374.543 225.754 386.905 202.058 394.024 208.273L388.374 228.59C400.262 220.476 405.618 205.945 415.449 196.916C420.59 192.193 431.596 187.922 433.506 185.605C437.472 180.791 444.716 154.384 450.965 144.304C452.388 142.01 462.705 125.422 466.321 129.173H466.366ZM432.478 194.713C422.59 193.108 403.675 229.245 405.381 230.838L417.732 224.002L432.489 194.713H432.478Z" fill="#D4DEE8"/>
<path d="M182.05 145.355L159.145 198.125C170.061 192.52 184.389 174.407 197.282 184.724L190.728 205.99C202.887 204.589 207.203 188.159 220.097 190.215L202.039 226.341C206.006 227.143 207.621 224.307 209.972 221.866C214.921 216.736 233.532 192.046 237.306 190.453C250.459 184.87 232.199 212.826 230.99 215.776C229.781 218.725 227.532 223.222 227.984 226.307C243.86 218.284 257.77 182.475 277.082 186.136C287.173 188.046 286.529 195.391 284.461 203.707L313.535 186.034L318.53 190.227C321.976 197.018 296.032 216.827 296.924 226.341C323.016 222.68 326.361 194.272 343.231 178.938C351.672 184.927 338.723 189.594 339.864 196.973C369.074 175.367 361.729 211.403 348.068 225.539C342.034 231.788 323.897 243.087 321.784 228.624C330.157 233.81 339.468 222.815 344 215.821C356.802 196.057 348.746 191.413 333.028 207.741L274.279 319L269.771 317.859L312.688 225.2L293.512 234.488L286.551 228.748C284.845 219.742 301.218 202.521 305.964 194.735C286.178 198.091 270.494 234.194 252.855 235.144C242.911 235.675 242.21 225.019 242.685 217.312C228.379 231.731 211.204 245.562 222.345 212.792C213.916 220.872 206.819 234.33 193.033 233.098C190.107 224.002 194.581 214.521 199.757 207.131C188.457 204.137 186.276 219.923 181.293 227.087C173.948 237.652 163.281 252.771 148.919 251.415C131.799 249.788 146.907 234.409 153.506 228.68C168.942 215.29 188.83 213.267 185.101 185.695C151.845 197.357 150.026 226.352 135.347 251.28C133.63 254.207 135.754 256.975 129.743 255.732C129.777 225.324 152.094 209.38 142.659 178.407C139.201 167.039 123.076 150.282 135.325 140.405C148.365 129.885 209.554 139.965 230.357 138.304C284.043 134.021 271.048 97.1948 226.933 109.998C242.538 94.2229 280.89 106.811 270.37 130.88C260.166 154.237 202.288 142.79 182.061 145.377L182.05 145.355ZM177.168 145.005L139.009 147.468C136.568 163.322 150.399 176.26 147.823 192.441L177.168 145.005ZM251.748 228.59C257.115 234.194 286.574 200.43 276.562 190.181C262.889 196.588 250.844 213.211 251.748 228.59ZM152.342 246.681C156.648 244.918 177.824 222.793 174.897 219.561C164.207 225.098 150.568 232.398 152.342 246.681Z" fill="#D4DEE8"/>
</svg>
