<svg width="700" height="400" viewBox="0 0 700 400" fill="none" xmlns="http://www.w3.org/2000/svg">
<path d="M238.015 106.038L266.015 109.008L270.005 120.028C275.645 120.118 275.515 114.068 280.755 111.908C311.025 99.4279 317.725 153.678 319.725 173.288C322.585 201.318 320.805 224.098 286.005 208.028C286.405 221.268 266.585 217.028 257.015 220.058L255.005 208.048C246.335 218.448 230.625 231.108 217.945 219.098L198.065 109.098C200.845 94.7379 232.835 104.838 239.025 113.998L238.015 106.048V106.038ZM247.985 136.018C242.345 135.178 237.655 138.818 238.095 144.728C245.575 157.958 236.905 193.448 255.995 192.028L247.985 136.018ZM286.005 190.018C302.095 189.918 290.035 143.518 285.125 139.888C282.695 138.088 281.035 137.578 278.005 138.028L286.005 190.018Z" fill="#D4DEE8"/>
<path d="M359.685 118.308C368.545 145.868 375.515 174.728 373.865 203.918L355.975 206.028V184.008H347.985V208.028L327.995 210.028C328.185 195.098 327.735 179.868 325.955 165.058C324.625 153.998 316.595 128.058 318.825 119.878C321.825 108.848 350.235 119.378 359.695 118.318L359.685 118.308ZM347.955 136.018L341.935 136.988C339.345 138.688 343.695 159.608 345.495 163.508C348.015 168.968 353.565 166.758 353.185 159.998C353.045 157.538 348.905 136.798 347.965 136.018H347.955Z" fill="#D4DEE8"/>
<path d="M399.955 154.007L391.975 122.037L409.555 124.457C415.145 147.547 418.805 170.947 419.735 194.757L403.975 200.017C403.825 194.447 404.365 188.837 403.725 183.257C403.475 181.087 402.785 172.407 398.995 174.037C393.415 176.437 401.015 194.357 397.685 199.727L379.965 202.027C381.875 173.827 373.725 147.087 367.975 120.027L384.065 120.937L392.975 152.017L399.965 154.007H399.955Z" fill="#D4DEE8"/>
<path d="M401.965 204.017C402.085 213.457 404.515 218.717 393.825 221.227L388.985 262.047L375.975 266.017C374.085 263.977 380.235 231.567 380.035 225.057C379.835 218.587 367.895 224.428 366.905 225.958C364.675 229.418 359.885 258.557 371.955 250.007L370.145 266.747L349.905 271.178C344.265 267.058 352.915 220.537 353.795 211.307L401.955 204.017H401.965Z" fill="#D4DEE8"/>
<path d="M347.985 212.027C344.705 225.277 346.915 262.957 339.855 272.907C336.665 277.397 330.635 275.327 326.005 278.027L327.975 264.037H322.035C321.385 277.147 317.945 282.647 303.995 282.017L314.215 221.257C319.425 211.947 338.325 212.527 347.985 212.027ZM331.975 230.027C327.465 229.257 328.025 230.387 327.005 233.937C325.985 237.487 323.045 247.057 326.985 249.977C334.145 245.227 331.825 237.447 331.975 230.027Z" fill="#D4DEE8"/>
<path d="M437.945 198.027L435.085 252.147L421.975 256.017V232.037C416.775 245.117 418.765 262.407 399.975 260.007L404.835 203.887L419.945 202.027C419.365 207.117 418.105 211.697 417.855 216.927C417.755 219.107 416.535 226.387 419.925 226.007L425.725 201.227L437.925 198.027H437.945Z" fill="#D4DEE8"/>
<path d="M435.935 128.018L437.795 135.138L452.165 137.258C457.835 152.758 462.515 169.388 461.925 185.998C455.435 186.678 443.835 184.948 445.935 194.028L420.465 162.688L431.835 129.188L435.925 128.008L435.935 128.018Z" fill="#D4DEE8"/>
<path d="M250.025 294.017L252.005 286.037C248.905 283.407 239.765 292.007 240.095 285.137C240.315 280.547 243.035 273.977 243.745 268.747C244.705 261.627 244.765 241.557 246.265 237.267C247.655 233.267 258.425 234.457 257.005 224.037L279.985 255.027C271.895 269.107 262.665 283.547 250.035 294.027L250.025 294.017Z" fill="#D4DEE8"/>
<path d="M309.975 216.027C309.465 220.477 311.085 226.668 309.685 230.718C308.625 233.788 303.995 233.808 302.405 237.438C298.455 246.488 298.645 281.508 290.595 285.628C288.765 286.568 277.005 288.747 275.995 287.997L286.025 239.047L277.975 238.027L278.855 221.878L309.975 216.017V216.027Z" fill="#D4DEE8"/>
<path d="M473.935 194.027C476.465 196.387 466.195 214.867 466.135 218.987C466.075 223.107 473.855 241.897 471.935 243.987L459.845 245.187L453.965 228.037L452.955 246.037C450.685 250.687 444.365 250.297 439.955 250.017L442.175 198.257L455.025 197.937L457.915 216.017L462.885 195.977L473.925 194.037L473.935 194.027Z" fill="#D4DEE8"/>
<path d="M501.935 190.017V225.017C501.935 229.767 498.345 238.807 492.895 239.987C486.175 241.737 494.165 227.547 485.945 230.017L484.065 241.157L473.915 240.997L480.075 195.157C483.615 190.187 496.065 189.967 501.935 190.017ZM487.965 220.017C493.605 218.077 491.805 210.917 491.925 206.017C486.285 207.957 488.085 215.117 487.965 220.017Z" fill="#D4DEE8"/>
<path d="M231.995 238.007C231.395 247.267 228.585 289.717 222.025 293.037C219.505 294.307 216.695 294.077 214.005 293.997L225.265 237.937L231.985 238.007H231.995Z" fill="#D4DEE8"/>
<path d="M477.945 142.018C478.265 152.938 485.245 166.438 485.515 177.638C485.685 184.578 479.415 187.538 478.005 181.018C474.695 165.718 472.545 155.918 468.015 140.938C466.235 135.038 474.645 137.958 477.945 142.028C477.915 140.888 477.795 138.158 477.955 138.038C486.385 131.748 492.785 164.638 491.965 170.018L493.735 163.248L488.935 138.028C495.605 146.678 500.085 163.168 501.115 173.998C501.455 177.528 502.935 179.388 498.905 181.998L494.935 171.998L493.925 182.028H487.945C485.695 169.418 486.355 152.398 477.935 142.018H477.945Z" fill="#D4DEE8"/>
<path d="M243.995 236.008C245.965 237.858 238.325 287.578 236.145 289.148C233.965 290.718 230.545 289.878 228.025 290.008L236.315 236.318L244.005 236.008H243.995Z" fill="#D4DEE8"/>
<path d="M219.995 240.027C218.195 250.667 215.705 290.357 208.775 295.797C206.895 297.277 204.515 298.377 202.015 298.017L212.055 240.057L219.985 240.027H219.995Z" fill="#D4DEE8"/>
<path d="M475.955 184.007L465.965 186.017L455.955 136.027C458.585 136.107 461.615 135.367 464.025 136.937C468.825 140.057 474.855 176.387 475.955 184.007Z" fill="#D4DEE8"/>
</svg>
