<svg width="700" height="400" viewBox="0 0 700 400" fill="none" xmlns="http://www.w3.org/2000/svg">
<path d="M294.89 170.687L301.915 153.039C304.227 141.756 306.954 127.023 310.561 116.243C312.221 111.283 320.728 89.7625 325.491 89.7131C335.53 102.133 322.497 119.682 318.683 132.27C314.869 144.858 312.903 156.893 308.713 168.72L340.312 118.328L365.004 89.7131C366.743 91.2644 368.018 91.9461 367.988 94.5744C367.939 99.2085 330.342 149.186 324.809 158.158C322.339 162.159 321.479 167.614 318.989 172.1C316.499 176.586 311.045 179.856 309.583 184.411C306.075 195.27 313.486 206.949 312.656 218.124C315.62 218.559 317.31 217.937 319.711 216.277C330.135 209.054 335.994 177.979 341.3 164.768C347.713 148.83 356.734 133.762 362.07 117.34C365.41 116.698 366.16 118.101 367.494 120.778C374.569 135.046 365.271 171.734 365.992 189.48C366.121 192.523 364.145 197.305 368.927 196.367C379.312 177.564 382.978 146.607 394.765 129.325C396.05 127.448 409.784 112.4 410.871 111.767C416.405 108.576 423.242 112.261 429.2 109.435C428.548 129.77 419.161 147.733 413.381 166.734C408.253 167.544 409.31 165.806 409.379 161.745C409.587 148.969 414.794 137.576 417.057 125.877C418.144 120.265 411.879 123.871 409.429 126.193C388.916 145.718 388.649 181.042 383.264 206.732C379.341 225.466 374.065 239.2 376.189 260.325C376.496 263.428 377.879 266.343 377.859 269.485C380.824 272.212 387.859 259.91 388.738 257.668C393.224 246.196 396.09 212.897 400.546 206.238C401.079 205.437 403.016 203.649 403.51 204.281C400.575 210.862 407.64 212.127 407.64 215.012C407.67 224.221 396.534 262.025 391.376 270.187C382.395 284.405 368.077 284.751 365.894 266.61C365.143 260.395 363.631 240.593 363.868 234.922C364.125 228.618 372.385 221.84 364.036 218.105L361.586 246.305L350.213 287.251C341.113 267.874 346.3 245.821 350.361 225.189C350.756 223.164 357.159 214.429 351.191 214.192C350.084 214.152 332.091 223.174 331.479 224.083C329.997 226.296 328.801 233.489 327.092 237.392C321.766 249.536 320.59 263.616 316.489 277.903C316.025 279.514 313.249 279.346 312.834 280.907C309.761 292.33 314.118 304.335 298.832 307.012C298.042 306.252 297.36 289.454 297.755 287.162C298.941 280.186 303.259 276.698 304.336 272.044C305.798 265.75 300.354 217.66 298.358 209.667C297.627 206.752 296.234 204.222 293.862 202.325L288.784 227.867L285.009 225.99L273.113 283.318C260.821 280.285 269.654 270.108 271.057 262.47C272.757 253.231 271.196 244.832 276.986 235.297C278.181 233.331 282.203 233.094 282.845 230.722C283.646 227.719 279.673 221.029 282.045 216.168L243.47 279.366L238.48 277.439C235.19 272.439 242.363 259.397 245.14 254.338C253.015 239.971 281.521 206.564 283.804 194.025C285.632 183.996 281.452 140.925 279.031 130.185C278.399 127.369 279.14 124.059 275.128 123.249L247.146 210.882C243.668 217.107 247.067 227.65 245.614 232.718C244.992 234.872 240.358 233.46 238.54 235.821C236.84 238.044 226.001 279.84 224.242 286.786C221.801 296.479 225.862 311.706 209.915 310.975C209.964 304.018 209.124 296.726 211.565 289.978C217.859 272.568 223.402 260.088 228.204 241.334C229.558 236.048 236.85 228.341 237.097 222.689C237.285 218.421 230.921 204.449 229.568 199.203L233.619 195.379C230.704 192.414 227.928 188.492 226.673 184.53C222.888 172.613 215.972 140.174 215.665 128.179C215.537 123.258 216.733 110.127 222.355 117.804C235.763 136.113 240.753 169.274 241.514 191.446C241.593 193.827 240.051 198.788 243.48 198.323L247.432 192.414C247.165 186.852 248.282 181.407 249.972 176.151C259.111 147.615 264.743 129.889 278.745 104.08C281.284 99.3963 277.361 93.1318 284.001 89.6834C290.384 89.5945 289.604 113.526 290.266 118.951C291.313 127.567 291.955 133.376 292.706 142.002C293.536 151.468 296.293 160.697 294.88 170.657L294.89 170.687ZM336.38 208.244L355.865 199.094L360.054 150.935C357.07 151.449 356.22 154.531 355.163 156.893C350.312 167.762 348.731 178.621 345.796 189.016C343.691 196.456 338.929 201.436 336.389 208.244H336.38ZM365.973 214.162V210.23H364.036V214.162H365.973ZM318.574 239.842L317.596 228.015C313.387 229.863 312.952 243.696 318.574 239.842Z" fill="#D4DEE8"/>
<path d="M456.876 200.339C452.657 214.735 439.694 252.629 423.361 256.838C420.446 257.589 415.999 255.128 415.436 255.662C414.873 256.195 412.877 267.855 408.47 269.465C397.967 260.049 407.047 251.887 408.964 242.333C413.391 220.219 413.648 196.92 421.276 175.617L413.46 173.661C415.169 170.005 421.997 167.891 423.232 165.193C426.928 157.101 427.688 143.475 430.109 135.205C431.927 129 442.836 92.2824 444.97 90.5928C455.157 82.5399 447.549 107.578 447.529 108.833C447.47 112.093 450.355 114.248 450.068 117.538C449.387 125.383 430.702 159.156 435.178 164.768C451.205 158.266 455.503 187.089 456.896 198.363V200.339H456.876ZM431.196 172.663C427.54 196.031 420.881 219.093 416.849 242.382C416.424 244.842 414.221 244.892 418.331 247.728C430.831 242.777 439.783 221.425 442.292 208.896C444.595 197.395 446.956 172.959 431.196 172.663Z" fill="#D4DEE8"/>
<path d="M456.876 200.339C456.807 199.687 456.955 199.015 456.876 198.362C467.893 169.985 466.54 126.855 479.958 100.068C481.48 97.0246 485.649 95.4042 488.465 93.6355C493.159 102.884 486.924 108.467 485.432 117.231C479.563 151.577 467.755 182.385 461.194 215.703C457.756 233.153 458.22 256.363 452.805 274.317C451.462 278.783 448.586 285.284 445.988 289.256C438.528 291.015 442.836 269.376 443.518 265.028C446.403 246.502 458.586 216.355 456.886 200.339H456.876Z" fill="#D4DEE8"/>
</svg>
