<svg width="700" height="400" viewBox="0 0 700 400" fill="none" xmlns="http://www.w3.org/2000/svg">
<path d="M432.98 201.992V143.992H465.97C466.32 143.992 469.5 147.072 469.94 148.022C471.65 151.672 471.81 195.682 470.1 198.122L432.98 201.992ZM454.98 157.992H448.98V191.992L451.95 191.972L454.98 188.992V157.992Z" fill="#D4DEE8"/>
<path d="M267.03 143.992V185.992C270.12 186.462 269.4 182.272 269.99 179.972C273.01 168.232 274.38 155.962 277.23 144.192L291.03 143.992V195.992L253.04 197.992V143.992H267.04H267.03Z" fill="#D4DEE8"/>
<path d="M516.96 203.992V252.992L513.96 255.992H478.97V205.992L516.96 203.992ZM500.97 241.992V210.992L497.97 208.032L494.97 210.992V241.992H500.97Z" fill="#D4DEE8"/>
<path d="M255.03 206.992L258.18 204.212C263.43 207.682 268.46 203.882 271.88 203.952C273.11 203.982 272.82 207.592 274.36 207.972C280.68 209.522 290.13 204.932 295.02 210.992V255.992H279.02V215.992L270.11 254.072L255.03 255.992V206.992Z" fill="#D4DEE8"/>
<path d="M339.01 143.992V190.992L335.7 193.682L323.01 193.992V157.992H315.02V195.992H301.02V143.992H339.01Z" fill="#D4DEE8"/>
<path d="M245.03 195.992C234.45 188.282 219.4 195.572 209.04 186.992V143.992H242.03L245.03 146.992V195.992ZM223.04 157.992V187.992H231.03C230.05 182.102 233.24 161.852 229.15 158.882L223.04 157.992Z" fill="#D4DEE8"/>
<path d="M347.01 143.993C352.83 144.923 366.41 141.753 370.02 145.973C373.9 150.513 375.9 180.413 376 188.013C384.3 178.983 377.42 176.033 376.79 169.013C376.22 162.633 379.77 152.623 378.84 145.263L384.99 143.993V195.993L368.99 193.993V157.993H362.99V191.993H346.99V143.993H347.01Z" fill="#D4DEE8"/>
<path d="M426.99 143.992L427 158.002L408.98 157.982V176.002L421 175.982V192.002L409.07 192.082L406.09 201.492L393 196.992V143.992H426.99Z" fill="#D4DEE8"/>
<path d="M490.97 143.993V185.993L512.08 187.863C516.4 199.633 509.51 199.263 500.04 200.073C467.59 202.863 476.9 199.173 477.06 177.093C477.13 166.583 474.94 157.503 475.25 147.263C477.04 141.913 486.54 144.423 490.97 143.983V143.993Z" fill="#D4DEE8"/>
<path d="M211.04 203.992H249.04C250.62 218.922 237.96 216.112 227.04 215.992V255.992H211.04V203.992Z" fill="#D4DEE8"/>
<path d="M205.04 143.992L205.05 158.002L193.05 157.992V187.992L177.05 185.992V157.992L165.04 158.002L165.05 143.992H205.04Z" fill="#D4DEE8"/>
<path d="M396.99 205.992L410.71 208.282L411.86 240.122L432.99 241.982L432.98 255.992H396.99V205.992Z" fill="#D4DEE8"/>
<path d="M436.98 205.992H474.96C474.1 219.392 462.78 215.822 452.98 215.992V255.992H436.98V205.992Z" fill="#D4DEE8"/>
<path d="M532.96 143.992H516.96V199.992H532.96V143.992Z" fill="#D4DEE8"/>
<path d="M367 205.992V248.992C367 257.762 351.08 256.312 345 256.002L345.25 242.122L351.01 241.992V205.992H367.01H367Z" fill="#D4DEE8"/>
<path d="M197.05 203.992V255.992H181.05V201.992L197.05 203.992Z" fill="#D4DEE8"/>
<path d="M389 205.992H373V255.992H389V205.992Z" fill="#D4DEE8"/>
<path d="M319.01 207.992V250.992C319.01 256.402 303.28 256.722 299.01 256.002C299.37 252.422 298.39 248.272 298.86 244.862C299.39 241.012 302.69 242.952 303.17 239.132C303.82 233.962 301.75 211.952 303.23 210.212L319.01 208.002V207.992Z" fill="#D4DEE8"/>
<path d="M534.96 205.992V255.992H520.96V203.992L534.96 205.992Z" fill="#D4DEE8"/>
<path d="M341.01 205.992H327.01V255.992H341.01V205.992Z" fill="#D4DEE8"/>
</svg>
