<svg width="700" height="400" viewBox="0 0 700 400" fill="none" xmlns="http://www.w3.org/2000/svg">
<path d="M242.317 195.769L242.176 168.869L248.446 166.679C246.876 159.389 250.646 140.979 247.246 135.749C246.346 134.359 242.797 134.419 242.267 132.379C240.547 125.819 243.587 113.249 242.307 105.769L320.307 107.769L320.436 132.679L314.167 134.869V166.679L320.436 168.869L320.297 195.769H242.317ZM318.297 109.769H244.317L244.176 130.669L250.446 132.859V168.669L244.176 170.859L244.317 193.759H277.307C283.117 188.229 279.216 178.289 280.446 170.859L274.176 168.669C276.866 158.079 268.017 132.829 281.267 131.679C282.877 131.539 286.337 130.899 286.337 132.919C285.137 143.549 287.796 156.679 286.466 166.899C285.986 170.599 282.737 169.519 282.357 171.139C280.907 177.329 283.287 187.009 282.317 193.759H315.307C321.117 188.229 317.216 178.289 318.446 170.859L312.176 168.669V132.859L318.446 130.669L318.307 109.769H318.297ZM284.297 133.769H278.297V167.769H284.297V133.769Z" fill="#D4DEE8"/>
<path d="M310.297 205.769L310.437 232.669L304.167 234.859V264.669L310.437 266.859L310.297 293.759H232.317L232.177 266.859L238.447 264.669V234.859L232.177 232.669L232.317 205.769H310.297ZM308.297 207.769H234.317C235.237 213.749 232.797 223.249 234.617 228.529C235.647 231.539 239.927 230.199 240.487 234.689C241.137 239.949 241.277 260.049 240.367 264.839C239.427 269.799 234.837 268.959 234.277 271.169C232.927 276.489 235.307 285.769 234.327 291.769H270.317C269.437 285.549 271.617 276.859 270.277 271.149C269.897 269.529 266.647 270.609 266.167 266.909C264.787 256.349 267.507 242.739 266.317 231.769L275.167 231.749C276.907 231.999 276.947 263.389 276.477 266.919C275.997 270.619 272.747 269.539 272.367 271.159C271.027 276.869 273.197 285.559 272.327 291.779H308.317C307.337 285.779 309.717 276.499 308.367 271.179C307.807 268.969 303.217 269.809 302.277 264.849C301.367 260.069 301.507 239.959 302.157 234.699C302.707 230.209 306.987 231.549 308.027 228.539C309.847 223.259 307.407 213.759 308.327 207.779L308.297 207.769ZM274.307 233.769H268.307V265.769H274.307V233.769Z" fill="#D4DEE8"/>
<path d="M230.317 205.769V243.769H202.327V265.779L229.447 267.639L230.317 293.769H185.327C184.477 293.769 173.797 282.679 173.367 281.729C171.717 278.099 171.257 226.679 172.377 220.809C172.957 217.769 184.317 205.769 185.327 205.769H230.317ZM226.317 207.769H187.327C186.317 207.769 174.957 219.769 174.377 222.809C173.287 228.519 173.717 276.089 175.367 279.729C175.797 280.679 186.477 291.769 187.327 291.769H226.317V269.759L200.327 269.769V231.769L202.317 241.779H226.317V207.769Z" fill="#D4DEE8"/>
<path d="M528.237 205.769V243.769H504.237C505.227 249.759 502.857 259.059 504.197 264.369C504.757 266.579 509.347 265.739 510.287 270.699C511.537 277.299 509.317 286.719 510.237 293.769H468.247C469.167 286.719 466.947 277.299 468.197 270.699C469.137 265.739 473.727 266.579 474.287 264.369C475.637 259.049 473.257 249.759 474.247 243.759H450.247V205.769H528.227H528.237ZM526.237 241.769V210.769L523.237 207.769H452.257V241.769H474.257L476.247 229.769V269.769L470.117 270.849L470.247 291.769H505.237C510.847 286.769 507.317 277.729 508.367 270.859L502.237 269.769V229.769L504.227 241.779H526.227L526.237 241.769Z" fill="#D4DEE8"/>
<path d="M433.267 205.769C434.287 206.059 447.347 219.479 447.857 221.179C448.997 225.009 449.057 248.379 448.217 252.729C446.667 260.819 429.707 274.039 420.257 269.759V293.769H380.277L380.137 266.869L386.407 264.679V234.869L380.137 232.679L380.277 205.779H433.267V205.769ZM431.267 207.769H382.277L382.137 230.669L388.407 232.859C386.877 242.509 390.027 255.799 388.317 264.829C387.377 269.789 382.787 268.949 382.227 271.159C380.877 276.479 383.257 285.759 382.277 291.759H418.267L418.317 271.049L414.277 267.779C429.887 270.699 439.147 263.559 446.217 250.719L445.847 223.169L431.257 207.759L431.267 207.769Z" fill="#D4DEE8"/>
<path d="M378.277 167.769C378.587 167.709 379.417 166.259 380.277 165.769C379.587 166.399 378.997 167.179 378.277 167.769Z" fill="#D4DEE8"/>
<path d="M388.277 157.769C389.167 153.219 389.107 129.439 388.227 124.809C387.007 118.389 378.747 116.659 378.277 109.769C380.977 111.679 386.957 116.179 388.387 118.669C391.827 124.699 391.307 151.299 388.277 157.769Z" fill="#D4DEE8"/>
<path d="M382.277 163.769C382.897 163.309 383.817 162.389 384.277 161.769C383.697 162.479 382.947 163.129 382.277 163.769Z" fill="#D4DEE8"/>
<path d="M384.277 161.769C384.867 161.049 385.757 160.479 386.277 159.769C385.877 160.469 384.817 161.049 384.277 161.769Z" fill="#D4DEE8"/>
<path d="M386.277 159.769C386.767 158.909 388.217 158.079 388.277 157.769C387.947 158.469 386.797 159.059 386.277 159.769Z" fill="#D4DEE8"/>
<path d="M378.277 109.77H326.277C327.167 115.98 324.997 124.69 326.327 130.39C326.707 132.01 329.957 130.93 330.437 134.63C331.247 140.85 331.247 160.67 330.437 166.9C329.957 170.6 326.707 169.52 326.327 171.14C324.877 177.33 327.247 187.01 326.287 193.76H362.277C361.357 187.56 363.587 178.7 362.307 173.05C361.837 170.96 356.187 172.98 358.287 167.77C359.397 166.81 374.357 168.53 378.267 167.76C373.157 171.93 372.537 172.88 364.257 171.75V195.76H325.277C319.157 189.12 323.617 177.45 322.137 168.86L328.407 166.67V134.86L322.137 132.67L323.197 107.67L373.457 105.9C377.457 106.01 377.257 109.06 378.257 109.77H378.277Z" fill="#D4DEE8"/>
<path d="M380.277 165.769C380.967 165.139 381.597 164.419 382.277 163.769C381.557 164.309 380.977 165.369 380.277 165.769Z" fill="#D4DEE8"/>
<path d="M327.697 206.178C331.557 205.028 359.017 205.028 362.867 206.178C365.147 206.858 375.187 216.898 375.867 219.178C377.237 223.768 377.327 272.988 376.227 278.728C375.567 282.158 366.047 292.418 362.867 293.368C359.007 294.518 331.547 294.518 327.697 293.368C325.417 292.688 315.377 282.648 314.697 280.368C313.327 275.778 313.237 226.558 314.337 220.818C314.997 217.388 324.517 207.128 327.697 206.178ZM329.697 208.178C326.517 209.128 316.997 219.378 316.337 222.818C315.277 228.358 315.367 273.878 316.697 278.368C317.377 280.648 327.407 290.688 329.697 291.368C333.487 292.498 357.077 292.498 360.867 291.368C364.047 290.418 373.567 280.168 374.227 276.728C375.287 271.188 375.197 225.668 373.867 221.178C373.187 218.898 363.157 208.858 360.867 208.178C357.077 207.048 333.487 207.048 329.697 208.178Z" fill="#D4DEE8"/>
<path d="M450.257 185.769C450.807 185.019 451.877 184.429 452.257 183.769C451.717 184.509 450.847 185.059 450.257 185.769Z" fill="#D4DEE8"/>
<path d="M446.257 189.769C446.947 189.259 447.617 188.409 448.257 187.769C447.597 188.429 446.977 189.179 446.257 189.769Z" fill="#D4DEE8"/>
<path d="M454.257 181.769V119.769C455.647 122.729 456.027 122.359 456.387 126.569C457.427 138.849 457.727 165.039 456.387 176.989C456.007 180.359 454.947 180.319 454.267 181.769H454.257Z" fill="#D4DEE8"/>
<path d="M448.257 113.769C447.507 113.209 446.907 112.139 446.257 111.769C446.997 112.309 447.547 113.179 448.257 113.769Z" fill="#D4DEE8"/>
<path d="M442.257 193.769C442.567 193.709 443.397 192.259 444.257 191.769C443.547 192.289 442.957 193.439 442.257 193.769Z" fill="#D4DEE8"/>
<path d="M446.257 111.769C445.397 111.279 444.567 109.829 444.257 109.769C444.957 110.099 445.547 111.249 446.257 111.769Z" fill="#D4DEE8"/>
<path d="M454.257 119.769C453.597 119.159 452.697 118.549 452.257 117.769C452.777 118.479 453.927 119.069 454.257 119.769Z" fill="#D4DEE8"/>
<path d="M452.257 117.769C451.887 117.119 450.817 116.519 450.257 115.769C450.847 116.479 451.707 117.029 452.257 117.769Z" fill="#D4DEE8"/>
<path d="M450.257 115.769C449.797 115.149 448.877 114.229 448.257 113.769C448.947 114.339 449.687 115.079 450.257 115.769Z" fill="#D4DEE8"/>
<path d="M444.257 191.769C444.917 191.389 445.507 190.319 446.257 189.769C445.547 190.359 444.997 191.229 444.257 191.769Z" fill="#D4DEE8"/>
<path d="M406.267 191.769C405.527 191.239 404.977 190.349 404.267 189.769C405.067 190.249 405.727 191.549 406.267 191.769Z" fill="#D4DEE8"/>
<path d="M400.277 185.769C399.697 185.049 398.827 184.509 398.277 183.769C398.647 184.429 399.717 185.019 400.277 185.769Z" fill="#D4DEE8"/>
<path d="M398.277 183.769C397.757 183.059 396.607 182.469 396.277 181.769C396.337 182.079 397.787 182.909 398.277 183.769Z" fill="#D4DEE8"/>
<path d="M402.267 187.769C401.597 187.129 400.847 186.489 400.267 185.769C400.757 186.419 401.627 187.219 402.267 187.769Z" fill="#D4DEE8"/>
<path d="M442.257 193.769C436.167 196.619 420.357 196.749 413.137 195.869C406.737 195.089 408.357 193.249 406.267 191.769C412.417 194.249 435.687 195.059 442.257 193.769Z" fill="#D4DEE8"/>
<path d="M448.257 187.769C448.897 187.129 449.747 186.459 450.257 185.769C449.667 186.489 448.917 187.109 448.257 187.769Z" fill="#D4DEE8"/>
<path d="M444.257 109.768C439.997 108.928 413.407 109.068 409.677 110.178C407.867 110.718 398.067 120.138 397.307 121.808C395.707 125.328 395.187 176.258 396.267 181.768C395.587 180.318 394.527 180.358 394.147 176.988C393.347 169.858 393.407 123.988 395.307 119.808C396.457 117.288 406.117 108.428 409.317 107.818C416.107 106.518 438.477 107.068 444.267 109.778L444.257 109.768Z" fill="#D4DEE8"/>
<path d="M404.267 189.769C403.547 189.179 402.937 188.419 402.267 187.769C402.977 188.369 403.617 189.379 404.267 189.769Z" fill="#D4DEE8"/>
<path d="M452.257 183.769C452.697 182.989 453.597 182.379 454.257 181.769C453.927 182.469 452.777 183.059 452.257 183.769Z" fill="#D4DEE8"/>
<path d="M314.297 113.769C318.497 123.369 308.637 127.689 308.257 129.169C307.227 133.139 307.467 165.429 308.137 170.849C308.587 174.479 318.377 177.949 314.307 187.769H286.317L286.557 173.899L292.317 173.769V127.769H270.327V173.769L276.087 173.899L276.327 187.769H248.337L248.567 173.889L254.477 172.669V128.859L248.567 127.639L248.337 113.759H314.317L314.297 113.769Z" fill="#D4DEE8"/>
<path d="M304.297 211.769L304.067 225.649L298.157 226.869V272.679L304.067 273.899L304.297 287.779H276.307L276.547 273.909L282.307 273.779V228.779L278.997 226.099C276.467 225.539 273.887 225.659 271.317 225.659C267.217 225.659 262.857 224.989 260.317 228.779V270.779C260.317 271.999 265.837 273.029 266.357 275.179C267.217 278.739 265.787 283.879 266.317 287.779H238.327L238.557 273.899L244.467 272.679V226.869L238.197 224.699L241.327 211.769H304.307H304.297Z" fill="#D4DEE8"/>
<path d="M222.317 211.769V237.779L208.186 236.909L206.317 225.759L194.317 228.779V273.779H222.307V287.779H189.317C188.607 287.779 179.797 278.719 179.357 277.739C177.697 274.089 177.307 230.379 178.367 224.819C178.957 221.739 188.327 211.779 189.317 211.779H222.307L222.317 211.769Z" fill="#D4DEE8"/>
<path d="M520.237 211.769V237.779H506.227V225.759L496.527 229.049C494.877 240.419 497.007 251.549 497.837 262.769C498.017 265.139 495.747 268.189 496.407 270.549C497.127 273.129 501.727 272.889 502.297 275.149C503.177 278.619 501.707 283.899 502.257 287.769C488.687 286.289 469.927 294.589 474.497 273.889L480.387 272.659L480.237 225.749H472.267L470.377 236.889H458.117C455.187 234.849 454.487 214.879 459.247 211.759H520.227L520.237 211.769Z" fill="#D4DEE8"/>
<path d="M429.267 211.769C430.217 212.039 439.357 221.499 439.857 223.179C441.437 228.489 440.987 250.289 438.377 254.879C431.847 266.369 419.577 263.839 408.267 263.769L408.507 273.649L414.407 274.869L414.267 287.779H386.277L386.507 273.899L392.417 272.679V226.869L386.507 225.649L386.277 211.769C397.547 213.819 419.537 208.989 429.267 211.769ZM424.277 225.759H408.257V249.779H424.277V225.759Z" fill="#D4DEE8"/>
<path d="M373.277 113.769C374.227 114.039 383.367 123.499 383.867 125.179C385.427 130.439 384.997 150.279 382.387 154.879C375.847 166.369 363.587 163.839 352.277 163.769C349.407 175.499 361.867 174.819 358.287 187.779H330.297L330.527 173.899L336.437 172.679V128.869L330.527 127.649L330.297 113.769C341.567 115.819 363.557 110.989 373.287 113.769H373.277ZM368.287 127.759H352.267V149.779H368.287V127.759Z" fill="#D4DEE8"/>
<path d="M331.697 212.18C341.967 209.12 366.097 210.5 369.867 223.18C371.167 227.54 371.247 269.41 370.227 274.73C366.737 292.94 325.637 292.96 320.687 276.37C319.387 272.01 319.307 230.14 320.327 224.82C320.987 221.38 328.467 213.14 331.687 212.18H331.697ZM354.287 273.77V228.77C350.287 224.11 340.287 224.11 336.287 228.77V273.77H354.287Z" fill="#D4DEE8"/>
<path d="M411.677 114.18C421.947 111.12 446.077 112.5 449.847 125.18C451.147 129.55 451.227 171.38 450.207 176.73C447.037 193.33 405.397 192.24 400.667 176.37C399.387 172.07 399.297 132.05 400.307 126.82C400.967 123.38 408.447 115.14 411.667 114.18H411.677ZM434.267 127.77H416.267V173.77H434.267V127.77Z" fill="#D4DEE8"/>
<path d="M420.257 231.759V243.779H412.277V231.759H420.257ZM418.257 241.759L417.277 233.779C414.197 235.939 413.797 238.069 414.277 241.759H418.257Z" fill="#D4DEE8"/>
<path d="M362.277 131.759V145.779H356.297V131.759H362.277ZM360.267 143.759V133.779H358.307V143.759H360.267Z" fill="#D4DEE8"/>
<path d="M348.287 231.769V269.769H342.287V231.769H348.287ZM346.287 265.769V233.769H344.287V265.769H346.287Z" fill="#D4DEE8"/>
<path d="M430.267 169.769H422.267V131.769C424.587 130.959 430.267 132.649 430.267 134.769V169.769ZM426.267 167.769V133.769H424.267V167.769H426.267Z" fill="#D4DEE8"/>
</svg>
