<svg width="700" height="400" viewBox="0 0 700 400" fill="none" xmlns="http://www.w3.org/2000/svg">
<path d="M339.31 253.46C335.37 256.91 328.04 259.48 322.91 260.09C319.93 260.45 319.45 260.55 320.2 257.37C323.91 241.58 338.01 231.18 339.66 216.63C340.16 212.22 338.15 209.05 338.81 204.14C340.29 193.02 348.17 190.35 352.02 181.19C355.64 172.6 355.83 139.59 364.66 140.38C383.83 142.11 369.7 177.59 364.39 187.55C362.31 191.46 357.29 194.57 356.4 197.56C354.87 202.7 356.74 209.35 355.79 214.95C353.98 225.67 347.47 246.32 339.31 253.46Z" fill="#D4DEE8"/>
<path d="M539.95 140.18L498.19 258.97L481.98 260.14L522.93 142.12C526.18 138.21 535.25 140.78 539.95 140.17V140.18Z" fill="#D4DEE8"/>
<path d="M216.03 140.169L175.87 256.989C172.61 262.189 165.51 259.789 160.05 260.149L200.23 140.359L216.02 140.169H216.03Z" fill="#D4DEE8"/>
<path d="M443.98 194.158L421.02 258.188L403.97 259.138L445.76 141.348L462.01 141.198C455.73 157.308 450.23 173.378 445.98 190.168L443.98 194.168V194.158Z" fill="#D4DEE8"/>
<path d="M445.98 190.159C452.38 184.389 466.58 142.809 470.29 140.489C472.95 138.819 482.07 140.919 485.97 140.179C480.04 158.709 464.58 178.569 459.34 196.529C456.76 205.379 450.23 257.859 447.77 259.949L431.99 260.149L443.98 194.159C445.52 193.169 445.58 191.729 445.98 190.159Z" fill="#D4DEE8"/>
<path d="M405.99 140.169L366.22 258.969L350.01 260.149L390.98 142.149C394.15 138.339 401.61 140.669 405.99 140.169Z" fill="#D4DEE8"/>
<path d="M314.01 140.17L274.24 258.97L258.03 260.14L298.18 143.32C301.44 138.12 308.55 140.51 314.01 140.16V140.17Z" fill="#D4DEE8"/>
<path d="M509.95 140.169L469 258.189L451.98 260.149L492.93 142.129L509.95 140.169Z" fill="#D4DEE8"/>
<path d="M358 140.178L317.04 258.188L300.02 260.148L340.97 142.128L358 140.178Z" fill="#D4DEE8"/>
<path d="M435.97 140.168L397.09 254.268C394.56 262.478 386.97 260.058 379.99 260.148L420.15 143.328C423.41 138.128 430.51 140.528 435.97 140.168Z" fill="#D4DEE8"/>
<path d="M268.011 140.179L225.041 260.119C215.231 255.879 215 246.809 216.2 237.329C217.98 223.359 234.29 180.229 240.49 165.639C245.84 153.039 251.49 137.829 268 140.179H268.011Z" fill="#D4DEE8"/>
<path d="M230.041 260.15C239.261 235.83 249.801 212.2 258.061 187.2C262.201 174.66 264.841 155.46 269.881 145.03C276.871 130.58 283.171 152.57 281.841 163C280.121 176.51 265.271 214.26 259.521 228.66C253.771 243.06 248.731 261.08 230.041 260.15Z" fill="#D4DEE8"/>
<path d="M180.06 260.158C177.77 245.348 192.6 236.318 196.15 225.268C199.96 213.408 197.22 203.538 203.12 190.148C206.45 182.608 209.3 186.978 212.43 192.758C222.89 212.108 205.81 258.258 180.06 260.148V260.158Z" fill="#D4DEE8"/>
<path d="M236.021 140.178C232.101 153.928 232.011 165.848 214.041 162.158L220.311 140.448L236.021 140.178Z" fill="#D4DEE8"/>
<path d="M300.01 238.178L292.1 259.248L278.03 260.148L284.3 238.438L300.01 238.178Z" fill="#D4DEE8"/>
<path d="M332.01 140.169C330.47 154.149 329.47 165.869 312.02 162.149C315.72 150.119 315.7 136.599 332.01 140.169Z" fill="#D4DEE8"/>
<path d="M383.97 224.149C380.1 224.599 382.881 220.499 383.411 218.598C386.211 208.549 390.951 199.099 393.931 189.109L407.97 166.178C403.98 187.168 392.57 205.039 383.97 224.149Z" fill="#D4DEE8"/>
<path d="M485.94 224.149C481.87 224.469 484.95 220.579 485.56 218.769C491.47 201.309 497.28 182.019 509.94 168.169C505.56 188.409 495.3 206.049 485.94 224.149Z" fill="#D4DEE8"/>
<path d="M314 188.178L307.73 207.888L296.02 208.148L302.28 188.428L314 188.178Z" fill="#D4DEE8"/>
<path d="M510.96 164.159C512.26 164.829 512.26 165.489 510.96 166.159V164.159Z" fill="#D4DEE8"/>
</svg>
