<svg width="700" height="400" viewBox="0 0 700 400" fill="none" xmlns="http://www.w3.org/2000/svg">
<path d="M152.099 257.981C153.489 252.051 157.729 247.441 157.899 240.791C158.139 231.381 156.789 210.171 152.089 202.971L156.139 201.011V196.971L152.009 194.971C158.879 180.201 157.989 156.801 152.099 141.991C162.579 146.721 180.729 139.791 188.139 148.921C192.859 154.741 193.869 175.231 191.889 182.751C190.779 186.961 186.009 193.221 186.279 194.691C186.629 196.631 190.679 198.941 191.839 201.231C196.419 210.281 196.779 243.511 190.129 251.021C181.119 261.191 163.559 251.871 152.099 257.961V257.981ZM172.079 193.991C175.919 194.581 177.439 192.431 178.069 188.991C178.519 186.561 178.239 156.941 177.729 155.331C176.879 152.671 174.829 151.481 172.089 151.991V193.991H172.079ZM172.079 203.991V247.991C180.929 248.731 182.649 242.521 182.299 234.931C182.059 229.741 178.909 226.441 178.829 224.941C178.649 221.371 185.899 213.031 180.269 205.161L172.069 203.991H172.079Z" fill="#D4DEE8"/>
<path d="M446.008 242.991C446.108 243.821 448.788 245.681 447.998 247.981H428.018C432.118 237.781 433.978 221.851 431.958 211.051C431.128 206.621 423.408 201.741 431.978 201.951C425.948 196.081 431.799 194.911 432.159 187.131C432.749 174.431 431.988 163.991 428.018 152.011C437.078 156.551 438.888 153.841 447.998 152.011C442.318 166.511 443.249 180.821 446.109 195.881C448.319 196.141 450.818 196.361 453.028 196.091C454.708 195.881 456.649 196.141 458.129 195.131C460.779 193.321 462.528 156.811 456.038 153.001C455.998 149.611 475.008 150.331 477.978 150.991C472.418 159.681 472.729 178.711 473.879 189.121C474.269 192.651 475.078 194.861 477.998 197.021L474.018 198.011L473.978 200.991L478.069 203.011C470.529 216.581 473.378 235.491 477.988 249.991C468.888 248.161 467.078 245.451 458.008 249.991C456.788 247.151 459.998 244.051 459.998 243.001V207.001C459.998 202.911 445.998 202.911 445.998 207.001C445.998 218.091 444.768 232.481 445.998 243.001L446.008 242.991Z" fill="#D4DEE8"/>
<path d="M503.989 146L502.009 193.98C502.889 194.91 514.459 188.78 520.149 196.84C525.069 203.81 524.949 239.18 520.459 247.45C512.699 261.73 495.209 248.13 484.009 251.97C492.779 235.97 485.329 216.33 488.019 199.16L483.989 196.99C483.689 195.16 486.879 196.61 487.509 195.63C489.949 191.82 487.909 155.25 486.029 148C493.519 150.2 497.099 147.34 504.009 146H503.989ZM501.999 206.99V242.99C501.999 245.15 505.669 246.76 508.089 243.09C512.339 236.64 507.829 216.21 509.669 207.3L501.999 206.99Z" fill="#D4DEE8"/>
<path d="M402.049 206.001C403.619 219.511 397.279 235.791 408.029 245.981H382.049C387.619 235.081 389.639 225.901 387.589 213.471C386.659 207.871 381.539 203.041 382.689 196.701C383.589 191.761 387.679 188.121 387.909 182.851C387.989 180.951 386.119 162.241 385.779 161.211C384.569 157.451 378.159 159.661 380.049 154.021C406.659 155.491 423.589 145.821 423.619 181.011C423.629 195.221 420.849 214.981 402.049 206.011V206.001ZM402.029 161.991V199.991L408.199 198.821C409.379 192.501 411.009 166.981 408.199 163.161L402.029 161.991Z" fill="#D4DEE8"/>
<path d="M220.069 241.991L232.099 241.031L240.049 230.001L238.189 249.121C225.619 252.981 213.089 248.361 202.079 253.981C206.189 239.181 205.499 226.261 203.959 211.071C202.029 192.011 206.589 176.341 204.179 158.871C203.459 153.681 200.359 152.521 200.079 147.991L238.179 153.211L238.039 167.971C234.889 168.191 235.679 163.941 233.179 161.871C230.029 159.281 218.069 155.831 218.069 160.981V190.981C218.069 191.271 220.479 196.241 221.059 195.971L228.049 189.981V211.971C223.199 211.401 226.879 201.931 220.069 203.981V241.981V241.991Z" fill="#D4DEE8"/>
<path d="M336.039 154.012C329.209 162.052 331.889 172.572 334.029 181.982H322.059C323.669 177.962 326.839 160.352 319.079 162.002C314.879 162.892 315.259 186.472 316.099 190.942C317.079 196.162 324.519 198.592 316.049 200.982C321.939 208.822 316.069 224.212 318.089 234.962C319.079 240.222 324.399 240.812 324.039 245.992C319.229 248.512 312.679 242.692 311.029 242.672C309.049 242.642 304.549 249.142 299.099 248.012C293.549 243.842 301.259 242.442 302.169 235.112C303.219 226.592 301.219 216.122 302.109 207.292L298.039 205.012L302.069 202.842L302.049 162.022C290.479 161.492 298.859 181.192 298.049 182.002H286.079C289.729 170.992 288.469 162.372 284.079 152.022L290.969 155.112L336.049 154.032L336.039 154.012Z" fill="#D4DEE8"/>
<path d="M280.039 181.989H266.059L267.769 165.269L258.069 161.989L258.339 236.709C259.629 240.649 264.329 240.549 267.869 239.789C271.399 232.209 270.119 225.659 268.069 217.989C274.139 222.539 275.719 220.879 282.079 219.009C280.749 235.279 278.469 255.309 256.419 248.689C234.609 242.139 250.799 215.639 240.069 202.969L244.059 200.989L240.069 196.969C239.369 195.289 243.529 196.799 244.089 194.689C247.179 182.899 236.789 156.549 255.499 152.399C277.069 147.619 282.339 163.749 280.039 181.979V181.989Z" fill="#D4DEE8"/>
<path d="M358.039 237.99C361.819 238.25 365.549 237.89 368.829 235.79C375.179 231.72 370.968 223.49 378.018 224.01L377.159 244.13L338.049 245.99C338.449 240.59 342.959 238.84 343.919 232.89C344.699 228.06 344.409 220.18 343.789 215.2C342.769 206.95 336.668 204.93 338.178 195.26C338.398 193.87 341.319 194.16 342.379 191.27C346.189 180.88 345.249 162.88 338.029 154.01L376.149 154.86L378.008 171.98C371.738 173.27 374.359 166.05 368.639 164.37C365.319 163.39 361.458 164.12 358.018 163.99V195.99C364.338 197.53 362.439 186.51 368.029 191L367.998 211.99C361.908 209.34 367.198 201.72 358.018 203.99V237.99H358.039Z" fill="#D4DEE8"/>
<path d="M545.979 142.01C544.159 156.22 542.269 174.9 543.869 189.11C544.269 192.64 545.059 194.85 547.989 197.01C537.609 200.66 548.199 202.46 547.989 202.97C541.759 212.24 543.059 233.36 543.939 245.04C544.239 248.98 549.949 257.37 544.949 258C542.709 258.28 532.309 251.86 526.009 255.98C529.599 248.42 532.489 210.66 529.459 206.4C528.689 205.32 523.919 207.04 526.039 202.01L529.989 201.96C523.929 196.09 529.789 194.92 530.149 187.13C530.789 173.6 531.629 157.11 525.979 145.01L545.979 142V142.01Z" fill="#D4DEE8"/>
</svg>
