<svg width="700" height="400" viewBox="0 0 700 400" fill="none" xmlns="http://www.w3.org/2000/svg">
<path d="M312.015 223H320.015V251H304.005L304.015 239H266.025V251.01L250.025 251V223L257.925 222.91L268.025 157H309.015L312.015 160V223ZM296.015 223V176C293.745 171.95 283.185 171.55 280.905 174.88C279.945 189.21 274.115 205.96 273.945 219.97C273.895 224.21 273.875 222.54 276.955 223C282.715 223.87 290.005 222.36 296.015 222.99V223Z" fill="#D4DEE8"/>
<path d="M349.565 155.471C363.905 153.721 379.455 160.551 381.865 176.131C383.295 185.411 382.945 213.661 380.625 222.631C373.775 249.141 330.095 247.291 326.185 219.821C324.935 211.001 324.845 181.071 326.945 172.951C329.445 163.291 340.045 156.641 349.565 155.471ZM349.435 171.411C347.685 171.931 344.805 174.331 343.885 175.881C340.585 181.411 340.155 220.591 345.975 224.021C353.625 227.181 364.295 224.861 365.945 215.961C366.985 210.341 366.835 187.971 365.885 182.131C364.445 173.291 358.295 168.791 349.435 171.421V171.411Z" fill="#D4DEE8"/>
<path d="M409.985 157V189L420.955 189.08C430.385 175.48 428.995 149.66 451.995 158.02L433.995 196.15L451.965 238.99C447.335 238.45 439.885 240.42 435.945 238.02C432.455 235.9 422.695 210.67 419.745 205.26L409.975 207.99V238.99H393.975V159.99L397.285 157.3L409.975 156.99L409.985 157Z" fill="#D4DEE8"/>
<path d="M495.965 117V171H481.965V131H441.975V117H495.965Z" fill="#D4DEE8"/>
<path d="M258.025 117V131H218.035V171H204.035V117H258.025Z" fill="#D4DEE8"/>
<path d="M218.035 229V271H258.025V283H204.035V229H218.035Z" fill="#D4DEE8"/>
<path d="M495.965 229V283H441.975V271H481.965V229H495.965Z" fill="#D4DEE8"/>
</svg>
