<svg width="700" height="400" viewBox="0 0 700 400" fill="none" xmlns="http://www.w3.org/2000/svg">
<path d="M494.835 165.119V175.129L478.815 176.139L500.825 225.109C483.165 228.259 480.425 199.309 472.815 187.129C465.695 190.159 465.095 218.829 462.635 220.909C439.565 226.949 447.475 201.089 439.855 187.139C430.085 198.389 429.035 228.249 410.865 225.119L430.865 180.029L427.575 175.269L416.835 176.239L415.725 166.979L446.665 165.329L456.845 203.119L465.865 165.129H494.855L494.835 165.119Z" fill="#D4DEE8"/>
<path d="M202.905 165.119V175.129C196.885 175.719 189.215 172.849 184.955 178.109C190.955 184.349 196.865 206.679 201.885 211.139C205.165 214.059 211.165 212.169 212.645 216.369C213.435 227.929 215.875 237.529 200.905 235.129V223.119H152.915V235.129L142.795 234.239L141.175 216.359L142.875 214.069C158.455 212.439 159.705 188.959 168.865 178.099C167.315 176.269 166.765 175.329 164.145 175.249C155.775 174.989 149.745 182.799 150.915 165.119H202.905ZM190.905 213.119L178.885 183.119C170.405 190.419 168.235 203.539 162.915 213.119H190.905Z" fill="#D4DEE8"/>
<path d="M336.875 165.119V204.119L333.875 207.119H296.885L295.985 223.209C293.295 227.119 284.885 224.709 284.885 222.119V168.119L287.885 165.119H336.875ZM296.885 195.119H324.875V175.109L298.755 175.989L296.885 195.119Z" fill="#D4DEE8"/>
<path d="M236.315 165.549C273.255 157.219 291.775 200.629 262.755 219.989C232.475 240.179 198.775 198.949 223.895 173.119C225.845 171.109 233.645 166.149 236.315 165.549ZM240.325 175.539C219.315 180.269 223.445 216.929 247.415 214.709C275.805 212.079 269.395 168.989 240.325 175.539Z" fill="#D4DEE8"/>
<path d="M508.825 165.119H518.835L518.825 185.119H558.815V225.119H508.825V165.119ZM548.815 213.119L546.945 195.989L518.815 195.109V213.119H548.815Z" fill="#D4DEE8"/>
<path d="M396.855 165.119V175.129L378.835 176.139L404.825 222.159C406.415 227.329 394.825 225.819 391.825 223.149C387.775 219.539 376.405 191.929 372.835 185.129C369.765 182.819 354.215 221.099 351.895 223.149C348.555 226.099 344.785 225.159 340.885 225.109C337.715 222.059 362.845 184.799 364.825 178.069C366.885 171.069 352.935 179.249 348.775 176.259C344.915 173.489 347.235 165.129 349.865 165.129H396.855V165.119Z" fill="#D4DEE8"/>
<path d="M558.825 165.11V179.13L545.685 177.26C541.795 165.28 548.245 164 558.825 165.11Z" fill="#D4DEE8"/>
<path d="M368.135 205.36C379.425 201.6 382.135 214.63 376.995 218.25C366.535 225.61 359.645 208.19 368.135 205.36Z" fill="#D4DEE8"/>
<path d="M252.905 189.109H238.885V201.129H252.905V189.109Z" fill="#D4DEE8"/>
</svg>
