<svg width="700" height="400" viewBox="0 0 700 400" fill="none" xmlns="http://www.w3.org/2000/svg">
<path d="M354.696 97.8887C343.297 99.2421 320.289 106.31 308.288 112.205C303.867 114.37 302.123 115.694 301.461 117.498C300.799 119.273 299.656 127.995 298.784 137.74C298.423 141.86 298.092 145.289 298.032 145.349C298.002 145.409 296.167 145.98 293.942 146.612C283.265 149.71 277.791 153.65 277.761 158.282C277.731 163.635 285.039 167.124 301.671 169.741C311.627 171.305 321.702 171.936 336.56 171.936C349.583 171.936 356.199 171.545 366.155 170.192C379.599 168.387 390.727 165.44 400.261 161.199C409.344 157.139 415.209 151.665 415.209 147.274C415.209 143.665 411.931 140.507 405.915 138.371C401.073 136.627 388.592 134.792 388.02 135.724C387.93 135.875 388.17 137.469 388.622 139.213C389.464 142.822 389.494 144.898 388.682 145.048C387.96 145.198 387.208 143.845 385.885 140.025C380.23 123.935 375.388 111.122 373.644 107.663C372.471 105.348 370.275 102.34 368.681 100.896C365.613 98.0691 361.222 97.1368 354.696 97.8887ZM355.267 109.348C358.515 109.919 359.959 111.303 360.53 114.37C361.222 118.07 359.899 122.972 357.433 125.95C356.921 126.581 356.44 127.032 356.38 126.972C356.29 126.912 356.47 125.98 356.741 124.927C357.583 121.679 356.951 117.769 355.267 115.995C353.372 113.949 351.718 113.709 337.823 113.197C332.229 112.987 327.838 112.716 328.048 112.596C328.559 112.325 334.364 110.972 337.612 110.34C344.229 109.107 351.447 108.686 355.267 109.348ZM380.17 144.386C381.554 148.326 381.824 149.439 381.524 149.62C380.441 150.281 371.719 152.296 366.606 153.048C357.914 154.342 351.508 154.281 343.026 152.898C336.65 151.815 328.529 149.499 326.905 148.266C326.394 147.875 326.544 147.845 328.319 147.815C331.026 147.815 344.169 146.462 350.425 145.559C357.102 144.597 364.922 143.033 371.388 141.349C375.809 140.206 378.245 139.514 378.396 139.424C378.426 139.394 379.208 141.649 380.17 144.386Z" fill="#D4DEE8"/>
<path d="M234.511 164.117C233.909 164.718 234.09 165.56 235.202 167.064C235.774 167.846 236.556 169.139 236.917 169.951L237.608 171.425L237.699 214.885C237.759 244.751 237.669 259.007 237.458 260.45C237.067 262.947 236.255 264.842 234.33 267.639C233.277 269.173 232.947 269.924 233.007 270.616C233.157 272 233.819 272.24 235.714 271.639C240.736 269.985 247.955 267.909 253.128 266.616C256.376 265.834 259.323 265.022 259.684 264.842C260.647 264.3 260.466 263.127 259.053 260.962C256.978 257.774 257.008 258.135 257.008 237.382V218.825L267.173 218.735C272.737 218.675 277.399 218.675 277.55 218.735C277.67 218.795 277.76 226.585 277.76 236.059C277.76 255.217 277.82 254.525 275.685 258.044C274.362 260.24 274.211 261.353 275.113 261.894C275.474 262.135 277.88 261.834 284.136 260.811C288.798 260.029 293.881 259.247 295.355 259.067C296.859 258.886 298.242 258.586 298.453 258.435C299.084 257.894 298.874 256.962 297.64 254.916C296.979 253.834 296.287 252.39 296.077 251.728C295.746 250.766 295.655 243.668 295.595 217.321C295.535 198.343 295.625 183.185 295.776 181.892C295.956 180.388 296.407 178.914 297.129 177.41C298.874 173.741 298.844 173.711 293.701 173.109C291.956 172.899 287.294 172.267 283.324 171.696C279.354 171.154 275.805 170.673 275.414 170.673C274.993 170.673 274.602 170.944 274.392 171.425C274.091 172.087 274.211 172.387 275.414 174.192C277.67 177.591 277.58 176.869 277.7 191.787L277.79 205.261H267.384H256.978L257.068 188.448L257.158 171.666L258.451 169.139C259.143 167.756 259.714 166.372 259.714 166.102C259.714 164.959 258.632 164.778 247.534 164.207C237.217 163.665 234.992 163.635 234.511 164.117Z" fill="#D4DEE8"/>
<path d="M410.938 164.928C409.675 165.019 408.471 165.259 408.261 165.47C407.599 166.131 407.9 167.274 409.193 168.898C409.915 169.801 410.847 171.274 411.269 172.177L412.051 173.831L412.141 211.577C412.201 238.314 412.141 249.894 411.9 251.277C411.539 253.322 410.607 255.187 409.975 255.187C409.765 255.187 409.013 254.766 408.321 254.255C406.336 252.841 405.584 250.826 403.359 241.051C399.509 224.148 395.96 208.629 394.907 204.057C394.306 201.501 393.223 196.809 392.501 193.681C389.313 179.966 387.599 173.019 387.298 172.718C387.057 172.478 385.433 172.628 381.313 173.32C378.215 173.861 374.275 174.432 372.561 174.613C370.876 174.823 369.252 175.154 368.951 175.365C368.47 175.726 368.5 175.876 369.282 178.102C369.733 179.395 370.094 180.929 370.094 181.5C370.094 182.583 369.553 184.749 363.087 209.772C361.011 217.802 358.064 229.171 356.56 235.036C355.056 240.901 353.492 246.405 353.101 247.247C352.62 248.239 351.507 249.563 350.094 250.916C347.778 253.082 347.387 253.864 348.229 254.976C348.56 255.458 349.462 255.488 358.816 255.428L369.042 255.337L369.312 254.495C369.553 253.834 369.493 253.533 368.951 252.841C367.117 250.585 366.666 249.713 366.545 248.119C366.425 246.585 366.936 243.578 367.899 240.389L368.32 238.946L376.952 239.006L385.553 239.096L386.396 242.254C387.538 246.555 387.96 249.202 387.719 250.495C387.599 251.157 386.997 252.179 386.185 253.112C384.621 254.856 384.38 256.119 385.523 256.781C385.884 257.022 387.869 257.383 389.945 257.563C402.757 258.796 419.088 261.533 429.164 264.18C433.314 265.262 433.344 265.262 434.006 264.631C434.668 263.969 434.427 263.037 432.984 260.751C430.608 256.931 430.728 257.984 430.608 241.352L430.487 226.464L435.179 226.554C445.886 226.795 452.443 224.69 458.368 219.065C464.263 213.471 467.03 205.952 467 195.636C466.94 186.403 464.533 179.395 459.481 173.951C456.924 171.184 454.909 169.711 451.42 168.056C448.202 166.553 443.691 165.41 438.969 164.958C435.69 164.658 414.998 164.628 410.938 164.928ZM438.818 178.794C440.142 179.305 441.104 179.966 442.427 181.32C445.766 184.688 447.119 188.749 447.119 195.486C447.119 197.802 446.969 200.448 446.789 201.351C445.676 207.276 443.089 211.005 438.728 213.02C437.315 213.652 436.442 213.802 433.796 213.922L430.577 214.073L430.638 195.937L430.698 177.831L433.856 177.951C436.172 178.072 437.495 178.312 438.818 178.794ZM379.117 209.471C380.982 218.073 382.726 226.043 382.877 226.554C382.997 226.855 381.764 226.915 377.072 226.855C372.2 226.765 371.177 226.705 371.237 226.344C371.297 226.103 371.809 223.878 372.38 221.381C372.952 218.885 374.185 213.531 375.087 209.471C375.989 205.411 376.801 201.892 376.891 201.651C377.192 200.869 377.523 202.012 379.117 209.471Z" fill="#D4DEE8"/>
<path d="M305.22 176.418C304.649 177.019 304.739 177.41 306.062 180.087C307.807 183.516 308.318 185.14 314.604 206.614C317.642 217.02 320.559 226.915 321.101 228.57C322.424 232.871 322.544 234.886 321.552 237.833C319.777 243.096 317.371 246.856 313.431 250.555C310.965 252.841 310.845 253.022 310.845 254.225C310.845 256.119 311.627 256.781 313.642 256.571C314.514 256.48 317.311 256.33 319.867 256.24C327.326 255.939 331.326 255.548 331.928 255.007C332.259 254.706 332.83 252.991 333.402 250.555C333.913 248.39 335.146 244.029 336.139 240.901C341.432 224.299 347.688 204.809 350.756 195.366C354.034 185.23 354.545 183.967 357.673 178.102C358.485 176.598 358.154 176.538 350.936 176.929C347.327 177.139 343.297 177.29 341.973 177.29C339.176 177.29 338.334 177.47 338.094 178.102C337.973 178.373 338.274 179.696 338.725 181.079C339.748 184.237 339.718 184.418 336.59 194.734C335.327 198.945 333.733 204.298 333.041 206.614L331.778 210.825L331.417 209.622C328.319 199.125 324.68 186.162 324.529 185.11C324.379 184.087 324.529 183.155 325.101 181.35C326.033 178.493 326.063 178.012 325.341 177.621C325.041 177.47 321.371 177.109 317.161 176.839C312.95 176.598 308.619 176.297 307.536 176.207C306.153 176.087 305.461 176.147 305.22 176.418Z" fill="#D4DEE8"/>
<path d="M341.071 265.293C312.589 266.586 284.347 271.007 265.429 277.143C261.068 278.556 260.316 278.977 260.316 280C260.316 282.346 272.618 293.835 275.836 294.466C276.558 294.587 277.881 294.196 281.4 292.842C299.506 285.805 317.16 281.323 336.259 278.977C340.8 278.406 343.357 278.165 351.898 277.413C353.883 277.263 360.049 277.022 365.583 276.932C394.667 276.451 420.322 281.353 432.954 289.865C436.894 292.542 439.24 295.188 441.375 299.489C442.127 300.993 442.909 302.286 443.119 302.346C443.751 302.557 445.495 300.422 446.187 298.587C448.112 293.534 446.819 288.602 442.367 284.15C432.954 274.676 409.524 268.27 374.756 265.714C370.576 265.383 345.642 265.082 341.071 265.293Z" fill="#D4DEE8"/>
</svg>
