<svg width="700" height="400" viewBox="0 0 700 400" fill="none" xmlns="http://www.w3.org/2000/svg">
<path d="M330.105 252.086C336.985 245.916 332.885 221.526 325.135 220.066C322.105 219.496 309.245 219.356 307.885 221.276C306.215 229.156 299.945 239.956 303.405 247.666C304.805 250.776 308.575 248.866 308.095 252.066H288.115C294.615 245.456 296.365 238.596 299.105 230.076C308.515 200.786 315.275 168.166 322.115 138.076C327.305 137.516 325.295 138.096 326.155 141.006C336.735 176.886 342.105 214.556 354.115 250.076C355.585 251.166 360.085 248.276 360.085 247.086V140.086L390.095 224.086C393.225 223.726 393.165 221.126 393.885 218.896C401.115 196.386 402.285 169.866 410.225 147.236C414.225 141.516 423.825 144.836 430.055 144.096C430.015 148.536 428.125 152.496 427.975 156.996C427.185 180.416 425.155 221.316 427.955 243.206C428.515 247.556 429.995 248.736 432.065 252.066H406.075C405.235 251.446 410.075 246.286 410.075 245.086V180.086L392.075 264.086L387.895 261.266L366.095 202.086V245.086C366.095 246.106 372.075 249.616 372.095 252.086H330.105ZM326.105 214.076L318.125 182.096L310.105 214.066H326.095L326.105 214.076Z" fill="#D4DEE8"/>
<path d="M273.115 144.085C296.625 146.955 305.545 168.035 298.585 189.555C293.655 204.805 280.815 206.685 268.375 213.345C268.415 226.275 265.785 240.205 272.115 252.075L246.125 252.105L252.095 278.095C245.715 273.255 234.485 256.045 228.085 253.135C222.225 250.475 201.705 250.935 197.205 256.165C190.055 264.465 197.305 269.965 197.115 278.115C182.915 274.415 179.005 259.265 180.125 246.085L187.935 245.915L215.135 138.105L244.135 250.085C247.535 250.735 248.285 249.325 249.635 246.605C253.535 238.755 253.305 177.065 252.095 165.115C251.305 157.255 249.025 150.235 244.115 144.095C253.365 144.895 264.085 142.995 273.105 144.095L273.115 144.085ZM268.115 204.085C288.245 202.005 289.845 153.585 268.115 152.085V204.085ZM226.125 246.085L209.125 184.065L194.125 246.085H226.115H226.125Z" fill="#D4DEE8"/>
<path d="M470.065 144.086C469.665 149.496 465.125 151.246 464.175 157.196C462.645 166.796 465.085 178.816 463.975 188.766C487.165 194.256 502.155 214.346 490.845 237.866C488.935 241.846 478.535 252.086 475.065 252.086H442.075C443.145 249.516 445.085 247.986 446.015 245.026C449.995 232.366 449.565 178.176 448.045 163.116C447.285 155.536 444.535 150.836 442.075 144.086H470.065ZM464.065 196.086V246.086C483.085 243.556 482.255 200.686 464.065 196.086Z" fill="#D4DEE8"/>
<path d="M520.055 268.086C516.565 265.066 507.935 258.656 505.945 255.196C500.585 245.856 505.625 191.076 504.135 175.006C501.835 150.136 485.655 153.156 488.295 178.866C489.015 185.836 493.405 191.606 493.075 198.076C477.045 183.826 475.265 138.836 504.575 144.516C510.075 145.586 520.055 153.856 520.055 159.086V268.086Z" fill="#D4DEE8"/>
</svg>
