<svg width="700" height="400" viewBox="0 0 700 400" fill="none" xmlns="http://www.w3.org/2000/svg">
<path d="M487.367 169.454C488.141 170.343 492.408 164.915 493.109 164.091C502.261 153.382 511.157 139.996 520.705 130.012C522.723 127.903 524.453 125.3 527.715 125.918V178.894C530.153 182.716 541.266 181.266 536.397 187.305C527.328 185.237 517.476 185.072 508.422 187.42C503.463 181.901 513.744 181.868 517.006 180.13V143.167C514.131 145.293 511.89 148.283 509.617 150.993C500.663 161.644 491.543 175.36 482.021 185.064C479.689 187.436 477.177 189.512 476.617 184.685L476.683 133.043L468.149 129.88C466.097 129.575 467.045 126.165 468.149 125.885C477.482 126.947 486.79 127.063 496.041 125.3C500.91 131.346 489.797 129.888 487.359 133.719V169.445L487.367 169.454Z" fill="#D4DEE8"/>
<path d="M146.337 135.746C145.257 131.858 132.851 132.262 136.015 127.921C137.259 126.207 141.929 127.921 144.236 127.987C151.576 128.201 158.808 127.591 166.099 127.122L166.008 131.15C162.886 131.891 159.195 132.328 157.037 134.931V170.658L192.805 127.896C195.556 126.248 197.064 126.784 197.435 129.964C198.736 141.068 197.707 159.356 197.435 171.102C197.344 174.982 194.519 179.241 198.753 182.042C202.385 184.447 207.773 182.19 206.455 188.723C199.98 187.553 193.744 186.738 187.121 187.092C184.444 187.232 175.984 190.346 175.959 186.663C176.033 182.816 186.693 182.932 186.693 180.098V145.195C184.782 145.154 183.348 147.221 182.154 148.465C170.918 160.179 161.156 175.798 150.101 187.957L146.337 188.723V135.746Z" fill="#D4DEE8"/>
<path d="M370.969 125.688C418.097 119.238 421.128 195.321 370.845 189.448C337.796 185.592 337.046 130.326 370.969 125.688ZM370.944 131.413C350.515 135.541 351.569 188.286 379.75 184.538C396.843 182.264 398.549 156.184 393.804 143.556C389.924 133.218 381.884 129.198 370.944 131.405V131.413Z" fill="#D4DEE8"/>
<path d="M433.971 179.998L442.529 183.367C443.296 184.496 443.147 187.082 441.697 187.305C435.486 185.913 429.102 185.558 422.726 185.888C420.749 185.995 413.022 188.474 412.454 186.209C410.971 180.278 422.487 183.194 423.171 177.296C424.662 164.388 421.985 148.612 423.105 135.383C422.421 130.918 414.975 131.841 413.17 129.691C408.351 123.949 421.425 126.742 423.5 126.783C431.318 126.939 439.589 124.937 447.225 126.124C466.485 129.097 469.269 156.446 451.113 164.108C448.403 165.253 431.252 169.857 437.051 163.226C438.007 162.13 443.403 160.969 445.635 159.47C458.37 150.894 450.858 124.583 434.234 132.5L433.971 180.014V179.998Z" fill="#D4DEE8"/>
<path d="M301.987 134.511L291.295 134.939C286.764 136.834 285.223 147.848 282.637 150.945C281.517 152.279 279.539 151.686 278.098 151.761L280.586 128.374C282.53 122.418 285.339 128.909 289.26 129.535C293.914 130.277 323.603 130.153 327.285 128.95C329.534 128.217 330.728 126.133 332.845 125.482C334.723 125.894 336.948 148.276 337.384 151.761C330.844 153.144 330.423 143.383 327.68 138.86C324.056 132.88 319.78 134.264 313.454 134.873L312.844 179.942C314.179 184.39 325.983 181.688 324.146 187.405C323.693 188.822 322.729 188.575 321.584 188.55C316.37 188.41 311.172 186.944 305.645 187.051C303.355 187.1 291.781 189.234 291.278 188.723L292.085 184.192L301.979 181.334V134.511H301.987Z" fill="#D4DEE8"/>
<path d="M267.405 151.761L261.672 151.728C257.734 124.404 225.196 123.3 222.947 153.013C220.657 183.163 245.971 196.607 264.604 171.548L268.18 173.648C260.453 193.493 230.278 194.638 218.136 178.319C208.967 165.995 209.173 143.507 220.854 132.855C228.828 125.582 242.462 123.143 252.314 127.806C254.587 128.885 259.299 133.737 260.411 133.745C264.003 133.77 262.001 124.148 267.405 126.306V151.769V151.761Z" fill="#D4DEE8"/>
<path d="M450.753 223.365L445.827 227.904C435.472 238.696 425.826 255.649 415.339 265.666C413.057 267.841 410.586 268.994 410.364 264.883L410.405 213.917C409.507 208.999 398.856 212.327 400.577 206.594C401.204 204.501 404.342 206.124 405.841 206.157C414.252 206.338 422.663 206.206 430.999 205.292L430.892 209.296C427.416 210.35 423.569 210.91 421.114 213.925V248.828C422.984 248.976 424.088 247.098 425.208 245.928C436.065 234.676 445.366 218.678 456.107 207.755C458.439 205.383 460.951 203.299 461.511 208.134L461.47 258.277C462.072 261.58 467.986 261.638 470.565 262.346L471.355 266.901C460.745 265.114 451.478 265.41 440.884 266.901C439.92 260.32 447.474 262.741 450.769 259.1V223.374L450.753 223.365Z" fill="#D4DEE8"/>
<path d="M497.691 231.865C505.764 233.95 502.741 221.906 509.282 224.007C510.509 224.872 510.509 243.785 509.282 244.659C502.889 246.998 505.023 235.754 498.952 236.759C495.269 237.368 497.658 241.149 497.733 243.744C497.889 249.041 497.436 254.387 497.807 259.676C505.006 262.279 512.297 263.589 516.481 255.944C518.936 251.471 517.709 244.411 524.044 245.82L522.388 267.172C521.35 268.259 496.497 265.417 492.296 265.5C489.783 265.549 476.99 267.913 476.273 267.18L476.636 263.02C477.476 261.834 485.071 262.106 486.579 258.976L486.991 215.028C486.356 211.601 479.247 211.164 476.619 209.739L477.155 205.612C491.579 208.347 506.234 206.477 520.749 205.587L523.689 228.603C523.022 229.542 519.999 229.806 519.208 229.295C518.038 228.537 517.075 215.687 512 213.084C509.068 211.576 500.533 211.37 497.691 213.388V231.865Z" fill="#D4DEE8"/>
<path d="M236.959 257.398C237.708 261.92 250.707 262.192 254.002 259.194C258.624 254.984 256.779 244.11 264.135 245.486C263.36 251.615 263.69 258.815 262.462 264.762C262.265 265.71 262.232 266.434 261.136 266.78L239.875 265.166L217.164 266.484L216.719 262.67L226.283 258.889C225.014 244.901 227.864 228.294 226.299 214.636C225.615 208.672 214.453 212.173 216.472 206.58C216.818 205.624 217.477 205.245 218.457 205.196L260.807 205.286C260.988 211.605 263.327 219.274 263.393 225.37C263.402 226.54 263.36 228.665 262.059 229.052C256.993 230.576 257.742 215.641 252.1 212.741C249.604 211.456 238.697 210.756 237.379 213.45C236.423 215.402 236.489 229.414 238.137 230.782C243.73 235.412 243.936 221.053 249.323 223.31V244.662L245.295 244.564C244.068 239.819 242.931 235.107 236.967 236.449C237.708 242.817 235.954 251.318 236.967 257.39L236.959 257.398Z" fill="#D4DEE8"/>
<path d="M329.196 228.648C328.784 230.123 325.752 231.4 324.212 230.337C323.322 229.727 321.947 223.664 321.123 221.918C314.343 207.502 297.118 203.548 288.411 218.351C275.692 239.983 292.868 276.023 318.775 258.485C322.07 256.253 326.428 248.122 329.122 253.452C324.327 264.828 311.814 268.84 299.977 267.654C261.598 263.79 265.601 201.958 304.046 203.589C312.152 203.935 314.665 207.156 320.522 211.028C325.308 214.191 323.644 206.316 325.86 204.784C327.112 203.919 329.204 204.85 329.204 205.657V228.656L329.196 228.648Z" fill="#D4DEE8"/>
<path d="M395.577 206.108V210.21C392.62 210.012 390.527 210.564 388.13 212.237C385.371 214.164 374.258 227.583 372.141 230.796C371.589 231.636 370.922 232.394 371.037 233.498L411.22 290.7L405.405 289.53L360.361 239.38L378.204 212.986C378.608 210.4 369.283 210.671 373.327 205.646C380.832 206.676 388.04 206.569 395.577 206.1V206.108Z" fill="#D4DEE8"/>
<path d="M210.598 205.237L210.524 210.089C205.779 211.234 202.056 210.633 201.496 216.276C200.219 229.184 202.534 244.218 201.562 257.373C202.262 261.064 207.567 261.302 210.524 261.986L210.598 266.83C204.115 265.487 197.929 264.845 191.265 265.207C188.596 265.347 181.108 268.494 180.976 264.828C180.819 260.355 188.241 261.426 190.877 258.897V214.628C191.413 210.188 183.266 210.97 182.137 209.397L181.857 206.547L183.834 205.204C192.525 206.72 201.891 206.333 210.598 205.229V205.237Z" fill="#D4DEE8"/>
<path d="M367.569 205.292C370.955 213.019 359.678 208.785 358.533 214.757L359.027 259.586C363.022 261.761 368.92 260.781 367.578 266.893C362.775 266.86 357.964 265.196 353.17 265.196C349.834 265.196 341.234 267.42 339.298 266.803C337.181 266.127 338.021 263.565 338.935 262.14C341.407 261.432 347.272 261.184 347.816 258.285L347.297 212.607L338.26 209.452L338.795 205.325C348.359 206.972 358.022 207.384 367.561 205.292H367.569Z" fill="#D4DEE8"/>
<path d="M177.656 205.245C179.608 212.049 170.934 209.43 169.599 214.035C168.94 216.292 169.138 229.06 169.616 231.737C171.7 243.451 185.185 235.7 185.894 236.449C187.236 240.947 181.437 244.324 177.705 245.115C166.593 247.471 159.755 243.163 158.734 231.91C158.314 227.264 159.739 216.531 158.586 213.161C157.432 209.792 148.313 211.901 150.488 205.229C159.434 206.481 168.71 206.481 177.656 205.229V205.245Z" fill="#D4DEE8"/>
<path d="M564.5 155.763C560.702 159.503 557.531 162.369 555.027 167.246C553.371 162.196 551.106 159.404 546.385 156.974L552.143 152.048L554.631 146.718C558.075 150.301 558.421 155.112 564.5 155.763Z" fill="#D4DEE8"/>
</svg>
