<svg width="700" height="400" viewBox="0 0 700 400" fill="none" xmlns="http://www.w3.org/2000/svg">
<path d="M487.367 161.454C488.141 162.343 492.409 156.915 493.109 156.091C502.261 145.382 511.157 131.996 520.705 122.012C522.723 119.903 524.453 117.3 527.715 117.918V170.894C530.153 174.716 541.266 173.267 536.398 179.305C527.328 177.237 517.476 177.072 508.423 179.42C503.463 173.901 513.744 173.868 517.006 172.13V135.167C514.131 137.293 511.891 140.283 509.617 142.993C500.663 153.645 491.544 167.36 482.021 177.064C479.69 179.437 477.177 181.512 476.617 176.685L476.683 125.043L468.149 121.88C466.097 121.575 467.045 118.165 468.149 117.885C477.482 118.948 486.79 119.063 496.041 117.3C500.91 123.346 489.797 121.888 487.359 125.719V161.446L487.367 161.454Z" fill="#D4DEE8"/>
<path d="M146.337 127.746C145.257 123.858 132.851 124.262 136.015 119.921C137.259 118.207 141.929 119.921 144.236 119.987C151.576 120.201 158.808 119.591 166.099 119.122L166.008 123.15C162.886 123.891 159.195 124.328 157.037 126.931V162.658L192.805 119.896C195.556 118.248 197.064 118.784 197.435 121.964C198.736 133.068 197.707 151.356 197.435 163.102C197.344 166.982 194.519 171.241 198.753 174.042C202.385 176.447 207.773 174.19 206.455 180.723C199.98 179.553 193.744 178.737 187.121 179.092C184.444 179.232 175.984 182.346 175.959 178.663C176.033 174.816 186.693 174.932 186.693 172.098V137.195C184.782 137.154 183.348 139.221 182.154 140.465C170.918 152.179 161.156 167.798 150.101 179.957L146.337 180.723V127.746Z" fill="#D4DEE8"/>
<path d="M370.969 117.688C418.096 111.238 421.128 187.321 370.845 181.448C337.796 177.593 337.046 122.326 370.969 117.688ZM370.944 123.414C350.515 127.541 351.569 180.286 379.75 176.538C396.843 174.265 398.549 148.184 393.804 135.556C389.924 125.218 381.884 121.198 370.944 123.405V123.414Z" fill="#D4DEE8"/>
<path d="M433.971 171.998L442.53 175.367C443.296 176.496 443.148 179.082 441.698 179.305C435.487 177.912 429.102 177.558 422.726 177.888C420.749 177.995 413.022 180.474 412.454 178.209C410.971 172.278 422.488 175.194 423.171 169.296C424.662 156.387 421.985 140.612 423.105 127.383C422.422 122.918 414.975 123.841 413.171 121.69C408.352 115.949 421.425 118.741 423.501 118.783C431.318 118.939 439.589 116.937 447.225 118.124C466.485 121.097 469.269 148.446 451.113 156.107C448.403 157.252 431.252 161.857 437.052 155.226C438.007 154.13 443.403 152.969 445.635 151.47C458.371 142.894 450.858 116.583 434.234 124.5L433.971 172.014V171.998Z" fill="#D4DEE8"/>
<path d="M301.987 126.511L291.294 126.939C286.764 128.834 285.223 139.848 282.637 142.945C281.516 144.279 279.539 143.686 278.098 143.761L280.585 120.374C282.53 114.418 285.339 120.909 289.26 121.535C293.914 122.277 323.602 122.153 327.285 120.95C329.534 120.217 330.728 118.133 332.845 117.482C334.723 117.894 336.947 140.276 337.384 143.761C330.843 145.144 330.423 135.383 327.68 130.86C324.056 124.88 319.78 126.264 313.454 126.873L312.844 171.942C314.179 176.39 325.983 173.688 324.146 179.405C323.693 180.822 322.729 180.575 321.584 180.55C316.37 180.41 311.172 178.944 305.644 179.051C303.354 179.1 291.78 181.234 291.278 180.723L292.085 176.192L301.979 173.334V126.511H301.987Z" fill="#D4DEE8"/>
<path d="M267.405 143.761L261.672 143.728C257.734 116.403 225.196 115.3 222.947 145.013C220.657 175.163 245.971 188.606 264.605 163.548L268.18 165.648C260.453 185.493 230.278 186.638 218.136 170.319C208.968 157.995 209.174 135.507 220.855 124.855C228.829 117.581 242.462 115.143 252.314 119.806C254.588 120.885 259.3 125.737 260.412 125.745C264.003 125.77 262.002 116.148 267.405 118.306V143.769V143.761Z" fill="#D4DEE8"/>
<path d="M450.753 215.365L445.827 219.904C435.472 230.696 425.826 247.649 415.339 257.666C413.058 259.84 410.586 260.994 410.364 256.883L410.405 205.917C409.507 200.999 398.856 204.327 400.578 198.594C401.204 196.501 404.342 198.124 405.841 198.157C414.252 198.338 422.663 198.206 430.999 197.292L430.892 201.296C427.416 202.35 423.569 202.91 421.114 205.925V240.828C422.984 240.976 424.088 239.098 425.208 237.928C436.065 226.676 445.366 210.678 456.108 199.755C458.439 197.383 460.951 195.299 461.511 200.134L461.47 250.277C462.072 253.58 467.986 253.638 470.565 254.346L471.355 258.901C460.745 257.114 451.478 257.41 440.884 258.901C439.921 252.32 447.475 254.741 450.77 251.1V215.374L450.753 215.365Z" fill="#D4DEE8"/>
<path d="M497.691 223.865C505.764 225.95 502.741 213.906 509.282 216.007C510.509 216.872 510.509 235.785 509.282 236.658C502.889 238.998 505.023 227.754 498.952 228.759C495.269 229.368 497.658 233.149 497.733 235.744C497.889 241.041 497.436 246.387 497.807 251.676C505.006 254.279 512.297 255.589 516.481 247.944C518.936 243.471 517.709 236.411 524.044 237.82L522.388 259.172C521.35 260.259 496.497 257.417 492.296 257.5C489.783 257.549 476.99 259.913 476.273 259.18L476.636 255.02C477.476 253.834 485.071 254.106 486.579 250.975L486.991 207.028C486.356 203.601 479.247 203.164 476.619 201.739L477.155 197.612C491.579 200.347 506.234 198.477 520.749 197.587L523.689 220.603C523.022 221.542 519.999 221.806 519.208 221.295C518.038 220.537 517.075 207.687 512 205.084C509.068 203.576 500.533 203.37 497.691 205.388V223.865Z" fill="#D4DEE8"/>
<path d="M236.959 249.398C237.708 253.92 250.707 254.192 254.002 251.193C258.624 246.984 256.779 236.11 264.135 237.486C263.36 243.615 263.69 250.814 262.462 256.762C262.265 257.709 262.232 258.434 261.136 258.78L239.875 257.166L217.164 258.484L216.719 254.67L226.283 250.889C225.014 236.901 227.864 220.294 226.299 206.636C225.615 200.672 214.453 204.173 216.472 198.579C216.818 197.624 217.477 197.245 218.457 197.196L260.807 197.286C260.988 203.604 263.327 211.274 263.393 217.37C263.402 218.539 263.36 220.665 262.059 221.052C256.993 222.576 257.742 207.641 252.1 204.741C249.604 203.456 238.697 202.756 237.379 205.45C236.423 207.402 236.489 221.414 238.137 222.782C243.73 227.411 243.936 213.053 249.323 215.31V236.662L245.295 236.563C244.068 231.818 242.931 227.106 236.967 228.449C237.708 234.817 235.954 243.318 236.967 249.389L236.959 249.398Z" fill="#D4DEE8"/>
<path d="M329.196 220.648C328.784 222.122 325.752 223.399 324.212 222.337C323.322 221.727 321.947 215.664 321.123 213.918C314.343 199.502 297.118 195.548 288.411 210.351C275.692 231.983 292.868 268.023 318.775 250.485C322.07 248.252 326.428 240.122 329.122 245.452C324.327 256.828 311.814 260.839 299.977 259.653C261.598 255.79 265.601 193.958 304.046 195.589C312.152 195.935 314.665 199.156 320.522 203.028C325.308 206.191 323.644 198.316 325.86 196.783C327.112 195.919 329.204 196.849 329.204 197.657V220.656L329.196 220.648Z" fill="#D4DEE8"/>
<path d="M395.577 198.108V202.21C392.62 202.012 390.528 202.564 388.13 204.236C385.371 206.164 374.258 219.583 372.141 222.796C371.589 223.636 370.922 224.394 371.037 225.498L411.221 282.7L405.405 281.53L360.361 231.379L378.204 204.986C378.608 202.399 369.283 202.671 373.327 197.646C380.832 198.676 388.04 198.569 395.577 198.099V198.108Z" fill="#D4DEE8"/>
<path d="M210.599 197.237L210.525 202.089C205.78 203.234 202.056 202.632 201.496 208.275C200.219 221.184 202.534 236.217 201.562 249.373C202.262 253.063 207.567 253.302 210.525 253.986L210.599 258.83C204.116 257.487 197.929 256.844 191.265 257.207C188.596 257.347 181.108 260.494 180.976 256.828C180.82 252.355 188.242 253.426 190.878 250.897V206.628C191.413 202.188 183.266 202.97 182.138 201.397L181.857 198.547L183.835 197.204C192.525 198.72 201.891 198.332 210.599 197.229V197.237Z" fill="#D4DEE8"/>
<path d="M367.57 197.292C370.955 205.019 359.678 200.785 358.533 206.757L359.027 251.586C363.022 253.761 368.921 252.781 367.578 258.893C362.775 258.86 357.965 257.196 353.17 257.196C349.834 257.196 341.234 259.42 339.298 258.802C337.181 258.127 338.021 255.565 338.936 254.14C341.407 253.432 347.272 253.184 347.816 250.285L347.297 204.607L338.26 201.452L338.796 197.325C348.359 198.972 358.022 199.384 367.561 197.292H367.57Z" fill="#D4DEE8"/>
<path d="M177.656 197.245C179.608 204.049 170.934 201.43 169.599 206.035C168.94 208.292 169.138 221.06 169.616 223.737C171.7 235.451 185.185 227.7 185.894 228.449C187.236 232.947 181.437 236.325 177.705 237.115C166.593 239.471 159.755 235.163 158.734 223.91C158.314 219.264 159.739 208.531 158.586 205.161C157.432 201.792 148.313 203.901 150.488 197.229C159.434 198.481 168.71 198.481 177.656 197.229V197.245Z" fill="#D4DEE8"/>
<path d="M564.5 147.763C560.702 151.503 557.531 154.369 555.027 159.246C553.371 154.196 551.105 151.404 546.385 148.974L552.143 144.048L554.631 138.718C558.074 142.301 558.42 147.112 564.5 147.763Z" fill="#D4DEE8"/>
</svg>
